<?xml version="1.0" standalone="no"?>
<!DOCTYPE svg PUBLIC "-//W3C//DTD SVG 1.1//EN" "http://www.w3.org/Graphics/SVG/1.1/DTD/svg11.dtd" >
<svg xmlns="http://www.w3.org/2000/svg">
<metadata></metadata>
<defs>
<font id="aleobolditalic" horiz-adv-x="1646" >
<font-face units-per-em="2000" ascent="1610" descent="-390" />
<missing-glyph horiz-adv-x="462" />
<glyph unicode="&#xfb01;" horiz-adv-x="1290" d="M-90 -231q0 76 79 76q94 0 141.5 53.5t59.5 150.5q8 68 34.5 282.5t40.5 332.5q4 28 11 87t11 89l-87 14q-63 11 -57 62l13 101h153l4 33q19 155 106 257t228 150q100 33 231 33q93 0 150 -16q105 -24 175 -79q37 -29 46 -83t-18 -103q-24 -41 -65 -68t-94 -27 q-71 0 -111.5 52.5t-20.5 125.5q-82 20 -161 4.5t-128 -53.5q-83 -62 -100 -201l-3 -25h636l-101 -819q22 -4 57.5 -9.5t52.5 -8.5q49 -11 43 -62l-15 -118h-409l45 365q8 71 18 150t22 176t18 150h-381h-2l-1 -1l-22 -179h1l-75 -619q-17 -142 -81 -231t-173 -130t-271 -41 v129z" />
<glyph unicode="&#xfb02;" horiz-adv-x="1342" d="M-90 -231q0 76 79 76q94 0 141.5 53.5t59.5 150.5q8 68 34.5 282.5t40.5 331.5q12 98 22 177l-87 14q-63 11 -57 62l13 101h153l5 43q17 138 92 236t193 145q85 35 197 35q59 0 168 -6t166 -6h139l-142 -1154q-9 -76 17 -109t98 -33h23t16 -1.5t13.5 -5t6.5 -9.5t4 -16 l-9 -133q-61 -19 -128 -19q-170 0 -242 95q-63 86 -45 230l121 986h-189q-77 0 -133 -29.5t-87 -81.5t-40 -125l-5 -42h244l-22 -176h-238l-23 -180h1l-75 -619q-26 -211 -154 -306.5t-371 -95.5v129z" />
<glyph horiz-adv-x="0" />
<glyph unicode="&#xd;" horiz-adv-x="176" />
<glyph horiz-adv-x="176" />
<glyph horiz-adv-x="176" />
<glyph unicode=" "  horiz-adv-x="462" />
<glyph unicode="&#x09;" horiz-adv-x="462" />
<glyph unicode="&#xa0;" horiz-adv-x="462" />
<glyph unicode="!" horiz-adv-x="517" d="M62 195q21 40 60.5 66t91.5 26q63 0 101.5 -42.5t30.5 -108.5q-8 -64 -54.5 -107t-114.5 -43q-65 0 -103 43q-27 30 -30 78.5t18 87.5zM160 510q-6 216 12 364l70 572h233l-70 -572q-18 -148 -78 -364h-167z" />
<glyph unicode="&#x22;" horiz-adv-x="722" d="M56 1158l35 288h215l-35 -288l-42 -156q-13 -45 -34 -68t-63 -23q-72 0 -73 91zM424 1158l35 288h215l-35 -288l-42 -156q-13 -45 -34 -68t-63 -23q-72 0 -73 91z" />
<glyph unicode="#" horiz-adv-x="1248" d="M49 507l23 79h190l86 276h-214l31 103q12 40 39 57.5t79 17.5h111l102 322q12 37 42.5 60.5t72.5 23.5h112l-126 -406h204l127 406h110q24 0 42.5 -11t25.5 -30t0 -45l-102 -320h203l-31 -103q-12 -40 -39.5 -57.5t-78.5 -17.5h-100l-85 -276h142q78 0 49 -100l-21 -78 h-217l-127 -408h-113q-36 0 -54 32t-6 70l97 306h-205l-97 -318q-13 -42 -45 -66t-78 -24h-109l126 408h-115q-80 0 -51 99zM465 586h205l85 276h-204z" />
<glyph unicode="$" horiz-adv-x="1195" d="M36 174l90 113q27 34 65 34q22 0 45 -15q10 -7 36.5 -25.5t40.5 -27.5t38 -22.5t48 -21.5t51 -13l93 448q-66 19 -112.5 37.5t-97.5 51t-80 72.5t-44.5 101.5t-5.5 138.5q16 132 100 226.5t208 145.5q89 37 200 42l26 126q5 25 26 43.5t49 18.5h91l-41 -197 q178 -29 297 -157l-71 -91q-47 -57 -101 -30q-12 5 -38 19t-42 22t-40.5 17.5t-46.5 14.5l-86 -414q42 -14 70 -23.5t65.5 -25t63.5 -31t53.5 -36.5t47.5 -47.5t33 -57.5q23 -49 20 -112.5t-18 -118t-38 -100.5q-64 -127 -184.5 -204t-287.5 -89l-30 -147q-5 -24 -26.5 -43 t-48.5 -19h-91l45 214q-115 16 -212 64.5t-160 118.5zM439 1069q-4 -33 3 -60.5t20.5 -46.5t36 -35.5t43.5 -26.5t49 -21l76 370q-96 -12 -157 -55.5t-71 -124.5zM602 193q104 13 167.5 69.5t75.5 152.5q4 33 -4 60t-21.5 45.5t-37.5 34t-45 25t-51 19.5z" />
<glyph unicode="%" horiz-adv-x="1591" d="M40 0l1247 1407q36 39 85 39h179l-1247 -1409q-33 -37 -80 -37h-184zM100 1096q15 124 78 212t163 128q64 25 136 25q77 0 136 -27t95.5 -74.5t52.5 -111.5q30 -120 -10.5 -232.5t-115.5 -179.5q-108 -97 -246 -97q-151 0 -230 97.5t-59 259.5zM292 1096 q-25 -197 116 -197q144 0 169 197q25 205 -119 205q-42 0 -73 -16.5t-49.5 -46.5t-28.5 -64t-15 -78zM823 340q15 124 78 212t163 128q65 25 137 25q113 0 186 -57.5t97 -155.5q30 -120 -10.5 -232.5t-115.5 -179.5q-109 -98 -246 -98q-150 0 -229.5 98t-59.5 260zM1015 340 q-24 -198 116 -198q145 0 170 198q25 205 -120 205q-141 0 -166 -205z" />
<glyph unicode="&#x26;" horiz-adv-x="1403" d="M61 226q-18 45 -21 95t6 93.5t26 86t38.5 76t45.5 61.5q91 104 230 166q-40 69 -58 137.5t-8 151.5q15 124 89.5 211t187.5 128q80 30 176 30q83 0 150 -25t112 -70t68 -107q21 -58 19 -120l-162 -33q-3 -1 -6 -1h-7q-14 0 -23.5 5.5t-15.5 16t-9.5 21t-7.5 24t-8 22.5 q-37 79 -133 79q-54 0 -99 -24.5t-70.5 -65t-33 -93.5t15.5 -110q20 -54 77 -121l335 -399q83 127 113 275q5 23 19.5 37t37.5 14h155q-34 -265 -202 -473l265 -314h-242q-40 0 -63 11t-43 36l-87 103q-225 -166 -488 -166q-139 0 -238.5 66t-140.5 176zM297 418 q-10 -83 23.5 -139t96.5 -81q42 -17 91 -17q165 0 306 104l-333 390q-78 -47 -126 -109t-58 -148z" />
<glyph unicode="'" horiz-adv-x="354" d="M56 1158l35 288h215l-35 -288l-42 -156q-5 -17 -10 -29.5t-13 -24.5t-17.5 -20t-24 -12.5t-32.5 -4.5q-72 0 -73 91z" />
<glyph unicode="(" horiz-adv-x="610" d="M39 382q-1 188 29 360t87.5 319t127.5 268.5t161 240.5l102 -66q51 -31 9 -97q-113 -175 -188 -375q-151 -405 -99 -810q25 -199 97 -374q12 -35 1.5 -59.5t-35.5 -37.5l-118 -67q-83 157 -128 326.5t-46 371.5z" />
<glyph unicode=")" horiz-adv-x="612" d="M54 -152q114 175 189 374q151 405 99 810q-25 200 -96 375q-25 66 33 97l118 66q83 -157 128 -326t46 -371q3 -518 -251 -960q-66 -115 -154 -229l-102 67q-24 15 -26 43.5t16 53.5z" />
<glyph unicode="*" horiz-adv-x="767" d="M46 1056l170 92q40 22 76 28q-30 3 -69 29l-147 93l70 100l147 -94q40 -28 54 -48q-9 29 -3 75l22 185h118l-22 -183q-6 -48 -21 -77q20 23 64 48l170 92l46 -100l-170 -91q-42 -24 -75 -29q33 -6 68 -28l148 -93l-70 -100l-148 93q-38 25 -54 47q9 -32 4 -74l-23 -184 h-118l23 183q5 44 20 75q-18 -19 -64 -47l-169 -92z" />
<glyph unicode="+" horiz-adv-x="1088" d="M46 580l22 183h387l51 410h200l-51 -410h389l-22 -183h-389l-51 -412h-200l51 412h-387z" />
<glyph unicode="," horiz-adv-x="437" d="M69 -245q-10 9 -12.5 19.5t-0.5 19t10 19.5t13.5 17t16.5 16t13 12q76 72 99 145q-61 0 -96 43q-23 29 -26 75.5t17 82.5q20 38 57 60.5t87 22.5q47 0 78.5 -21t44.5 -59t6 -89q-19 -156 -164 -310q-47 -50 -105 -92z" />
<glyph unicode="-" horiz-adv-x="662" d="M59 501l25 206h518l-25 -206h-518z" />
<glyph unicode="." horiz-adv-x="421" d="M76 195q21 40 60.5 66t91.5 26q63 0 101.5 -42.5t30.5 -108.5q-8 -64 -54.5 -107t-114.5 -43q-65 0 -103 43q-27 30 -30 78.5t18 87.5z" />
<glyph unicode="/" horiz-adv-x="1087" d="M39 -95l767 1494q46 87 137 87h105l-762 -1489q-20 -40 -57 -66t-86 -26h-104z" />
<glyph unicode="0" horiz-adv-x="1171" d="M55 394q-24 151 3 342t78 316q112 273 323 366q102 44 215 44q99 0 176.5 -30t130.5 -86t86 -129t49 -165q25 -150 -2 -341t-79 -317q-113 -274 -326 -366q-103 -44 -216 -44q-98 0 -175.5 30t-129.5 86t-85 129.5t-48 164.5zM311 723q-12 -93 -14 -163.5t8.5 -139.5 t36.5 -121q55 -110 176 -110q123 0 206 110q46 61 82 164q17 51 32 119t25.5 146t10.5 157t-10.5 148t-39.5 122.5t-74 77.5q-47 24 -101 24q-121 0 -203 -110q-55 -73 -86.5 -177.5t-48.5 -246.5z" />
<glyph unicode="1" horiz-adv-x="898" d="M41 0l14 116q5 41 47 50q21 4 255 22l103 840q6 49 16 103l-230 -174q-24 -19 -55 -19q-18 0 -34 8t-23 20l-65 107l487 375h203l-155 -1263q199 -16 217 -19q39 -9 34 -50l-14 -116h-800z" />
<glyph unicode="2" horiz-adv-x="1185" d="M41 0l10 82q7 58 57 102l493 440q50 46 76.5 71t65.5 67t66 83.5t46 87.5q18 43 26 90.5t0 97t-36 79.5q-49 54 -146 54q-91 0 -153.5 -45.5t-93.5 -120.5q-15 -35 -37.5 -53t-60.5 -18q-15 0 -33 3l-127 23q40 148 132 249t230 143q87 27 183 27q100 0 179 -29 t131.5 -83t76.5 -131q15 -51 16.5 -104.5t-9 -99.5t-29.5 -92.5t-40.5 -82t-46.5 -68.5q-10 -13 -21 -26.5t-20 -24t-23.5 -25.5t-21.5 -23t-24.5 -25t-23 -22t-25.5 -24t-23.5 -22t-26 -23.5t-23.5 -22.5l-367 -333q103 29 185 29h319q17 79 20 90q13 37 51 37h107 q-13 -104 -44 -357h-1015z" />
<glyph unicode="3" horiz-adv-x="1146" d="M40 367l115 45q29 12 58 12q21 0 36 -6.5t25 -19.5t16 -25t14 -31.5t13 -29.5q61 -120 204 -120q60 0 111 20t85.5 52.5t56.5 74.5q18 37 26 83.5t-1 93t-36 72.5q-38 36 -103.5 50t-164.5 14l22 176q74 1 130 11.5t101 35t71.5 67.5t33.5 104q13 101 -35.5 154.5 t-147.5 53.5q-88 0 -152 -46.5t-95 -119.5q-16 -35 -37.5 -53t-59.5 -18q-16 0 -34 3l-127 23q40 148 131.5 249t230.5 144q86 26 182 26q145 0 244 -59t134 -167q22 -67 14.5 -137t-31.5 -127.5t-57 -95.5q-64 -73 -182 -111q248 -81 217 -336q-20 -158 -115.5 -264.5 t-241.5 -151.5q-93 -29 -193 -29q-86 0 -154.5 17t-118 48t-86.5 79t-60.5 106t-38.5 133z" />
<glyph unicode="4" horiz-adv-x="1188" d="M42 532l797 915h234l-110 -902h182l-18 -143q-3 -21 -18.5 -35t-38.5 -14h-131l-43 -353h-216l43 353h-610q-25 0 -42 15.5t-19 38.5zM307 545h440l58 473q9 74 27 146z" />
<glyph unicode="5" horiz-adv-x="1155" d="M41 154l89 105q28 34 68 34q25 0 49 -16q30 -21 49 -32t50 -26t65 -21.5t73 -6.5q137 0 216 81t96 215q15 123 -48.5 187t-190.5 64q-105 0 -216 -38l-149 44l207 702h714l-13 -105q-15 -119 -160 -119h-398l-89 -302q101 20 182 20q107 0 190 -31.5t136.5 -91.5 t75.5 -145q18 -68 12.5 -140t-23.5 -132t-47 -112q-105 -191 -316 -267q-103 -37 -219 -37q-244 0 -403 170z" />
<glyph unicode="6" horiz-adv-x="1105" d="M56 284q-50 204 59 417q54 108 155 224l402 463q22 25 59.5 41.5t79.5 16.5h220l-493 -525q-48 -51 -59 -63q96 45 202 45q139 0 231.5 -65t129.5 -179q21 -63 17.5 -133.5t-20.5 -132t-45 -113.5q-98 -182 -297 -258q-99 -38 -213 -38q-172 0 -282.5 79t-145.5 221z M283 344q16 -76 72.5 -117t148.5 -41q94 0 162 44.5t106 115.5q24 45 32.5 101.5t-4.5 116.5q-19 73 -77.5 113.5t-149.5 40.5q-59 0 -109 -20q-97 -38 -152 -134.5t-29 -219.5z" />
<glyph unicode="7" horiz-adv-x="1149" d="M40 0l696 1105q43 68 92 117h-582q-21 -96 -29 -125q-13 -37 -51 -37h-107l27 215v3v1l21 167h1000l-14 -107q-8 -65 -46 -127l-686 -1128q-51 -84 -142 -84h-179z" />
<glyph unicode="8" horiz-adv-x="1128" d="M59 232q-25 71 -19 145t30.5 137t62.5 109q74 88 212 131q-200 88 -171 320q16 132 102 224t212 134q87 30 187 30q148 0 250.5 -62t141.5 -173q22 -63 17.5 -128.5t-25.5 -121.5t-54 -98q-63 -81 -174 -125q249 -84 217 -348q-19 -149 -111.5 -248.5t-234.5 -143.5 q-96 -30 -208 -30q-166 0 -280 64t-155 184zM298 410q-9 -74 15.5 -127t77 -79.5t126.5 -26.5q119 0 191.5 62.5t85.5 170.5q15 118 -43 179.5t-175 61.5q-121 0 -192.5 -63.5t-85.5 -177.5zM414 986q10 -68 57.5 -104.5t127.5 -36.5q109 0 168.5 60.5t72.5 164.5 q12 96 -39.5 151t-148.5 55q-121 0 -188 -80t-50 -210z" />
<glyph unicode="9" horiz-adv-x="1070" d="M53 0l518 561q37 39 71 81q-109 -65 -244 -65q-129 0 -216 63.5t-121 170.5q-14 45 -16 95.5t6 98t22.5 91t34.5 79.5q96 176 287 250q96 37 206 37t195 -34.5t139.5 -97.5t77.5 -152q9 -38 12.5 -79t0.5 -80t-10 -77t-18 -74t-23.5 -67t-26.5 -58q-50 -99 -145 -214 l-389 -472q-20 -25 -56 -41t-78 -16h-227zM299 1012q-15 -120 39.5 -184t169.5 -64q116 0 194 71q31 29 54 72t33 97.5t-6 110.5q-18 69 -72.5 107t-138.5 38q-115 0 -187.5 -69t-85.5 -179z" />
<glyph unicode=":" horiz-adv-x="487" d="M67 195q21 40 60.5 66t91.5 26q63 0 101.5 -42.5t30.5 -108.5q-8 -64 -54.5 -107t-114.5 -43q-65 0 -103 43q-27 30 -30 78.5t18 87.5zM155 908q21 40 60.5 66t90.5 26q64 0 102.5 -42.5t30.5 -108.5q-8 -64 -55 -107t-115 -43q-64 0 -103 43q-27 30 -30 78.5t19 87.5z " />
<glyph unicode=";" horiz-adv-x="503" d="M58 -245q-10 9 -12.5 19.5t-0.5 19t10 19.5t13.5 17t16.5 16t13 12q76 72 99 145q-61 0 -96 43q-23 29 -26 75.5t17 82.5q13 24 32.5 42.5t48.5 29.5t63 11q70 0 104.5 -46t24.5 -123q-19 -156 -164 -310q-47 -50 -105 -92zM172 908q14 26 34.5 46t51.5 33t66 13 q41 0 73 -19t48.5 -54t10.5 -78q-8 -64 -54.5 -107t-114.5 -43q-65 0 -103 43q-28 30 -30.5 78.5t18.5 87.5z" />
<glyph unicode="&#x3c;" horiz-adv-x="951" d="M48 624l12 100l843 413l-22 -176q-5 -43 -51 -65l-385 -186q-43 -21 -108 -36q62 -15 99 -36l340 -187q40 -22 35 -65l-22 -176z" />
<glyph unicode="=" horiz-adv-x="1056" d="M52 404l23 184h886l-23 -184h-886zM95 757l23 183h886l-23 -183h-886z" />
<glyph unicode="&#x3e;" horiz-adv-x="949" d="M46 210l22 176q5 43 51 65l386 187q46 22 107 36q-61 15 -99 36l-340 186q-40 22 -35 65l22 176l741 -413l-12 -100z" />
<glyph unicode="?" horiz-adv-x="835" d="M42 1315q86 68 182 107.5t219 39.5q130 0 217 -51.5t118 -148.5q16 -56 15 -108.5t-18 -103t-40.5 -89.5t-50.5 -68q-38 -40 -119.5 -97t-109.5 -83q-29 -25 -38 -57l-41 -146h-169l3 163q-4 48 33 93q25 32 66.5 65t77 56t75 57t63.5 69q13 20 22.5 45t12.5 56t-7 57 q-15 44 -56 68t-100 24q-66 0 -115.5 -18t-103.5 -51q-20 -12 -35 -12q-36 0 -49 30zM105 195q21 40 60.5 66t91.5 26q63 0 101.5 -42.5t30.5 -108.5q-8 -64 -54.5 -107t-114.5 -43q-65 0 -103 43q-27 30 -30 78.5t18 87.5z" />
<glyph unicode="@" horiz-adv-x="1630" d="M71 239q-36 135 -25.5 284t57.5 268q61 154 169.5 276.5t250.5 202.5q200 112 419 112q149 0 272.5 -49.5t208.5 -133.5q90 -89 134 -216.5t25 -287.5q-20 -163 -102.5 -287t-208.5 -184q-81 -40 -171 -40q-74 0 -121 35t-58 100q-62 -65 -127.5 -99.5t-156.5 -34.5 q-119 0 -175 77.5t-39 210.5q23 188 171 331q165 159 416 159q73 0 126 -11t106 -35l-141 -371q-24 -64 -30 -107q-4 -35 3.5 -57.5t27.5 -34t54 -11.5q86 0 157 101q38 54 64.5 135t33 173.5t-17.5 178.5q-41 146 -162 222.5t-308 76.5q-138 0 -255 -51t-207 -134 q-59 -55 -105.5 -122.5t-80.5 -153.5t-45 -179q-29 -239 58 -398t266 -224q116 -42 256 -42q272 0 463 104q22 11 36 11q29 0 37 -32l23 -89q-255 -154 -579 -154q-281 0 -467 127t-252 353zM614 479q-7 -63 15.5 -99t76.5 -36q53 0 90.5 24.5t67.5 66.5q24 34 43 85 l108 282q-31 6 -65 6q-124 0 -222 -100t-114 -229z" />
<glyph unicode="A" d="M38 0l13 102q4 35 46 51q16 7 115 46l642 1247h275l337 -1247q90 -39 104 -46q38 -16 33 -51l-12 -102h-489l13 102q1 10 5.5 18.5t9 13.5t15.5 11t16 8.5t21 8.5t21 8q-10 42 -29 120.5t-24 97.5h-576q-12 -25 -49 -101t-57 -117q4 -2 18.5 -8t19 -8t14 -8.5t12.5 -11.5 t5.5 -13.5t1.5 -18.5l-12 -102h-489zM667 578h437l-109 449q-21 83 -34 170q-46 -115 -75 -172z" />
<glyph unicode="B" horiz-adv-x="1390" d="M38 0l14 118q2 14 8 25.5t16 19t20.5 12.5t27 8.5t28.5 5.5t31.5 4.5t30.5 4.5l129 1050q-17 3 -35.5 6.5t-34.5 6t-30 5.5q-48 11 -42 62l15 118h650q273 0 395 -104q112 -97 90 -281q-28 -226 -296 -314q290 -67 259 -322q-19 -150 -112.5 -249t-238.5 -144 q-101 -32 -228 -32h-697zM484 210h273q129 0 203.5 55.5t87.5 165.5q25 203 -240 203h-272zM559 820h215q90 0 153 20.5t103 67.5t49 121q7 60 -5.5 101.5t-45 64.5t-77.5 33t-110 10h-230z" />
<glyph unicode="C" horiz-adv-x="1358" d="M47.5 723q20.5 165 92 300t179.5 232q107 95 248.5 151t312.5 56q181 0 441 -104l-45 -369h-115q-39 0 -42 37q-2 28 2 159q-158 48 -271 48q-86 0 -161 -23t-132 -64.5t-100 -94t-74 -116.5q-27 -55 -44.5 -126t-21.5 -151t13 -152q33 -135 126 -214.5t243 -79.5 q110 0 187.5 27t144.5 82q25 20 48 20q22 0 36 -17l91 -115q-39 -42 -81.5 -76t-94 -62t-108.5 -47t-125 -29.5t-143 -10.5q-109 0 -201.5 26.5t-161.5 72t-121 109.5q-76 95 -109.5 230.5t-13 300.5z" />
<glyph unicode="D" horiz-adv-x="1588" d="M38 0l14 118q2 14 8 25.5t16 19t20.5 12.5t27 8.5t28.5 5.5t31.5 4.5t30.5 4.5l129 1050q-22 4 -53 9.5t-47 8.5q-48 11 -42 62l15 118h681q164 0 293 -54q91 -37 161.5 -98t119 -144t67 -192t3.5 -235q-20 -161 -90 -294t-176 -227q-105 -93 -245.5 -147.5t-309.5 -54.5 h-682zM487 214h259q170 0 284.5 80t176.5 216q19 40 33.5 91t23 107t8 116t-11.5 113q-30 140 -128.5 217.5t-260.5 77.5h-259z" />
<glyph unicode="E" horiz-adv-x="1316" d="M38 0l14 118q3 17 11.5 29.5t18.5 19.5t28.5 13t31 8t36.5 5t36 5l129 1050q-22 4 -53 9.5t-47 8.5q-48 11 -42 62l15 118h151h912q-4 -30 -8.5 -68.5t-9.5 -77t-8 -68.5l-21 -166h-115q-38 0 -42 37q-1 24 1 129h-464l-49 -401h489l-26 -207h-489l-50 -409h465 q23 105 30 129q13 37 51 37h115q-20 -165 -29 -241l-18 -140h-1063z" />
<glyph unicode="F" horiz-adv-x="1367" d="M38 0l14 118q3 17 11.5 29.5t18.5 19.5t28.5 13t31 8t36.5 5t36 5l129 1050q-14 2 -47.5 8.5t-52.5 9.5q-48 11 -42 62l15 118h1063h50q-3 -31 -11 -93t-12 -94l-23 -193h-115q-39 0 -42 37q-2 24 1 129h-515l-53 -428h505l-27 -215h-504l-48 -391q21 -4 52 -9.5t47 -8.5 q49 -11 42 -62l-14 -118h-574z" />
<glyph unicode="G" horiz-adv-x="1426" d="M47 723q20 165 90.5 301t178.5 232q229 205 572 206h2q232 0 499 -103l-46 -370h-115q-38 0 -42 37q-1 27 2 157q-143 50 -336 50q-70 0 -133.5 -15t-114 -42t-93 -65t-74.5 -82t-56 -96q-27 -56 -44 -127.5t-21 -152t13 -152.5q34 -142 136 -222.5t265 -80.5 q88 0 156.5 15.5t138.5 46.5l32 263h-181q-24 0 -38 13.5t-12 36.5l19 152h481l-72 -585q-76 -51 -159 -84.5t-187 -52.5t-225 -19q-160 0 -286 55.5t-209 152.5q-84 96 -122.5 231.5t-18.5 299.5z" />
<glyph unicode="H" horiz-adv-x="1776" d="M38 0l14 118q3 17 11.5 29.5t18.5 19.5t28.5 12.5t31 8t36.5 5.5t36 5l129 1050q-14 2 -47.5 8.5t-52.5 9.5q-48 11 -42 62l15 118h573l-14 -118q-2 -12 -7 -22.5t-11.5 -17.5t-17.5 -13t-21 -9t-24.5 -6t-25.5 -4.5t-27.5 -3.5t-26.5 -4l-52 -424h678l52 424 q-18 3 -35.5 6t-34 6t-29.5 6q-49 11 -43 62l15 118h574l-15 -118q-2 -17 -10.5 -29.5t-18.5 -19.5t-28.5 -12.5t-31.5 -8t-37 -5.5t-35 -5l-129 -1050q21 -4 52.5 -9.5t46.5 -8.5q49 -11 42 -62l-14 -118h-574l15 118q1 14 7 25.5t16 19t20.5 12.5t27 8.5t28.5 5.5 t31.5 4.5t30.5 4.5l53 434h-678l-53 -434q21 -4 52 -9.5t47 -8.5q49 -11 42 -62l-14 -118h-574z" />
<glyph unicode="I" horiz-adv-x="826" d="M38 0l14 118q3 17 11.5 29.5t18.5 19.5t28.5 13t31 8t36.5 5t36 5l129 1050q-14 2 -47.5 8.5t-52.5 9.5q-48 11 -42 62l15 118h573l-15 -118q-2 -17 -10.5 -29.5t-18.5 -19.5t-28.5 -12.5t-31.5 -8t-37 -5.5t-35 -5l-129 -1050q17 -3 35 -6t34 -6t30 -6q49 -11 42 -62 l-14 -118h-573z" />
<glyph unicode="J" horiz-adv-x="1093" d="M38 11l34 160q10 49 65 49q14 0 32.5 -3.5t39.5 -7t40 -3.5q68 0 118 22.5t80.5 65t47.5 94t25 120.5l91 740q-22 4 -61 9.5t-57 8.5q-49 11 -42 62l14 118h439h152l-15 -118q-2 -17 -10.5 -29.5t-18.5 -19.5t-28.5 -12.5t-31.5 -8t-37 -5.5t-35 -5l-90 -734 q-23 -184 -105 -310.5t-224 -182.5q-93 -37 -211 -37q-106 0 -212 27z" />
<glyph unicode="K" horiz-adv-x="1597" d="M38 0l14 118q3 17 11.5 29.5t18.5 19.5t28.5 13t31 8t36.5 5t36 5l129 1051q-22 4 -53 9.5t-46 8.5q-49 11 -43 62l15 118h571l-14 -118q-2 -17 -10.5 -29.5t-18.5 -19.5t-28.5 -12.5t-31.5 -8t-37 -5.5t-35 -5l-50 -409h63q71 0 111 44l344 377q-38 8 -55 21t-13 47 l15 117h331h50h152l-15 -117q-1 -16 -7.5 -27.5t-17.5 -19t-22.5 -12.5t-28 -8t-30.5 -4.5t-33 -4t-32 -4.5l-377 -404q-54 -57 -98 -78q58 -22 100 -90l296 -480q35 -6 59 -10q4 0 12 -1q19 -3 28.5 -5t23 -6.5t19 -11t9 -18t1.5 -27.5l-14 -118h-561l15 118q1 11 5 20 t8 15.5t12.5 11.5t14.5 8t19 6l19.5 4.5t22.5 4.5l-256 399q-18 27 -42 38t-68 11h-85l-54 -438q22 -4 53 -9.5t46 -8.5q49 -11 42 -62l-14 -118h-572z" />
<glyph unicode="L" horiz-adv-x="1168" d="M38 0l14 118q3 17 11.5 29.5t18.5 19.5t28.5 13t31 8t36.5 5t36 5l129 1050q-16 3 -35.5 6.5t-34.5 6t-30 5.5q-48 11 -42 62l15 118h571l-14 -118q-2 -17 -10.5 -29.5t-18.5 -19.5t-28.5 -12.5t-31.5 -8t-37 -5.5t-35 -5l-126 -1026h465q16 76 19 87q13 37 51 37h107 q-5 -38 -15 -118.5t-15 -122.5l-13 -105h-1047z" />
<glyph unicode="M" horiz-adv-x="2124" d="M38 0l14 118q3 17 11.5 29.5t18.5 19.5t28.5 12.5t31 8t36.5 5.5t36 5l129 1050q-13 2 -28 5t-25 4.5t-22.5 4t-24.5 4.5q-48 11 -42 62l15 118h354q38 0 56.5 -8.5t29.5 -34.5l333 -803q18 -43 43 -136q45 86 78 138l527 801q16 25 35.5 34t59.5 9h355l-15 -118 q-2 -14 -7.5 -25.5t-16 -19t-21 -12.5t-26.5 -8.5t-28 -5.5t-31.5 -4.5t-30.5 -4.5l-129 -1050q18 -3 35 -6t34.5 -6.5t29.5 -5.5q49 -11 42 -62l-14 -118h-569l14 118q7 51 58 62q6 1 133 18l90 736q7 58 21 120l-538 -820q-39 -59 -102 -59h-37q-63 0 -88 59l-342 823 q0 -58 -8 -123l-90 -736q122 -17 128 -18q49 -11 42 -62l-14 -118h-569z" />
<glyph unicode="N" horiz-adv-x="1776" d="M38 0l14 118q3 17 11.5 29.5t18.5 19.5t28.5 13t31 8t36.5 5t36 5l129 1050q-21 3 -52 9t-48 9q-48 11 -42 62l15 118h292q35 0 52 -9.5t33 -33.5l640 -967q1 62 9 131l84 681q-123 17 -128 18q-49 11 -43 62l15 118h417h152l-15 -118q-2 -17 -10.5 -29.5t-18.5 -19.5 t-28.5 -12.5t-31.5 -8t-37 -5.5t-35 -5l-154 -1248h-139q-34 0 -53 10.5t-35 35.5l-638 963q-1 -64 -8 -121l-85 -690q123 -17 128 -18q49 -11 42 -62l-14 -118h-569z" />
<glyph unicode="O" horiz-adv-x="1561" d="M64 429q-29 101 -24 210t30 203.5t66 175.5q69 134 178 233.5t251 155.5q143 55 307 55q110 0 207 -27t169.5 -73t127.5 -110q84 -99 120 -234q20 -75 23 -157t-9 -158.5t-34 -145.5t-52 -128q-70 -135 -178 -234.5t-250 -155t-306 -55.5q-248 0 -409.5 119t-216.5 326z M328 510q30 -141 129 -218.5t261 -77.5q170 0 284.5 80t176.5 216q25 55 41.5 125t21.5 149.5t-10 152.5q-30 140 -128.5 218t-260.5 78q-170 0 -285 -80.5t-178 -215.5q-25 -56 -42 -126t-21.5 -149.5t11.5 -151.5z" />
<glyph unicode="P" horiz-adv-x="1362" d="M38 0l14 118q3 17 11.5 29.5t18.5 19.5t28.5 13t31 8t36.5 5t36 5l129 1050q-13 2 -46.5 8.5t-53.5 9.5q-48 11 -42 62l15 118h598q98 0 178.5 -15.5t147.5 -50.5t110.5 -88t62 -131t6.5 -176q-14 -114 -64 -203t-126.5 -147t-178.5 -91q-110 -35 -251 -35h-178l-38 -311 q17 -3 35 -6t34 -6t30 -6q49 -11 42 -62l-14 -118h-572zM547 719h178q144 0 226.5 68.5t98.5 197.5q16 128 -54.5 190.5t-206.5 62.5h-179z" />
<glyph unicode="Q" horiz-adv-x="1560" d="M64 429q-29 101 -24 210t30 203.5t66 175.5q69 134 178 233.5t251 155.5q143 55 307 55q110 0 207 -27t169.5 -73t127.5 -110q81 -96 119 -231t18 -298q-25 -202 -121.5 -355.5t-245.5 -250.5l318 -400h-222q-53 0 -88.5 14.5t-60.5 46.5l-183 234q-106 -28 -220 -28 q-248 0 -409.5 119t-216.5 326zM328 510q30 -141 129 -218.5t261 -77.5q170 0 284.5 80t176.5 216q25 55 41.5 125t21.5 149.5t-10 152.5q-30 140 -128.5 218t-260.5 78q-170 0 -285 -80.5t-178 -215.5q-25 -56 -42 -126t-21.5 -149.5t11.5 -151.5z" />
<glyph unicode="R" horiz-adv-x="1388" d="M38 0l14 118q2 14 8 25.5t16 19t20.5 12.5t27 8.5t28.5 5.5t31.5 4.5t30.5 4.5l129 1050q-21 3 -52 9t-48 9q-48 11 -42 62l15 118h578q284 0 412 -116q118 -106 94 -300q-20 -158 -119 -262.5t-251 -150.5q48 -29 78 -83l186 -336q36 -6 61 -10q3 -1 11 -2 q24 -4 35 -6.5t25 -9.5t18.5 -20t2.5 -32l-15 -118h-270q-65 0 -94 54l-247 463q-10 18 -20.5 28t-27.5 15t-44 5h-101l-45 -367q22 -4 53.5 -9.5t45.5 -8.5q49 -11 42 -62l-14 -118h-572zM552 758h153q142 0 228 65t101 187q15 119 -56 173.5t-210 54.5h-158z" />
<glyph unicode="S" horiz-adv-x="1153" d="M38 61q3 25 20 162t26 210h115q38 0 42 -37q1 -28 -2 -166q83 -26 269 -26q115 0 185 54.5t82 156.5q5 36 -4.5 65.5t-26.5 48.5t-45 35.5t-52.5 26t-58.5 19.5q-168 49 -238 89q-151 84 -166 245q-4 47 3 103q17 136 104 234t215 146q92 35 205 35q213 0 405 -82 l-46 -370h-115q-38 0 -42 37q-1 28 2 162q-71 34 -228 34q-105 0 -170 -47t-76 -135q-7 -52 17 -85.5t69 -57.5q44 -24 102 -43q7 -3 23 -8q82 -27 124 -42.5t106 -51t93 -74t48.5 -102.5t9.5 -144q-19 -158 -110.5 -269t-231.5 -164q-98 -36 -218 -36q-12 0 -29 1 q-193 0 -406 76z" />
<glyph unicode="T" horiz-adv-x="1318" d="M36 1104l42 342h1171h31l-42 -342h-115q-12 0 -20 2.5t-12.5 9t-7.5 13t-3.5 19t-0.5 21.5t1 27t1 29h-294l-127 -1027q22 -4 53 -9.5t47 -8.5q48 -11 42 -62l-15 -118h-571l14 118q2 13 7 23t12 17t17.5 13t20.5 9t24.5 6t25.5 4.5t27.5 3.5t26.5 4l127 1027h-295 q-15 -66 -21 -84q-12 -37 -51 -37h-82h-33z" />
<glyph unicode="U" horiz-adv-x="1594" d="M41 1328l14 118h581l-15 -118q-5 -44 -49 -58q-14 -5 -58 -12q-22 -3 -63 -10l-82 -667q-13 -110 14.5 -191.5t97 -127t174.5 -45.5q122 0 206 58t128 155q31 67 41 150l82 668q-21 4 -56 9.5t-52 8.5q-48 11 -42 62l14 118h430h151l-14 -118q-2 -12 -7 -22.5t-12 -17.5 t-17.5 -13t-20.5 -9t-24.5 -6t-25.5 -4.5t-27.5 -3.5t-27.5 -4l-82 -668q-24 -202 -134.5 -344t-282.5 -207q-117 -45 -256 -45q-205 0 -337.5 94.5t-175.5 263.5q-28 109 -13 238l82 668q-21 4 -52.5 9.5t-46.5 8.5q-49 11 -42 62z" />
<glyph unicode="V" horiz-adv-x="1643" d="M42 1328l14 118h540l-14 -118q-2 -12 -6 -22t-12 -17t-14.5 -12t-20.5 -9.5t-21 -6t-24.5 -5.5t-23.5 -5l196 -748q23 -81 37 -203q38 115 82 203l379 747q-6 2 -25 6t-26.5 6t-21.5 8t-19.5 13t-9.5 18.5t-2 26.5l15 118h471h69l-15 -118q-2 -16 -10 -29t-18 -20 t-28 -12.5t-30.5 -7.5t-36.5 -5.5t-35 -5.5l-657 -1248h-243l-351 1248q-12 2 -45 8.5t-52 9.5q-49 11 -42 62z" />
<glyph unicode="W" horiz-adv-x="2299" d="M41 1328l14 118h540l-14 -118q-2 -14 -9 -26t-13.5 -18.5t-23 -13t-23.5 -8.5t-29.5 -6.5l-27.5 -5.5l117 -730q9 -54 13 -149q27 86 56 149l391 865q11 25 37.5 43t58.5 18h79q34 0 55.5 -16t27.5 -45l175 -865q15 -64 21 -142q25 83 47 142l297 728q-30 7 -81 18 q-48 11 -42 62l14 118h472h69l-15 -118q-1 -12 -5.5 -21.5t-9.5 -16t-14.5 -12t-17 -8.5t-20.5 -6t-22 -4.5t-24.5 -4t-24.5 -3.5l-542 -1252h-243l-195 988q-10 51 -14 88q-14 -37 -36 -88l-440 -988h-243l-235 1252q-9 1 -37 6.5t-41 7.5q-49 11 -42 62z" />
<glyph unicode="X" horiz-adv-x="1717" d="M39 0l14 118q7 51 58 62q17 3 153 18l421 546l-269 504q-136 15 -152 18q-49 11 -43 62l15 118h622l-15 -118q-6 -51 -58 -62q-50 -10 -68 -14l184 -369q14 28 31 51l238 315q-23 6 -73 17q-49 11 -42 62l14 118h611l-15 -118q-6 -51 -58 -62q-16 -3 -154 -18l-393 -493 l285 -557q133 -15 149 -18q49 -11 43 -62l-15 -118h-613l14 118q6 51 58 62q48 10 60 13l-196 407q-9 -19 -24 -42l-270 -360q29 -7 80 -18q49 -11 43 -62l-15 -118h-620z" />
<glyph unicode="Y" horiz-adv-x="1482" d="M42 1328l14 118h540l-14 -118q-1 -10 -5 -19t-8 -15.5t-13 -12t-13.5 -8.5t-17.5 -7t-18 -5t-21 -4.5t-20 -4.5l149 -349q30 -74 51 -157q39 83 89 157l232 349q-6 1 -18.5 4t-19 4.5t-17 5t-16 6.5t-12 8.5t-9.5 12t-5 15.5t0 20l14 118h507h33l-14 -118 q-2 -17 -10.5 -29.5t-18.5 -19.5t-28.5 -12.5t-31 -8t-37 -5.5t-35.5 -5l-492 -686l-45 -364q22 -4 53 -9.5t46 -8.5q49 -11 42 -62l-14 -118h-572l15 118q2 17 10.5 29.5t18.5 19.5t28.5 12.5t31.5 8t37 5.5t35 5l45 364l-325 686q-12 2 -46 8.5t-53 9.5q-49 11 -42 62z " />
<glyph unicode="Z" horiz-adv-x="1370" d="M38 0l13 106q5 37 34 73l873 1053h-551q-33 -135 -35 -143q-13 -37 -51 -37h-107l49 394h1070l-13 -99q-5 -46 -36 -84l-871 -1048h580q32 130 34 138q13 37 51 37h107q-19 -156 -48 -390h-1099z" />
<glyph unicode="[" horiz-adv-x="711" d="M36 -308l228 1855h410l-12 -97q-3 -26 -24 -44.5t-50 -18.5h-138l-188 -1535h138q27 0 44 -18t14 -45l-12 -97h-410z" />
<glyph unicode="\" horiz-adv-x="702" d="M42 1486h106q31 0 54.5 -11t38.5 -30.5t22 -45.5l400 -1494h-104q-45 0 -77.5 25.5t-42.5 66.5z" />
<glyph unicode="]" horiz-adv-x="712" d="M36 -308l12 97q2 17 12 31.5t26.5 23t35.5 8.5h138l188 1535h-138q-27 0 -44 18t-14 45l12 97h410l-228 -1855h-410z" />
<glyph unicode="^" horiz-adv-x="997" d="M47 777l455 669h160l291 -669h-181q-38 0 -57 41l-123 289q-29 70 -36 104q-22 -52 -57 -104l-192 -289q-27 -41 -70 -41h-190z" />
<glyph unicode="_" horiz-adv-x="964" d="M76 -294l20 160h788l-20 -160h-788z" />
<glyph unicode="`" horiz-adv-x="544" d="M57 1462h231q38 0 56.5 -12t31.5 -41l114 -243h-141q-30 0 -46 7.5t-31 27.5z" />
<glyph unicode="a" horiz-adv-x="1038" d="M36 353q0 279 191 483q194 207 478 207q156 0 275 -46l-100 -802h1q8 -1 29.5 -4.5t29.5 -5t23 -7t20.5 -12.5t9.5 -18.5t2 -27.5l-14 -118h-125h-130q-81 0 -81 74l8 140q-68 -106 -153 -167.5t-187 -61.5q-100 0 -163 56.5t-93 148.5q-21 69 -21 161zM283 397 q0 -208 127 -208q80 0 155 105q71 102 117 261l39 310q-27 3 -50 3q-164 0 -277 -141q-50 -62 -80.5 -147t-30.5 -183z" />
<glyph unicode="b" horiz-adv-x="1094" d="M40 41q6 52 153 1247q-21 4 -55.5 9.5t-51.5 8.5q-49 11 -42 62l14 118h406l-72 -586q71 67 151 104.5t185 37.5q77 0 137 -26.5t97.5 -74t60.5 -113t26 -143t-6 -164.5q-21 -174 -104.5 -304t-214.5 -191q-87 -41 -188 -41q-222 0 -496 56zM306 192q97 -19 196 -19 q243 0 286 348q7 56 7 102t-9 89t-28 72.5t-54 47.5t-85 18q-80 0 -136.5 -32t-111.5 -92z" />
<glyph unicode="c" horiz-adv-x="959" d="M52 291q-18 71 -14.5 151.5t20.5 152.5t43 130q26 55 59.5 102t79.5 87t100 68t122 44t144 16q124 0 314 -74l-39 -316h-115q-39 0 -42 38q-2 25 1 144q-75 20 -127 20q-59 0 -106.5 -18t-80.5 -49t-57 -75t-37.5 -92t-20.5 -105q-11 -71 -2.5 -133.5t31.5 -108.5t70 -73 t113 -27q47 0 88.5 13t63 26t58.5 40q20 14 43 14q30 0 43 -23l60 -90q-165 -168 -425 -168q-156 0 -254 83t-133 223z" />
<glyph unicode="d" horiz-adv-x="1145" d="M45 286q-17 107 0.5 227.5t56.5 208.5q88 201 262 283q87 40 188 40q84 0 141.5 -25t101.5 -75l42 343q-20 3 -51 9t-48 9q-49 11 -42 62l14 118h399l-158 -1286q18 -3 45.5 -8t41.5 -8q49 -11 43 -62l-15 -118h-139h-151q-53 0 -58 45l-8 95q-73 -73 -157 -116t-194 -43 q-70 0 -125.5 23t-93.5 64t-61.5 94.5t-33.5 119.5zM300 509q-7 -56 -7.5 -101.5t8.5 -89t28.5 -73t54.5 -47.5t84 -18q29 0 55 4.5t48.5 13t41.5 19t38 25.5t33.5 29t32.5 33l56 460q-32 47 -76.5 70t-110.5 23q-244 0 -286 -348z" />
<glyph unicode="e" horiz-adv-x="944" d="M37 411q0 121 34 226.5t90.5 181.5t132.5 130q129 91 289 91q110 0 189.5 -44t113.5 -120q20 -45 20 -88q0 -55 -15.5 -98.5t-42.5 -73.5t-68 -56q-86 -55 -206.5 -83t-295.5 -46v-13q0 -242 205 -242q107 0 183 56q49 35 73 47q17 9 37 9q28 0 44 -22l63 -76 q-48 -48 -88 -80.5t-95 -63.5t-121 -46t-145 -15q-140 0 -233.5 68t-135.5 183q-28 78 -28 175zM298 589q120 16 190.5 32.5t125.5 48.5q36 20 52.5 44.5t16.5 64.5q0 42 -32.5 65.5t-81.5 23.5q-148 0 -230 -167q-26 -51 -41 -112z" />
<glyph unicode="f" horiz-adv-x="906" d="M-90 -231q0 76 79 76q94 0 141.5 53.5t59.5 150.5q9 74 35 286.5t40 328.5q4 25 7.5 56t7.5 63.5t7 56.5l-87 14q-63 11 -57 62l13 101h153l9 76q16 132 85 222.5t181 129.5q74 26 163 26q71 0 130 -19l-20 -124q-5 -26 -27.5 -34.5t-62.5 -8.5q-101 0 -150 -50t-61 -150 l-8 -68h267l-22 -176h-259h-2l-1 -1l-22 -179h1l-75 -619q-17 -142 -81 -231t-173 -130t-271 -41v129z" />
<glyph unicode="g" horiz-adv-x="1159" d="M35 -96q0 156 154 237q127 66 321 66q78 0 154 -13q-9 36 -9 66q0 58 32 128q-79 -54 -202 -54q-67 0 -121 23t-89 61t-57 91q-23 58 -23 136q0 132 68.5 225.5t178.5 139.5q81 34 188 34q115 0 203 -53h287l-11 -80q-9 -53 -49 -64l-105 -28q10 -40 10 -88 q0 -52 -14.5 -98.5t-33.5 -77t-41.5 -72t-33.5 -76.5q-9 -32 -9 -70q0 -15 2.5 -29.5t6 -25.5t10 -25.5t10.5 -22t13 -23t12 -20.5q17 -31 26.5 -50.5t18.5 -53.5t9 -68q0 -158 -132 -264q-139 -112 -364 -112q-134 0 -234.5 39.5t-147.5 117.5q-28 47 -28 104zM269 -65 q0 -122 196 -122q82 0 142.5 29.5t89.5 82.5q19 34 19 73q0 23 -5 53q-102 17 -185 17q-193 0 -243 -82q-14 -24 -14 -51zM420 644q0 -75 33.5 -118t101.5 -43q36 0 66 13t51.5 36t36.5 53.5t22.5 65t7.5 71.5q0 73 -34.5 114t-102.5 41q-59 0 -101.5 -33t-61.5 -84.5 t-19 -115.5z" />
<glyph unicode="h" horiz-adv-x="1139" d="M37 0q22 183 37 297q23 193 67 550.5t54 440.5q-23 4 -55 10t-44 8q-49 11 -42 62l14 118h398l-70 -571q46 39 87.5 64.5t102 44t127.5 18.5q164 0 242 -104.5t56 -284.5l-56 -455q3 0 100 -18q48 -11 42 -62l-15 -118h-398l80 653q8 62 -5.5 106t-50 67.5t-94.5 23.5 q-69 0 -126 -29t-113 -79q-74 -601 -91 -742h-247z" />
<glyph unicode="i" horiz-adv-x="565" d="M39 908l14 118h399l-102 -828q20 -3 52 -9t47 -9q49 -11 43 -62l-15 -118h-398q4 35 101 828q-18 3 -99 18q-49 11 -42 62zM229 1387q23 42 63 69t93 27q65 0 107 -46q28 -32 33 -81.5t-20 -90.5q-15 -26 -36.5 -46.5t-53.5 -34.5t-69 -14q-32 0 -59.5 12.5t-45.5 34.5 t-27 49.5t-5 59t20 61.5z" />
<glyph unicode="j" horiz-adv-x="767" d="M34 -341l24 133q6 21 19.5 26t50.5 5q76 0 108 33.5t42 108.5l106 863q-21 4 -52 9.5t-47 8.5q-49 11 -43 62l15 118h151h247l-130 -1061q-13 -101 -56 -172.5t-122 -112t-189 -40.5q-67 0 -124 19zM433 1387q23 42 62.5 69t92.5 27q66 0 107.5 -44.5t33.5 -113.5 q-7 -50 -39 -87t-77 -56q-30 -12 -63 -12q-41 0 -73 19.5t-49 50.5t-16.5 70.5t21.5 76.5z" />
<glyph unicode="k" horiz-adv-x="1125" d="M37 0q36 294 158 1288q-24 4 -57 10t-42 8q-49 11 -43 62l15 118h398l-104 -851h46q27 0 41 7t32 26l163 175q-22 4 -35 10.5t-19.5 20t-3.5 34.5l14 118h245l-1 -2q12 2 22 2h219h1l-14 -118q-2 -17 -11.5 -30t-20 -20t-30 -12t-33.5 -7t-39 -4.5t-37 -4.5l-175 -185 q-43 -47 -82 -69q26 -21 59 -78l169 -300q8 -1 55 -7.5t68 -10.5q49 -11 43 -62l-15 -118h-262q-21 0 -36 5t-25 14.5t-19 24.5l-213 389q-12 23 -25.5 30t-44.5 7h-56l-9 -68l-50 -402h-246z" />
<glyph unicode="l" horiz-adv-x="502" d="M37 0q22 183 54 442q33 266 104 846q-23 4 -55 10t-44 8q-49 11 -42 62l14 118h398l-158 -1288q21 -3 52.5 -9t47.5 -9q48 -11 42 -62l-14 -118h-399z" />
<glyph unicode="m" horiz-adv-x="1730" d="M40 908l14 118h152h151q48 0 57 -45l7 -76q65 64 132.5 100.5t160.5 36.5q49 0 88.5 -14t67 -40.5t45.5 -60.5t28 -77q52 88 141 140t211 52q170 0 249.5 -101.5t56.5 -287.5l-56 -455q18 -3 35 -6t34.5 -6.5t29.5 -5.5q49 -11 43 -62l-15 -118h-398l80 653 q8 63 -4.5 106.5t-48 67t-92.5 23.5q-59 0 -103.5 -26.5t-69 -70.5t-31.5 -100q-35 -284 -42 -343q-6 -50 -38 -310h-248l80 653q12 98 -21 147.5t-119 49.5q-100 0 -198 -99q-51 -417 -92 -751h-247q51 414 101 828q-19 3 -50.5 9t-48.5 9q-49 11 -42 62z" />
<glyph unicode="n" horiz-adv-x="1183" d="M40 908l14 118h152h151q48 0 57 -45l7 -81q73 66 151 104t184 38q164 0 242 -104.5t56 -284.5l-56 -455q21 -3 52 -9t47 -9q49 -11 43 -62l-15 -118h-398l80 653q11 94 -26 145.5t-124 51.5q-70 0 -127 -29t-112 -79q-5 -43 -14.5 -118t-17 -138t-14.5 -118 q-23 -184 -45 -368h-247q23 193 101 828q-17 3 -49 9t-50 9q-49 11 -42 62z" />
<glyph unicode="o" horiz-adv-x="1106" d="M52 295q-19 74 -14.5 156t22.5 154t46 129q70 141 198.5 224.5t311.5 83.5q232 0 352 -140.5t90 -386.5q-15 -121 -62 -219t-122 -167.5t-174 -106.5q-98 -37 -213 -37q-176 0 -287 81.5t-148 228.5zM297 513q-41 -338 213 -338q57 0 103 17t77.5 47t55 73.5t36.5 92.5 t20 108q42 340 -209 340q-254 0 -296 -340z" />
<glyph unicode="p" horiz-adv-x="1286" d="M35 -335l14 118q2 14 8 25.5t16 19t20.5 12.5t27 8.5t28.5 5.5t31.5 4.5t30.5 4.5l118 965q-21 4 -52 9.5t-47 8.5q-49 11 -42 62l14 118h152h151q53 0 57 -45l8 -95q35 35 69.5 61t77.5 49.5t95 36t109 12.5q70 0 126 -23t93.5 -64t61 -94.5t34.5 -119.5 q17 -107 -1 -227.5t-57 -208.5q-88 -201 -262 -282q-86 -41 -187 -41q-84 0 -141.5 25t-102.5 75l-27 -222q21 -4 52.5 -9.5t46.5 -8.5q49 -11 42 -62l-14 -118h-550zM507 266q32 -47 76.5 -70t110.5 -23q244 0 287 348q6 56 6.5 102t-8.5 89t-28.5 72.5t-54.5 47.5t-84 18 q-81 0 -137 -32t-111 -92z" />
<glyph unicode="q" horiz-adv-x="1096" d="M45 508q21 174 104 304t215 191q87 41 188 41q222 0 496 -56q-12 -96 -139 -1126q22 -4 56 -9.5t51 -8.5q49 -11 43 -62l-15 -118h-557l14 118q2 17 10.5 29.5t18.5 19.5t28.5 12.5t31.5 8t37 5.5t35 5l33 267q-45 -43 -90 -72t-109 -49.5t-136 -20.5q-77 0 -137 26.5 t-97.5 74t-60.5 113t-26 143t6 164.5zM336 662q-20 -52 -31.5 -120t-11.5 -138t22.5 -127.5t67.5 -79.5q36 -18 85 -18q81 0 137 32t112 92l65 534q-98 19 -197 19q-175 0 -249 -194z" />
<glyph unicode="r" horiz-adv-x="897" d="M40 908l14 118h152h145q25 0 38.5 -6t19.5 -19t7 -37v-124q66 95 147 150t173 55q76 0 122 -35l-55 -185q-10 -33 -44 -33q-15 0 -40 7t-68 7q-86 0 -143 -45t-103 -122q-8 -65 -19.5 -158.5t-20 -162.5t-19 -156.5t-19.5 -161.5h-247q29 238 38 316q13 101 36.5 291.5 t26.5 220.5q-36 6 -57.5 10t-29.5 5.5t-12 2.5q-49 11 -42 62z" />
<glyph unicode="s" horiz-adv-x="879" d="M39 39q6 51 18 148t18 143h115q38 0 42 -38q1 -22 -1 -118q53 -17 160 -17q75 0 124.5 31.5t57.5 92.5q3 26 -7 46t-24 31t-36 22q-21 11 -48.5 21t-64 21.5t-53.5 17.5q-20 7 -37 14t-35.5 15.5t-33.5 18t-30.5 21t-27 24.5t-23 29t-17.5 33t-11.5 38.5t-4.5 44.5t3 51 q13 107 81.5 179.5t173.5 107.5q75 26 170 26q77 0 134 -10t158 -43l-20 -160t-16 -131h-115q-39 0 -42 38q-1 21 1 113q-39 13 -118 13q-68 0 -116 -29.5t-55 -82.5q-4 -34 14.5 -56t52.5 -39q33 -17 77 -30q5 -2 15 -5q43 -13 65 -20.5t61 -23.5t59.5 -29.5t47 -36.5 t38.5 -48.5t18.5 -60.5t1.5 -76q-15 -120 -87.5 -199.5t-185.5 -115.5q-80 -26 -179 -26q-89 0 -174.5 16t-143.5 39z" />
<glyph unicode="t" horiz-adv-x="763" d="M39 893l12 98l168 27l86 280q14 42 61 42h128l-40 -323h270l-22 -176h-270l-68 -556q-6 -46 14 -74t61 -28q40 0 90 29q10 5 19 5q11 0 17 -5t13 -17l59 -120q-120 -91 -280 -91q-131 0 -195 74.5t-47 209.5l70 573h-104q-22 0 -33.5 14t-8.5 38z" />
<glyph unicode="u" horiz-adv-x="1183" d="M40 908l14 118h152h247l-80 -652q-12 -94 25.5 -145.5t123.5 -51.5q70 0 127 29t113 78l66 544q-36 6 -57.5 10t-29 5.5l-12.5 2.5q-48 11 -42 62l14 118h399l-102 -828q29 -5 48.5 -8.5t27 -5t13.5 -2.5t10 -2q49 -11 43 -62l-15 -118h-302q-48 0 -58 45l-7 82 q-75 -67 -152 -105t-182 -38q-164 0 -242.5 105t-55.5 285l55 454q-36 6 -57.5 10t-29.5 5.5t-12 2.5q-49 11 -42 62z" />
<glyph unicode="v" horiz-adv-x="1266" d="M41 908l14 118h67h205h228l-15 -118q-1 -9 -3 -16t-4.5 -13t-7.5 -11t-8.5 -8t-11.5 -6t-12 -5t-14.5 -4t-15.5 -3t-18 -3t-19 -3l97 -404q18 -80 26 -186q35 110 73 186l198 402q-9 2 -26 4q-21 4 -30.5 6t-23 6.5t-18.5 11.5t-8 18.5t-1 27.5l14 118h238h1h194h67 l-15 -118q-6 -51 -57 -62q-5 -1 -11.5 -2t-27 -4.5t-58.5 -10.5l-430 -829h-224l-228 829q-29 5 -47.5 8.5t-25 4.5t-11.5 2t-9 2q-49 11 -42 62z" />
<glyph unicode="w" horiz-adv-x="1826" d="M41 908l14 118h82h196h1h221l-15 -118q-1 -11 -4.5 -20t-7 -15.5t-11.5 -11.5t-13 -8t-17 -6t-18.5 -4t-23.5 -4t-25 -4l58 -403q8 -54 13 -174q28 75 71 174l238 550q8 19 27.5 32.5t43.5 13.5h109q17 0 30.5 -5.5t22 -16t11.5 -24.5l99 -560q12 -65 24 -165 q30 104 58 175l161 401q-11 2 -30 5q-22 3 -31.5 5t-23 7t-18.5 11.5t-8.5 18.5t-1.5 28l15 118h230h187h82l-14 -118q-6 -51 -58 -62q-4 -1 -10.5 -2t-27 -4.5t-58.5 -10.5l-365 -829h-199q-32 0 -40 44l-113 593q-12 64 -14 117q-22 -67 -44 -119l-259 -591 q-20 -44 -60 -44h-189l-161 829q-28 5 -46.5 8.5t-25 4.5t-11.5 2t-9 2q-49 11 -42 62z" />
<glyph unicode="x" horiz-adv-x="1230" d="M39 0l14 118q7 51 58 62q4 1 8 1.5t10 1.5t14 2t22.5 3.5t33.5 5.5l263 335l-168 304q-14 2 -37.5 5t-33 5t-24 6.5t-19.5 11.5t-8 18.5t-1 28.5l14 118h1h238h1h205l-14 -118q-7 -51 -58 -62l98 -195q16 37 40 68l94 124q-33 6 -47.5 20.5t-10.5 44.5l14 118h217h227h1 l-14 -118q-6 -51 -58 -62q-5 -1 -10.5 -2t-13 -2t-24.5 -3.5t-39 -6.5l-239 -292l183 -347q14 -2 37.5 -5t33.5 -4.5t24 -6.5t19.5 -11.5t8.5 -18.5t1 -29l-14 -118h-445l14 118q6 50 55 61l-109 224q-14 -36 -33 -60l-123 -161q30 -5 43.5 -20t9.5 -44l-14 -118h-445z" />
<glyph unicode="y" horiz-adv-x="1261" d="M41 908l14 118h58h216h1h225l-15 -118q-1 -15 -7 -26.5t-12.5 -18t-21 -11.5t-24.5 -7t-31 -6q-2 0 -3 -0.5t-3 -0.5t-3 -1l112 -389q14 -45 20 -110q19 48 52 111l196 385q-9 1 -26 4q-21 4 -30.5 5.5t-23 6.5t-18.5 12t-8.5 18.5t-1.5 27.5l15 118h241h198h61l-15 -118 q-6 -51 -58 -62q-4 -1 -9.5 -2t-11.5 -2t-25.5 -4.5t-49.5 -8.5l-611 -1111q-10 -18 -20 -29t-27 -17.5t-42 -6.5h-184l243 411l-237 753q-23 4 -39.5 7t-24.5 4.5t-12.5 2.5t-8 1.5t-7.5 1.5q-49 11 -42 62z" />
<glyph unicode="z" horiz-adv-x="1010" d="M38 0l13 103q5 44 43 85l572 649h-323q-18 -81 -24 -101q-13 -38 -51 -38h-115l38 316h1l1 12h778l-13 -102q-6 -50 -43 -92l-567 -642h359q20 87 26 108q12 37 51 37h115l-41 -335h-820z" />
<glyph unicode="{" horiz-adv-x="696" d="M38 548l18 143q44 0 73.5 18.5t43 50.5t20.5 74.5t5 90t-3 97.5t-3 97t4 88q20 163 125 251.5t285 88.5h53l-14 -110q-2 -21 -19.5 -35.5t-39.5 -14.5h-9q-49 0 -83 -19t-51.5 -53.5t-26 -76.5t-9.5 -96.5t0 -103.5t0.5 -107t-5.5 -99q-14 -115 -113 -182 q-31 -21 -68 -31q65 -21 102 -76t27 -137q-9 -68 -43 -194t-42 -196q-6 -50 5.5 -86.5t41.5 -57t77 -20.5h9q21 0 35 -14.5t11 -36.5l-13 -109h-53q-172 0 -259.5 84.5t-66.5 254.5q3 29 9 59.5t14 59.5t15.5 54.5t17 57t15.5 54.5q36 138 2 194q-24 38 -87 38z" />
<glyph unicode="|" horiz-adv-x="497" d="M159 -335v1882h192v-1882h-192z" />
<glyph unicode="}" horiz-adv-x="697" d="M36 -308l13 109q3 21 20 36t40 15h9q49 0 83 18.5t51 53.5t26 77t10 96t0 103t-0.5 107t5.5 99q10 80 58.5 135.5t122.5 77.5q-66 19 -102.5 74.5t-26.5 138.5q8 68 42 194t43 196q6 51 -5.5 87.5t-41.5 57t-77 20.5h-9q-21 0 -35 14t-12 36l14 110h53q66 0 120.5 -12.5 t97 -39.5t69.5 -66.5t37.5 -96t1.5 -125.5q-8 -68 -44.5 -189t-44.5 -189q-8 -65 17.5 -101.5t85.5 -36.5l-18 -143q-51 0 -83 -25t-43.5 -66.5t-15.5 -95.5t0.5 -111.5t4.5 -114t-3 -104.5q-20 -163 -125 -251t-285 -88h-53z" />
<glyph unicode="~" horiz-adv-x="1121" d="M54 398q14 115 68.5 197t144.5 118q59 24 131 24q37 0 77.5 -8.5t63 -16.5t68 -26.5t56.5 -23.5q37 -14 69 -14q40 0 69 18.5t45 48.5t21 70h199q-15 -115 -69.5 -197t-143.5 -118q-59 -24 -131 -24q-37 0 -78 8.5t-63.5 16.5t-67.5 26.5t-57 23.5q-36 14 -68 14 q-59 0 -93 -37.5t-42 -99.5h-199z" />
<glyph unicode="&#xa1;" horiz-adv-x="508" d="M44 -335l65 533q19 148 78 364h167q7 -216 -12 -364l-65 -533h-233zM175 951q22 41 60.5 66t90.5 25q64 0 103 -42t31 -108q-6 -49 -36 -85t-74 -54q-29 -12 -61 -12q-64 0 -102 44q-27 30 -30 79t18 87z" />
<glyph unicode="&#xa2;" horiz-adv-x="966" d="M48 513q22 177 111 302.5t233 184.5q65 27 142 36q23 110 33 158q6 25 27 44t48 19h91q-3 -14 -14 -66.5t-17 -80.5l-15 -74q82 -9 238 -70l-39 -316h-115q-39 0 -42 38q-2 25 1 144q-52 14 -82 17q-27 -130 -77.5 -370t-64.5 -308h7q47 0 88.5 13t63 26t58.5 40 q20 14 43 14q30 0 43 -23l60 -90q-77 -78 -174 -121t-228 -47q-2 -9 -13 -62.5t-17 -81.5q-5 -25 -26 -44t-49 -19h-91q12 55 16.5 78.5t14 67.5t16.5 79q-148 44 -221 178.5t-49 333.5zM301 513q-25 -200 64 -287q49 235 126 605q-160 -77 -190 -318z" />
<glyph unicode="&#xa3;" horiz-adv-x="1264" d="M41 0l19 155q52 12 91.5 33.5t67.5 60.5t35 90l32 261h-191l9 79q5 36 30 59.5t64 23.5h108l29 236q19 155 99 264.5t209 162.5q91 37 207 37q281 0 372 -261l-106 -63q-34 -16 -59 -16q-16 0 -31.5 8.5t-23.5 17t-22 26t-18 21.5q-51 59 -138 59q-55 0 -98 -19.5 t-70.5 -55t-44.5 -80t-23 -100.5l-29 -237h409l-12 -98q-2 -12 -9 -24t-17.5 -20.5t-24 -14t-27.5 -5.5h-339l-24 -194q-8 -67 -38.5 -117.5t-79.5 -95.5q76 17 149 17h586l-13 -104q-5 -43 -39 -74.5t-80 -31.5h-959z" />
<glyph unicode="&#xa4;" horiz-adv-x="1105" d="M44 328l169 150q-43 91 -31 195q13 103 76 190l-135 152l140 122l132 -150q98 55 202 55q102 0 183 -52l171 152l108 -123l-170 -151q44 -91 31 -195q-12 -102 -75 -189l134 -152l-140 -123l-132 150q-94 -54 -201 -54q-103 0 -183 51l-171 -152zM370 601 q15 -52 56.5 -84t101.5 -32q64 0 112.5 33t75.5 83q41 73 19 147q-17 51 -58.5 83t-101.5 32q-39 0 -75 -15q-44 -18 -78 -53t-52 -85.5t0 -108.5z" />
<glyph unicode="&#xa5;" horiz-adv-x="1234" d="M40 263l17 137h320l11 95h-320l17 138h276l-298 813h205q65 0 84 -60l159 -488q25 -78 33 -158q29 87 70 158l277 488q36 60 96 60h207l-499 -813h276l-17 -138h-319l-11 -95h319l-17 -137h-319l-32 -263h-247l32 263h-320z" />
<glyph unicode="&#xa6;" horiz-adv-x="501" d="M38 -335l99 808h192l-99 -808h-192zM170 738l99 809h192l-99 -809h-192z" />
<glyph unicode="&#xa7;" horiz-adv-x="1018" d="M39 5l70 94q26 35 67 35q16 0 30 -6t32 -18.5t25 -16.5q71 -41 160 -41q78 0 129.5 33t58.5 95q6 42 -14.5 70t-58.5 50q-23 15 -52.5 28t-72 29.5t-58.5 23.5q-29 12 -49.5 21.5t-46 23.5t-44.5 28t-38 32t-33 39.5t-24 45.5q-17 45 -12.5 93.5t20.5 89.5t41 73 q50 62 139 99q-93 88 -77 222q14 107 82.5 179.5t172.5 108.5q75 25 170 25q103 0 187 -34.5t135 -92.5l-66 -89q-11 -16 -22.5 -23t-29.5 -7q-15 0 -27.5 4t-32.5 15.5t-23 13.5q-67 32 -139 32q-76 0 -128 -31t-59 -90q-3 -18 2.5 -34t18.5 -28.5t24 -20.5t28 -19 q35 -20 89 -44t98.5 -43.5t90 -45.5t79.5 -62t52 -81q17 -43 12.5 -91t-19.5 -88t-38 -74q-46 -65 -134 -105q92 -84 77 -203q-10 -81 -47.5 -145t-94 -105.5t-130.5 -65.5q-79 -25 -179 -25q-107 0 -195.5 34t-145.5 92zM334 725q-2 -24 4 -44t21 -35.5t29.5 -26 t34.5 -21.5q35 -20 110.5 -52.5t97.5 -43.5q81 38 90 117q6 46 -17.5 75t-67.5 55q-34 20 -108.5 52.5t-93.5 42.5q-45 -22 -69.5 -49t-30.5 -70z" />
<glyph unicode="&#xa8;" horiz-adv-x="766" d="M78 1346q20 37 55 61.5t80 24.5q46 0 80.5 -29.5t42 -72.5t-16.5 -91q-20 -35 -56.5 -58t-82.5 -23q-36 0 -64 17t-42.5 43.5t-14 61t18.5 66.5zM452 1346q20 37 55 61.5t81 24.5t80 -29.5t41 -72.5t-16 -91q-21 -35 -56.5 -58t-81.5 -23q-36 0 -64.5 17t-43 43.5t-14 61 t18.5 66.5z" />
<glyph unicode="&#xa9;" horiz-adv-x="1575" d="M53 527q-8 60 -9 113.5t8.5 107t22.5 100t33.5 92t42 83t47.5 73.5q86 122 208 210t274 130q97 26 199 26q161 0 285 -58.5t211 -157.5q86 -98 129.5 -229.5t23.5 -293.5q-38 -304 -281 -520q-154 -137 -349 -190q-98 -27 -200 -27q-108 0 -204 29.5t-165 76t-126 111.5 q-120 137 -150 324zM202 480q33 -114 105 -197t175 -131q104 -48 231 -48q134 0 249 49.5t204 130.5q90 81 151.5 193.5t78.5 245.5q22 183 -43.5 320.5t-189.5 219.5q-129 84 -298 84q-253 0 -450 -181q-62 -57 -109 -126q-35 -51 -62.5 -113.5t-45.5 -135t-17.5 -154 t21.5 -157.5zM361 543q-19 83 -13.5 158t32 143.5t63.5 122t82 93.5q146 129 343 129q203 0 309 -133l-76 -89q-15 -16 -34.5 -21.5t-42.5 7.5q-37 27 -74 40.5t-91 13.5q-128 0 -200 -77t-88 -204q-15 -125 35.5 -202.5t162.5 -77.5q56 0 97 12.5t82 36.5q18 11 41 17 q22 0 33 -17l71 -87q-133 -146 -359 -146q-150 0 -246 76t-127 205z" />
<glyph unicode="&#xaa;" horiz-adv-x="673" d="M53 1002q3 30 17 55.5t33 44t46 33.5t54.5 25t59.5 18q74 19 182 22l3 25q6 51 -13 75t-67 24q-21 0 -42 -4.5t-29.5 -7.5t-32.5 -14t-28 -13q-15 -7 -36 -7q-35 0 -48 33l-24 57q119 98 280 98q108 0 167.5 -64.5t45.5 -176.5l-47 -384h-83q-18 0 -28.5 3t-17 10.5 t-10.5 22.5l-7 36q-53 -40 -98.5 -60t-111.5 -20q-84 0 -129.5 43t-35.5 126zM224 1011q-3 -22 4.5 -35t22 -17.5t38.5 -4.5q42 0 71 13.5t62 42.5l10 81q-25 -1 -38.5 -1.5t-38.5 -3t-39 -5.5t-33 -9t-29.5 -14t-19 -20t-10.5 -27z" />
<glyph unicode="&#xab;" horiz-adv-x="842" d="M48 522l4 32l305 396l76 -38q28 -13 30.5 -42t-17.5 -55l-167 -235q-17 -26 -37 -42q14 -14 27 -42l109 -236q14 -34 4 -58t-41 -38l-86 -38zM377 522l4 32l305 396l76 -38q28 -13 30.5 -42t-17.5 -55l-167 -235q-17 -26 -37 -42q14 -14 27 -42l109 -236q14 -34 4 -58 t-41 -38l-86 -38z" />
<glyph unicode="&#xac;" horiz-adv-x="1021" d="M57 580l22 183h886l-57 -466h-209l35 283h-677z" />
<glyph unicode="&#xad;" horiz-adv-x="662" d="M59 501l25 206h518l-25 -206h-518z" />
<glyph unicode="&#xae;" horiz-adv-x="1575" d="M53 527q-12 68 -8.5 136t15 126t34 115t48 102.5t56.5 89.5q86 122 208 210t274 129q97 27 199 27q161 0 285 -58.5t211 -157.5q86 -98 129.5 -229.5t23.5 -293.5q-38 -304 -281 -520q-74 -67 -161.5 -115t-187.5 -75q-98 -27 -200 -27q-159 0 -283.5 58.5t-211.5 158.5 q-120 137 -150 324zM202 480q33 -114 105 -197t175 -131q104 -48 231 -48q134 0 249 49.5t204 129.5q90 82 151.5 194.5t78.5 245.5q22 183 -43.5 320.5t-189.5 218.5q-129 85 -298 85q-253 0 -450 -182q-62 -56 -109 -126q-35 -50 -62.5 -112.5t-45.5 -135t-17.5 -154 t21.5 -157.5zM408 277l110 897h321q82 0 144 -13t108 -42.5t66 -80.5t11 -123q-12 -97 -69 -160.5t-151 -92.5q14 -9 25.5 -21.5t18 -24.5t15.5 -32l143 -307h-206q-45 0 -59 33l-112 263q-9 16 -21 22.5t-35 6.5h-55l-40 -325h-214zM681 755h89q89 0 132 29.5t52 103.5 q9 71 -23.5 97.5t-111.5 26.5h-107z" />
<glyph unicode="&#xaf;" horiz-adv-x="735" d="M62 1214l19 158h598l-19 -158h-598z" />
<glyph unicode="&#xb0;" horiz-adv-x="794" d="M61 992q-16 60 -13 113.5t23.5 103.5t48 88.5t60.5 67.5q112 99 257 99q113 0 190 -57t106 -151q16 -60 13.5 -113.5t-23.5 -103.5t-48.5 -88t-61.5 -67q-114 -101 -259 -101q-112 0 -188 57.5t-105 151.5zM227 1052q9 -31 28.5 -54.5t50 -37.5t68.5 -14q53 0 96 23.5 t68 63t31 88.5q10 78 -33 128.5t-119 50.5q-37 0 -70 -14q-64 -27 -103 -92t-17 -142z" />
<glyph unicode="&#xb1;" horiz-adv-x="1159" d="M42 80l22 183h976l-22 -183h-976zM118 703l23 184h387l44 354h200l-44 -354h389l-23 -184h-389l-41 -341h-200l41 341h-387z" />
<glyph unicode="&#xb2;" horiz-adv-x="683" d="M48 900l7 57q5 42 38 71l234 206q83 74 116 144q10 22 13 44t-1.5 41.5t-20.5 31.5t-40 12t-42.5 -9t-30 -22t-21.5 -33q-17 -22 -35 -30.5t-52 -3.5l-97 15q29 107 106 166t199 59q107 0 168.5 -56.5t48.5 -160.5q-3 -26 -10 -49t-20 -45t-23 -37.5t-31 -36.5 l-30.5 -30.5t-34.5 -32t-31 -28.5l-144 -130q61 17 107 17h89q0 2 1.5 8l2 8t2 7t2 6.5t2.5 5.5t3.5 5.5l4 4t5.5 3t6.5 1.5t7.5 1h63h5l-26 -210h-541z" />
<glyph unicode="&#xb3;" horiz-adv-x="658" d="M44 1093l81 31q26 11 53 7t35 -27q9 -20 19 -33.5t28.5 -23t43.5 -9.5q53 0 85 38t17 92q-8 31 -41.5 40t-91.5 9l14 116q46 0 76 7t51 28t26 56q4 38 -13.5 59t-55.5 21q-62 0 -94 -59q-11 -20 -23.5 -29.5t-34.5 -9.5q-11 0 -25 3l-89 15q27 104 101 164.5t192 60.5 q52 0 94.5 -14.5t71.5 -42t42 -65.5q7 -18 8.5 -38.5t-1 -39.5t-8.5 -37.5t-13.5 -34t-17.5 -28.5q-31 -43 -91 -67q56 -19 83.5 -54.5t20.5 -97.5q-14 -109 -93 -173.5t-199 -64.5q-114 0 -171.5 49t-79.5 152z" />
<glyph unicode="&#xb4;" horiz-adv-x="619" d="M54 1166l172 243q19 28 40.5 40.5t60.5 12.5h240l-279 -261q-21 -20 -38 -27.5t-48 -7.5h-148z" />
<glyph unicode="&#xb5;" horiz-adv-x="1143" d="M46 -232l155 1258h247l-80 -652q-12 -94 25.5 -145.5t123.5 -51.5q70 0 127 29t113 78l91 742h247l-126 -1026h-151q-48 0 -58 45l-7 83q-61 -55 -122.5 -84t-148.5 -29q-115 0 -184 69q9 -72 -4 -179l-29 -240h-122q-52 0 -77.5 26t-19.5 77z" />
<glyph unicode="&#xb6;" horiz-adv-x="1474" d="M59 880q-20 73 -16.5 138.5t29 126.5t60 107t75.5 80q139 114 345 114h881l-25 -207h-214l-178 -1448h-216l178 1448h-235l-178 -1448h-216l103 839q-150 0 -253 66.5t-140 183.5z" />
<glyph unicode="&#xb7;" horiz-adv-x="496" d="M64 522q-18 58 0 108.5t52.5 85.5t77.5 52q36 15 75 15q61 0 102.5 -31.5t58.5 -83.5q12 -44 6 -82.5t-27.5 -71t-49.5 -55.5t-60 -36q-36 -14 -76 -14q-61 0 -102 31.5t-57 81.5z" />
<glyph unicode="&#xb8;" horiz-adv-x="530" d="M60 -326l32 76q9 23 31 23q13 0 37 -7t41 -7q29 0 49 11t23 32q3 29 -31.5 41.5t-107.5 22.5l63 148h154l-29 -69q36 -9 61 -20t46.5 -27.5t30.5 -42t5 -58.5q-5 -39 -29 -68t-61 -45.5t-80 -24.5t-91 -8q-74 0 -144 23z" />
<glyph unicode="&#xb9;" horiz-adv-x="538" d="M50 900l14 114h139l44 360l11 51l-84 -61q-18 -12 -36 -12q-9 0 -17 2.5t-14.5 7t-9.5 10.5l-46 75l257 194h149l-77 -627h115l-14 -114h-431z" />
<glyph unicode="&#xba;" horiz-adv-x="760" d="M53 1149q14 110 74.5 185t156.5 108q63 22 137 22q145 0 225 -83t61 -232q-13 -111 -73.5 -187.5t-155.5 -110.5q-63 -22 -135 -22q-148 0 -228 84t-62 236zM246 1147q-11 -87 15 -130.5t100 -43.5q37 0 65 12.5t45.5 37t27.5 54.5t15 70q10 85 -15 129t-96 44 q-76 0 -111.5 -44t-45.5 -129z" />
<glyph unicode="&#xbb;" horiz-adv-x="843" d="M67 260l167 236q19 28 37 42q-16 16 -27 42l-109 235q-15 34 -4.5 58.5t41.5 38.5l85 38l208 -396l-4 -32l-305 -396l-76 38q-28 13 -31 41.5t18 54.5zM396 260l167 236q19 28 37 42q-16 16 -27 42l-109 235q-15 34 -4.5 58.5t41.5 38.5l85 38l208 -396l-4 -32l-305 -396 l-76 38q-28 13 -31 41.5t18 54.5z" />
<glyph unicode="&#xbc;" horiz-adv-x="1329" d="M42 0l1002 1365q27 38 59.5 59.5t80.5 21.5h105l-1009 -1375q-28 -37 -57 -54t-75 -17h-106zM45 706l14 114h139l44 360l11 51l-84 -61q-18 -12 -36 -12q-9 0 -17.5 2.5t-14.5 7t-9 10.5l-46 75l257 194h149l-77 -627h115l-14 -114h-431zM664 274l392 467h171l-56 -459 h94l-11 -88q-2 -14 -12.5 -23.5t-25.5 -9.5h-60l-20 -161h-148l20 161h-289q-22 0 -35.5 9.5t-14.5 27.5zM828 282h195l20 168q7 56 21 109z" />
<glyph unicode="&#xbd;" horiz-adv-x="1339" d="M40 0l1002 1365q27 38 59.5 59.5t80.5 21.5h105l-1009 -1375q-28 -37 -57 -54t-75 -17h-106zM84 706l14 114h139l44 360l11 51l-84 -61q-18 -12 -36 -12q-14 0 -25.5 5.5t-15.5 14.5l-46 75l257 194h149l-77 -627h115l-14 -114h-431zM702 0l7 57q5 42 38 71l234 206 q83 74 116 145q14 28 15 57t-15.5 50t-48.5 21q-35 0 -56.5 -16.5t-37.5 -47.5q-14 -19 -27 -27.5t-37 -8.5q-8 0 -23 2l-97 15q29 107 106 166t199 59q69 0 120.5 -23.5t78.5 -73.5t18 -120q-3 -26 -10 -49t-20 -45t-23 -37.5t-31 -36.5l-30.5 -30.5t-34.5 -32t-31 -28.5 l-144 -130q61 17 107 17h89q0 2 1.5 8l2 8t2 7t2 6.5t2.5 5.5t3.5 5.5l4 4t5.5 3t6.5 1.5t7.5 1h63h5l-26 -210h-541z" />
<glyph unicode="&#xbe;" horiz-adv-x="1392" d="M42 899l81 31q23 8 41 8q23 0 35 -12t21.5 -32t19.5 -29q24 -21 62 -21q53 0 85 38t17 92q-8 31 -41.5 40t-91.5 9l14 116q70 0 108 19.5t45 71.5q4 38 -13.5 59t-55.5 21q-63 0 -94 -59q-12 -20 -24 -29.5t-34 -9.5q-11 0 -25 3l-89 15q27 104 101 164.5t192 60.5 q79 0 134 -32t74 -90q12 -31 8.5 -65t-14 -62t-26.5 -51q-31 -43 -91 -67q56 -19 83.5 -54.5t20.5 -97.5q-14 -109 -93 -173.5t-199 -64.5q-114 0 -171.5 49t-79.5 152zM106 0l1001 1365q28 38 60.5 59.5t79.5 21.5h105l-1009 -1375q-27 -37 -56 -54t-75 -17h-106zM724 274 l393 467h171l-57 -459h94l-11 -88q-1 -14 -12 -23.5t-26 -9.5h-60l-19 -161h-148l19 161h-289q-21 0 -34.5 9.5t-14.5 27.5zM888 282h195l21 168q7 57 20 109z" />
<glyph unicode="&#xbf;" horiz-adv-x="841" d="M59 -156q-19 68 -10 142t37 126q51 96 147 154q9 6 37 22.5t41.5 24.5t33.5 22t35 27q28 23 37 55l41 145h169l-3 -163q7 -83 -94 -151q-21 -14 -72.5 -43t-86 -54.5t-57.5 -57.5q-22 -29 -30.5 -69t2.5 -84q11 -28 32.5 -49t52.5 -31.5t71 -10.5q65 0 116 18.5t102 50.5 q21 13 37 13q35 0 47 -31l53 -103q-57 -44 -110 -74t-130 -51.5t-162 -21.5q-129 0 -217 49.5t-119 144.5zM454 951q22 40 61.5 66t90.5 26q64 0 102.5 -42.5t30.5 -108.5q-8 -64 -55 -107t-115 -43q-64 0 -103 43q-27 30 -30 78.5t18 87.5z" />
<glyph unicode="&#xc0;" d="M38 0l13 102q4 35 46 51q16 7 115 46l642 1247h275l337 -1247q90 -39 104 -46q38 -16 33 -51l-12 -102h-489l13 102q1 10 5.5 18.5t9 13.5t15.5 11t16 8.5t21 8.5t21 8q-10 42 -29 120.5t-24 97.5h-576q-12 -25 -49 -101t-57 -117q4 -2 18.5 -8t19 -8t14 -8.5t12.5 -11.5 t5.5 -13.5t1.5 -18.5l-12 -102h-489zM617 1791h274q38 0 58 -9t40 -31l172 -202h-195q-29 0 -45.5 5.5t-33.5 18.5zM667 578h437l-109 449q-21 83 -34 170q-46 -115 -75 -172z" />
<glyph unicode="&#xc1;" d="M38 0l13 102q4 35 46 51q16 7 115 46l642 1247h275l337 -1247q90 -39 104 -46q38 -16 33 -51l-12 -102h-489l13 102q1 10 5.5 18.5t9 13.5t15.5 11t16 8.5t21 8.5t21 8q-10 42 -29 120.5t-24 97.5h-576q-12 -25 -49 -101t-57 -117q4 -2 18.5 -8t19 -8t14 -8.5t12.5 -11.5 t5.5 -13.5t1.5 -18.5l-12 -102h-489zM667 578h437l-109 449q-21 83 -34 170q-46 -115 -75 -172zM814 1549l221 202q24 22 46.5 31t61.5 9h275l-323 -216q-39 -26 -87 -26h-194z" />
<glyph unicode="&#xc2;" d="M38 0l13 102q4 35 46 51q16 7 115 46l642 1247h275l337 -1247q90 -39 104 -46q38 -16 33 -51l-12 -102h-489l13 102q1 10 5.5 18.5t9 13.5t15.5 11t16 8.5t21 8.5t21 8q-10 42 -29 120.5t-24 97.5h-576q-12 -25 -49 -101t-57 -117q4 -2 18.5 -8t19 -8t14 -8.5t12.5 -11.5 t5.5 -13.5t1.5 -18.5l-12 -102h-489zM639 1549l269 219h246l215 -219h-187q-40 0 -60 16l-93 67q-1 1 -13 11q-6 -5 -17 -11l-109 -67q-24 -16 -64 -16h-187zM667 578h437l-109 449q-21 83 -34 170q-46 -115 -75 -172z" />
<glyph unicode="&#xc3;" d="M38 0l13 102q4 35 46 51q16 7 115 46l642 1247h275l337 -1247q90 -39 104 -46q38 -16 33 -51l-12 -102h-489l13 102q1 10 5.5 18.5t9 13.5t15.5 11t16 8.5t21 8.5t21 8q-10 42 -29 120.5t-24 97.5h-576q-12 -25 -49 -101t-57 -117q4 -2 18.5 -8t19 -8t14 -8.5t12.5 -11.5 t5.5 -13.5t1.5 -18.5l-12 -102h-489zM667 578h437l-109 449q-21 83 -34 170q-46 -115 -75 -172zM699 1544q4 37 15 69.5t28.5 59t41 47t51.5 32.5q37 17 81 17q26 0 54.5 -7t43.5 -13t47.5 -21.5t38.5 -17.5q25 -11 46 -11q59 0 68 63h134q-9 -75 -43.5 -128t-90.5 -79 q-37 -16 -82 -16q-18 0 -36 3t-32.5 7t-31.5 11t-28.5 12.5t-28 13.5t-26.5 12q-25 11 -46 11q-30 0 -47 -17.5t-21 -47.5h-136z" />
<glyph unicode="&#xc4;" d="M38 0l13 102q4 35 46 51q16 7 115 46l642 1247h275l337 -1247q90 -39 104 -46q38 -16 33 -51l-12 -102h-489l13 102q1 10 5.5 18.5t9 13.5t15.5 11t16 8.5t21 8.5t21 8q-10 42 -29 120.5t-24 97.5h-576q-12 -25 -49 -101t-57 -117q4 -2 18.5 -8t19 -8t14 -8.5t12.5 -11.5 t5.5 -13.5t1.5 -18.5l-12 -102h-489zM667 578h437l-109 449q-21 83 -34 170q-46 -115 -75 -172zM685 1718q20 36 53.5 60t76.5 24q33 0 61.5 -16.5t44 -43t17 -60t-18.5 -66.5q-13 -22 -31.5 -39.5t-46 -29t-58.5 -11.5q-34 0 -61 16.5t-40.5 42.5t-13.5 59t17 64z M1117 1718q20 36 55 60t79 24t77 -28.5t39.5 -70t-15.5 -87.5q-20 -35 -54 -57.5t-79 -22.5q-47 0 -79.5 28t-38.5 68.5t16 85.5z" />
<glyph unicode="&#xc5;" d="M38 0l13 102q4 35 46 51q16 7 115 46l642 1247h275l337 -1247q90 -39 104 -46q38 -16 33 -51l-12 -102h-489l13 102q1 10 5.5 18.5t9 13.5t15.5 11t16 8.5t21 8.5t21 8q-10 42 -29 120.5t-24 97.5h-576q-12 -25 -49 -101t-57 -117q4 -2 18.5 -8t19 -8t14 -8.5t12.5 -11.5 t5.5 -13.5t1.5 -18.5l-12 -102h-489zM667 578h437l-109 449q-21 83 -34 170q-46 -115 -75 -172zM822 1606q-22 61 2.5 120t69.5 95q66 53 149 53q67 0 114 -30.5t66 -82.5q23 -62 -2 -120.5t-70 -93.5q-67 -52 -154 -52q-66 0 -111 30t-64 81zM933 1683q-5 -41 16.5 -65 t63.5 -24q20 0 37.5 7t30 19t20.5 28t11 35q5 42 -16 66t-61 24q-44 0 -70.5 -24t-31.5 -66z" />
<glyph unicode="&#xc6;" horiz-adv-x="2100" d="M38 0l13 102q4 35 46 51q15 6 103 42l673 1067q-37 7 -53 20.5t-12 45.5l15 118h1240l-18 -139h2l-29 -241h-115q-39 0 -42 37q-1 23 1 129h-520l1 -401h494l-25 -207h-469l-1 -409h395q24 105 31 129q12 37 51 37h115l-30 -241h-2l-17 -140h-944l14 118q1 10 4 18.5 t8.5 15t11 11.5t14 9t15.5 6.5t18.5 4.5t19 3.5t21 3.5t21.5 3v163h-520l-110 -182q7 -3 25.5 -10t24.5 -11t16.5 -11.5t13.5 -17t1 -22.5l-12 -102h-489zM683 546h405v700q-40 -91 -90 -179z" />
<glyph unicode="&#xc7;" horiz-adv-x="1358" d="M60 426q-25 105 -19.5 215t31 206t66.5 174q70 135 180 233.5t254 152.5q143 55 308 55q181 0 441 -104q-2 -16 -5.5 -45t-6.5 -53t-6 -45l-27 -226h-115q-39 0 -42 37q-2 27 2 159q-159 48 -271 48q-86 0 -161 -23t-132 -64.5t-100 -94t-74 -116.5q-27 -55 -44.5 -126 t-21.5 -151t13 -152q16 -65 46.5 -118t75.5 -93t108 -61.5t139 -21.5q110 0 187.5 27t144.5 82q25 20 48 20q22 0 36 -17l91 -115q-92 -100 -211 -156.5t-279 -66.5l-16 -41q36 -9 61 -20t46.5 -27.5t30.5 -42t5 -58.5q-5 -39 -29 -68t-61.5 -45.5t-80 -24.5t-90.5 -8 q-74 0 -144 23l32 76q9 23 31 23q13 0 37 -7t41 -7q29 0 49 11t23 32q3 29 -31.5 41.5t-108.5 22.5l52 123q-134 14 -238 71.5t-170.5 150t-94.5 215.5z" />
<glyph unicode="&#xc8;" horiz-adv-x="1316" d="M38 0l14 118q3 17 11.5 29.5t18.5 19.5t28.5 12.5t31 8t36.5 5.5t36 5l129 1050q-22 4 -53 9.5t-47 8.5q-48 11 -42 62l15 118h151h912q-4 -30 -8.5 -68.5t-9.5 -77t-8 -68.5l-21 -166h-115q-38 0 -42 37q-1 24 1 129h-464l-49 -401h489l-26 -207h-489l-50 -409h465 q23 105 30 129q13 37 51 37h115q-20 -165 -29 -241l-18 -140h-1063zM463 1791h274q39 0 59 -9t39 -31l173 -202h-195q-29 0 -45.5 5.5t-33.5 18.5z" />
<glyph unicode="&#xc9;" horiz-adv-x="1316" d="M38 0l14 118q3 17 11.5 29.5t18.5 19.5t28.5 12.5t31 8t36.5 5.5t36 5l129 1050q-22 4 -53 9.5t-47 8.5q-48 11 -42 62l15 118h151h912q-4 -30 -8.5 -68.5t-9.5 -77t-8 -68.5l-21 -166h-115q-38 0 -42 37q-1 24 1 129h-464l-49 -401h489l-26 -207h-489l-50 -409h465 q23 105 30 129q13 37 51 37h115q-20 -165 -29 -241l-18 -140h-1063zM661 1549l220 202q25 22 47 31t61 9h275l-322 -216q-39 -26 -87 -26h-194z" />
<glyph unicode="&#xca;" horiz-adv-x="1316" d="M38 0l14 118q3 17 11.5 29.5t18.5 19.5t28.5 12.5t31 8t36.5 5.5t36 5l129 1050q-22 4 -53 9.5t-47 8.5q-48 11 -42 62l15 118h151h912q-4 -30 -8.5 -68.5t-9.5 -77t-8 -68.5l-21 -166h-115q-38 0 -42 37q-1 24 1 129h-464l-49 -401h489l-26 -207h-489l-50 -409h465 q23 105 30 129q13 37 51 37h115q-20 -165 -29 -241l-18 -140h-1063zM486 1549l269 219h246l215 -219h-187q-40 0 -60 16l-93 67q-1 1 -14 11q-5 -5 -16 -11l-109 -67q-25 -16 -64 -16h-187z" />
<glyph unicode="&#xcb;" horiz-adv-x="1316" d="M38 0l14 118q3 17 11.5 29.5t18.5 19.5t28.5 12.5t31 8t36.5 5.5t36 5l129 1050q-22 4 -53 9.5t-47 8.5q-48 11 -42 62l15 118h151h912q-4 -30 -8.5 -68.5t-9.5 -77t-8 -68.5l-21 -166h-115q-38 0 -42 37q-1 24 1 129h-464l-49 -401h489l-26 -207h-489l-50 -409h465 q23 105 30 129q13 37 51 37h115q-20 -165 -29 -241l-18 -140h-1063zM532 1718q19 36 53 60t77 24q44 0 78 -28.5t41.5 -70t-15.5 -87.5q-20 -35 -55.5 -57.5t-81.5 -22.5q-34 0 -61 16.5t-40.5 42.5t-13 59t17.5 64zM964 1718q12 23 30.5 41t46 30.5t57.5 12.5 q44 0 76.5 -28.5t39.5 -70t-16 -87.5q-19 -35 -53 -57.5t-80 -22.5q-35 0 -62.5 16.5t-42 42t-14.5 58.5t18 65z" />
<glyph unicode="&#xcc;" horiz-adv-x="826" d="M38 0l14 118q3 17 11.5 29.5t18.5 19.5t28.5 12.5t31 8t36.5 5.5t36 5l129 1050q-14 2 -47.5 8.5t-52.5 9.5q-48 11 -42 62l15 118h573l-15 -118q-2 -17 -10.5 -29.5t-18.5 -19.5t-28.5 -12.5t-31.5 -8t-37 -5.5t-35 -5l-129 -1050q17 -3 35 -6t34 -6t30 -6 q49 -11 42 -62l-14 -118h-573zM132 1791h274q39 0 59 -9t39 -31l173 -202h-195q-29 0 -45.5 5.5t-33.5 18.5z" />
<glyph unicode="&#xcd;" horiz-adv-x="968" d="M38 0l14 118q3 17 11.5 29.5t18.5 19.5t28.5 12.5t31 8t36.5 5.5t36 5l129 1050q-14 2 -47.5 8.5t-52.5 9.5q-48 11 -42 62l15 118h573l-15 -118q-2 -17 -10.5 -29.5t-18.5 -19.5t-28.5 -12.5t-31.5 -8t-37 -5.5t-35 -5l-129 -1050q17 -3 35 -6t34 -6t30 -6 q49 -11 42 -62l-14 -118h-573zM330 1549l220 202q25 22 47 31t61 9h275l-322 -216q-39 -26 -87 -26h-194z" />
<glyph unicode="&#xce;" horiz-adv-x="919" d="M38 0l14 118q3 17 11.5 29.5t18.5 19.5t28.5 12.5t31 8t36.5 5.5t36 5l129 1050q-14 2 -47.5 8.5t-52.5 9.5q-48 11 -42 62l15 118h573l-15 -118q-2 -17 -10.5 -29.5t-18.5 -19.5t-28.5 -12.5t-31.5 -8t-37 -5.5t-35 -5l-129 -1050q17 -3 35 -6t34 -6t30 -6 q49 -11 42 -62l-14 -118h-573zM154 1549l269 219h246l215 -219h-187q-40 0 -60 16l-93 67q-1 1 -14 11q-5 -5 -16 -11l-109 -67q-25 -16 -64 -16h-187z" />
<glyph unicode="&#xcf;" horiz-adv-x="919" d="M38 0l14 118q3 17 11.5 29.5t18.5 19.5t28.5 12.5t31 8t36.5 5.5t36 5l129 1050q-14 2 -47.5 8.5t-52.5 9.5q-48 11 -42 62l15 118h573l-15 -118q-2 -17 -10.5 -29.5t-18.5 -19.5t-28.5 -12.5t-31.5 -8t-37 -5.5t-35 -5l-129 -1050q17 -3 35 -6t34 -6t30 -6 q49 -11 42 -62l-14 -118h-573zM200 1718q12 23 29.5 41t44 30.5t56.5 12.5q44 0 78 -28.5t41.5 -70t-15.5 -87.5q-20 -35 -55.5 -57.5t-81.5 -22.5q-34 0 -61 16.5t-40.5 42.5t-13 59t17.5 64zM632 1718q9 17 22 31.5t29.5 26.5t38 19t44.5 7q44 0 76.5 -28.5t39.5 -70 t-16 -87.5q-19 -35 -53 -57.5t-80 -22.5t-79 28t-38.5 68.5t16.5 85.5z" />
<glyph unicode="&#xd0;" horiz-adv-x="1588" d="M38 0l14 118q7 51 58 62q5 1 13 2.5t30.5 5.5t60.5 10l55 453h-179l18 153h180l55 444q-37 6 -58 10t-29 5.5t-13 2.5q-48 11 -42 62l15 118h681q164 0 293 -53q91 -38 161.5 -99t119 -144t67 -192t3.5 -235q-20 -161 -90 -294t-176 -227q-105 -93 -245.5 -147.5 t-309.5 -54.5h-682zM487 214h259q170 0 284.5 80t176.5 216q26 55 42.5 125t21.5 149.5t-11 152.5q-30 140 -128.5 217.5t-260.5 77.5h-259l-53 -428h361l-18 -153h-362z" />
<glyph unicode="&#xd1;" horiz-adv-x="1776" d="M38 0l14 118q3 17 11.5 29.5t18.5 19.5t28.5 12.5t31 8t36.5 5.5t36 5l129 1050q-21 3 -52 9t-48 9q-48 11 -42 62l15 118h292q35 0 52 -9.5t33 -33.5l640 -967q1 62 9 131l84 681q-123 17 -128 18q-49 11 -43 62l15 118h417h152l-15 -118q-2 -17 -10.5 -29.5 t-18.5 -19.5t-28.5 -12.5t-31.5 -8t-37 -5.5t-35 -5l-154 -1248h-139q-34 0 -53 10.5t-35 35.5l-638 963q-1 -64 -8 -121l-85 -690q123 -17 128 -18q49 -11 42 -62l-14 -118h-569zM700 1544q9 75 44.5 129t92.5 79q37 17 81 17q21 0 41.5 -3.5t41 -11t34.5 -13.5t35.5 -16.5 t30.5 -14.5q25 -11 46 -11q59 0 69 63h134q-9 -75 -43.5 -128t-91.5 -79q-37 -16 -82 -16q-25 0 -53 7t-44.5 13.5t-46.5 20.5t-39 18q-25 11 -46 11q-29 0 -46 -17.5t-22 -47.5h-136z" />
<glyph unicode="&#xd2;" horiz-adv-x="1561" d="M64 429q-29 101 -24 210t30 203.5t66 175.5q69 134 178 233.5t251 155.5q143 55 307 55q110 0 207 -27t169.5 -73t127.5 -110q84 -99 120 -234q20 -75 23 -157t-9 -158.5t-34 -145.5t-52 -128q-70 -135 -178 -234.5t-250 -155t-306 -55.5q-248 0 -409.5 119t-216.5 326z M328 510q30 -141 129 -218.5t261 -77.5q170 0 284.5 80t176.5 216q25 55 41.5 125t21.5 149.5t-10 152.5q-30 140 -128.5 218t-260.5 78q-170 0 -285 -80.5t-178 -215.5q-25 -56 -42 -126t-21.5 -149.5t11.5 -151.5zM497 1791h274q38 0 58 -9t40 -31l172 -202h-195 q-29 0 -45.5 5.5t-33.5 18.5z" />
<glyph unicode="&#xd3;" horiz-adv-x="1561" d="M64 429q-29 101 -24 210t30 203.5t66 175.5q69 134 178 233.5t251 155.5q143 55 307 55q110 0 207 -27t169.5 -73t127.5 -110q84 -99 120 -234q20 -75 23 -157t-9 -158.5t-34 -145.5t-52 -128q-70 -135 -178 -234.5t-250 -155t-306 -55.5q-248 0 -409.5 119t-216.5 326z M328 510q30 -141 129 -218.5t261 -77.5q170 0 284.5 80t176.5 216q25 55 41.5 125t21.5 149.5t-10 152.5q-30 140 -128.5 218t-260.5 78q-170 0 -285 -80.5t-178 -215.5q-25 -56 -42 -126t-21.5 -149.5t11.5 -151.5zM694 1549l221 202q25 22 47 31t61 9h275l-323 -216 q-39 -26 -87 -26h-194z" />
<glyph unicode="&#xd4;" horiz-adv-x="1561" d="M64 429q-29 101 -24 210t30 203.5t66 175.5q69 134 178 233.5t251 155.5q143 55 307 55q110 0 207 -27t169.5 -73t127.5 -110q84 -99 120 -234q20 -75 23 -157t-9 -158.5t-34 -145.5t-52 -128q-70 -135 -178 -234.5t-250 -155t-306 -55.5q-248 0 -409.5 119t-216.5 326z M328 510q30 -141 129 -218.5t261 -77.5q170 0 284.5 80t176.5 216q25 55 41.5 125t21.5 149.5t-10 152.5q-30 140 -128.5 218t-260.5 78q-170 0 -285 -80.5t-178 -215.5q-25 -56 -42 -126t-21.5 -149.5t11.5 -151.5zM519 1549l269 219h246l215 -219h-187q-40 0 -60 16 l-93 67q-1 1 -13 11q-6 -5 -17 -11l-109 -67q-24 -16 -64 -16h-187z" />
<glyph unicode="&#xd5;" horiz-adv-x="1561" d="M64 429q-29 101 -24 210t30 203.5t66 175.5q69 134 178 233.5t251 155.5q143 55 307 55q110 0 207 -27t169.5 -73t127.5 -110q84 -99 120 -234q20 -75 23 -157t-9 -158.5t-34 -145.5t-52 -128q-70 -135 -178 -234.5t-250 -155t-306 -55.5q-248 0 -409.5 119t-216.5 326z M328 510q30 -141 129 -218.5t261 -77.5q170 0 284.5 80t176.5 216q25 55 41.5 125t21.5 149.5t-10 152.5q-30 140 -128.5 218t-260.5 78q-170 0 -285 -80.5t-178 -215.5q-25 -56 -42 -126t-21.5 -149.5t11.5 -151.5zM579 1544q6 49 23.5 90t46 71.5t66.5 47.5q37 16 81 16 q21 0 41.5 -3.5t41 -11t34.5 -13.5t36 -16.5t31 -14.5q25 -11 46 -11q59 0 68 63h134q-9 -75 -43 -128t-91 -78q-37 -17 -82 -17q-26 0 -54 7t-44 13.5t-46.5 20.5t-38.5 18q-25 11 -46 11q-15 0 -27 -5t-20.5 -13.5t-13.5 -20.5t-7 -26h-136z" />
<glyph unicode="&#xd6;" horiz-adv-x="1561" d="M64 429q-29 101 -24 210t30 203.5t66 175.5q69 134 178 233.5t251 155.5q143 55 307 55q110 0 207 -27t169.5 -73t127.5 -110q84 -99 120 -234q20 -75 23 -157t-9 -158.5t-34 -145.5t-52 -128q-70 -135 -178 -234.5t-250 -155t-306 -55.5q-248 0 -409.5 119t-216.5 326z M328 510q30 -141 129 -218.5t261 -77.5q170 0 284.5 80t176.5 216q25 55 41.5 125t21.5 149.5t-10 152.5q-30 140 -128.5 218t-260.5 78q-170 0 -285 -80.5t-178 -215.5q-25 -56 -42 -126t-21.5 -149.5t11.5 -151.5zM566 1718q19 36 52.5 60t76.5 24q44 0 78.5 -28.5t42 -70 t-16.5 -87.5q-20 -35 -55 -57.5t-81 -22.5q-34 0 -61 16.5t-40.5 42.5t-13.5 59t18 64zM998 1718q12 23 30.5 41t45.5 30.5t57 12.5q44 0 77 -28.5t39.5 -70t-15.5 -87.5q-13 -23 -31 -40t-44.5 -28.5t-57.5 -11.5q-47 0 -79.5 28t-38 68.5t16.5 85.5z" />
<glyph unicode="&#xd7;" horiz-adv-x="1079" d="M35 329l384 342l-287 327l146 130l287 -327l364 325l115 -130l-365 -325l299 -340l-147 -129l-298 339l-383 -341z" />
<glyph unicode="&#xd8;" horiz-adv-x="1649" d="M34 -111l228 268q-100 97 -147.5 241t-25.5 325q20 162 91 297t177 232q106 96 246.5 153t310.5 57q218 0 373 -98l69 82q16 19 23.5 26.5t22.5 19.5t32.5 16t41.5 4h138l-209 -246q89 -97 130 -234.5t20 -308.5q-19 -162 -90 -297t-177 -232q-105 -96 -245.5 -153 t-309.5 -57q-197 0 -347 82l-89 -105q-61 -72 -157 -72h-106zM368 517q18 -91 66 -157l688 810q-96 63 -236 63q-170 0 -285.5 -80.5t-177.5 -216.5q-25 -53 -42 -122t-22 -147t9 -150zM551 260q89 -46 210 -46q169 0 284 80t177 216q23 52 39.5 115.5t22.5 138.5t-5 146 q-13 84 -50 148z" />
<glyph unicode="&#xd9;" horiz-adv-x="1593" d="M40 1328l14 118h581l-15 -118q-5 -44 -49 -58q-14 -5 -58 -12q-22 -3 -63 -10l-82 -667q-13 -110 14.5 -191.5t97 -127t174.5 -45.5q122 0 206 58t128 155q31 67 41 150l82 668q-21 4 -56 9.5t-52 8.5q-48 11 -42 62l14 118h430h151l-14 -118q-2 -17 -10.5 -29.5 t-19 -19.5t-29 -12.5t-31 -8t-36.5 -5.5t-36 -5l-82 -668q-24 -202 -134.5 -344t-282.5 -207q-117 -45 -256 -45q-205 0 -337.5 94.5t-175.5 263.5q-28 109 -13 238l82 668q-21 4 -52.5 9.5t-46.5 8.5q-49 11 -42 62zM431 1791h274q38 0 58 -9t40 -31l172 -202h-195 q-29 0 -45.5 5.5t-33.5 18.5z" />
<glyph unicode="&#xda;" horiz-adv-x="1593" d="M40 1328l14 118h581l-15 -118q-5 -44 -49 -58q-14 -5 -58 -12q-22 -3 -63 -10l-82 -667q-13 -110 14.5 -191.5t97 -127t174.5 -45.5q122 0 206 58t128 155q31 67 41 150l82 668q-21 4 -56 9.5t-52 8.5q-48 11 -42 62l14 118h430h151l-14 -118q-2 -17 -10.5 -29.5 t-19 -19.5t-29 -12.5t-31 -8t-36.5 -5.5t-36 -5l-82 -668q-24 -202 -134.5 -344t-282.5 -207q-117 -45 -256 -45q-205 0 -337.5 94.5t-175.5 263.5q-28 109 -13 238l82 668q-21 4 -52.5 9.5t-46.5 8.5q-49 11 -42 62zM628 1549l221 202q17 15 29.5 22.5t32 12.5t46.5 5h275 l-323 -216q-39 -26 -87 -26h-194z" />
<glyph unicode="&#xdb;" horiz-adv-x="1593" d="M40 1328l14 118h581l-15 -118q-5 -44 -49 -58q-14 -5 -58 -12q-22 -3 -63 -10l-82 -667q-13 -110 14.5 -191.5t97 -127t174.5 -45.5q122 0 206 58t128 155q31 67 41 150l82 668q-21 4 -56 9.5t-52 8.5q-48 11 -42 62l14 118h430h151l-14 -118q-2 -17 -10.5 -29.5 t-19 -19.5t-29 -12.5t-31 -8t-36.5 -5.5t-36 -5l-82 -668q-24 -202 -134.5 -344t-282.5 -207q-117 -45 -256 -45q-205 0 -337.5 94.5t-175.5 263.5q-28 109 -13 238l82 668q-21 4 -52.5 9.5t-46.5 8.5q-49 11 -42 62zM452 1549l269 219h246l215 -219h-187q-40 0 -60 16 l-93 67q-1 1 -13 11q-6 -5 -17 -11l-109 -67q-24 -16 -64 -16h-187z" />
<glyph unicode="&#xdc;" horiz-adv-x="1593" d="M40 1328l14 118h581l-15 -118q-5 -44 -49 -58q-14 -5 -58 -12q-22 -3 -63 -10l-82 -667q-13 -110 14.5 -191.5t97 -127t174.5 -45.5q122 0 206 58t128 155q31 67 41 150l82 668q-21 4 -56 9.5t-52 8.5q-48 11 -42 62l14 118h430h151l-14 -118q-2 -17 -10.5 -29.5 t-19 -19.5t-29 -12.5t-31 -8t-36.5 -5.5t-36 -5l-82 -668q-24 -202 -134.5 -344t-282.5 -207q-117 -45 -256 -45q-205 0 -337.5 94.5t-175.5 263.5q-28 109 -13 238l82 668q-21 4 -52.5 9.5t-46.5 8.5q-49 11 -42 62zM499 1718q19 36 52.5 60t76.5 24q44 0 78.5 -28.5 t42 -70t-15.5 -87.5q-21 -35 -56 -57.5t-81 -22.5q-27 0 -50.5 10.5t-38 29t-22 41.5t-4 50t17.5 51zM931 1718q19 36 54 60t79 24t77 -28.5t39.5 -70t-15.5 -87.5q-20 -35 -54 -57.5t-79 -22.5q-28 0 -51.5 10.5t-39 28.5t-23.5 41t-5 50t18 52z" />
<glyph unicode="&#xdd;" horiz-adv-x="1482" d="M42 1328l14 118h540l-14 -118q-1 -10 -5 -19t-8 -15.5t-13 -12t-13.5 -8.5t-17.5 -7t-18 -5t-21 -4.5t-20 -4.5l149 -349q30 -74 51 -157q39 83 89 157l232 349q-6 1 -18.5 4t-19 4.5t-17 5t-16 6.5t-12 8.5t-9.5 12t-5 15.5t0 20l14 118h507h33l-14 -118 q-2 -17 -10.5 -29.5t-18.5 -19.5t-28.5 -12.5t-31 -8t-37 -5.5t-35.5 -5l-492 -686l-45 -364q22 -4 53 -9.5t46 -8.5q49 -11 42 -62l-14 -118h-572l15 118q2 17 10.5 29.5t18.5 19.5t28.5 12.5t31.5 8t37 5.5t35 5l45 364l-325 686q-12 2 -46 8.5t-53 9.5q-49 11 -42 62z M576 1549l221 202q9 9 17 14.5t17.5 11t19.5 8.5t23.5 4.5t30.5 1.5h275l-323 -216q-39 -26 -87 -26h-194z" />
<glyph unicode="&#xde;" horiz-adv-x="1204" d="M37 0l178 1446h269l-31 -248h202q97 0 178 -15.5t148 -50.5t110 -88t62 -131t6 -176q-20 -169 -116.5 -280t-252.5 -161q-109 -35 -250 -35h-202l-32 -261h-269zM364 471h202q143 0 226 68.5t98 197.5q8 65 -6.5 114t-50 79t-86.5 45t-117 15h-202z" />
<glyph unicode="&#xdf;" horiz-adv-x="1173" d="M37 0l121 984q20 166 116 281.5t244 169.5q94 33 212 35.5t207 -33.5q151 -65 188 -195q11 -40 12 -77.5t-8 -69t-24 -59.5t-36.5 -51.5t-44 -42.5t-49.5 -35q-5 -3 -21.5 -13t-23 -14.5t-20 -13.5t-21.5 -15t-18.5 -14.5t-18.5 -16.5q-22 -23 -25.5 -53t17.5 -56 q27 -29 101.5 -77.5t103.5 -81.5q76 -89 60 -221q-16 -124 -91.5 -206.5t-191.5 -117.5q-74 -23 -154 -23q-183 0 -307 126l69 94q25 35 67 35q8 0 15 -1.5t13.5 -4t12.5 -5.5t12 -7t11 -7.5t11 -8l10 -7.5q64 -41 129 -41q64 0 107.5 38t50.5 97q6 47 -16 77t-62 57 q-19 12 -61 36.5t-65.5 39.5t-51 43t-43.5 60q-20 49 -12.5 110.5t32.5 101.5q47 73 137 131q94 59 135 110q30 36 30 94.5t-34 92.5q-50 47 -153 47q-57 0 -104 -15.5t-81 -42.5t-59 -67t-39.5 -87t-21.5 -104l-120 -976h-247z" />
<glyph unicode="&#xe0;" horiz-adv-x="1037" d="M36 353q0 279 191 483q194 207 478 207q156 0 275 -46l-100 -802h1q8 -1 29.5 -4.5t29.5 -5t23 -7t20.5 -12.5t9.5 -18.5t2 -27.5l-14 -118h-125h-130q-81 0 -81 74l8 140q-68 -106 -153 -167.5t-187 -61.5q-100 0 -163 56.5t-93 148.5q-21 69 -21 161zM283 397 q0 -208 127 -208q80 0 155 105q71 102 117 261l39 310q-27 3 -50 3q-164 0 -277 -141q-50 -62 -80.5 -147t-30.5 -183zM326 1462h231q26 0 43 -6t26.5 -17t18.5 -30l113 -243h-141q-20 0 -34 4t-23 11t-19 20z" />
<glyph unicode="&#xe1;" horiz-adv-x="1036" d="M36 353q0 279 191 483q194 207 478 207q156 0 275 -46l-100 -802h1q8 -1 29.5 -4.5t29.5 -5t23 -7t20.5 -12.5t9.5 -18.5t2 -27.5l-14 -118h-125h-130q-81 0 -81 74l8 140q-68 -106 -153 -167.5t-187 -61.5q-100 0 -163 56.5t-93 148.5q-21 69 -21 161zM283 397 q0 -208 127 -208q80 0 155 105q71 102 117 261l39 310q-27 3 -50 3q-164 0 -277 -141q-50 -62 -80.5 -147t-30.5 -183zM478 1166l172 243q20 28 41.5 40.5t60.5 12.5h240l-279 -261q-21 -20 -38.5 -27.5t-48.5 -7.5h-148z" />
<glyph unicode="&#xe2;" horiz-adv-x="1036" d="M36 353q0 279 191 483q194 207 478 207q156 0 275 -46l-100 -802h1q8 -1 29.5 -4.5t29.5 -5t23 -7t20.5 -12.5t9.5 -18.5t2 -27.5l-14 -118h-125h-130q-81 0 -81 74l8 140q-68 -106 -153 -167.5t-187 -61.5q-100 0 -163 56.5t-93 148.5q-21 69 -21 161zM265 1168l263 278 h232l195 -278h-165q-31 0 -48 18l-94 95q-16 19 -18 22q-3 -3 -24 -22l-118 -95q-23 -18 -52 -18h-171zM283 397q0 -208 127 -208q80 0 155 105q71 102 117 261l39 310q-27 3 -50 3q-164 0 -277 -141q-50 -62 -80.5 -147t-30.5 -183z" />
<glyph unicode="&#xe3;" horiz-adv-x="1036" d="M36 353q0 279 191 483q194 207 478 207q156 0 275 -46l-100 -802h1q8 -1 29.5 -4.5t29.5 -5t23 -7t20.5 -12.5t9.5 -18.5t2 -27.5l-14 -118h-125h-130q-81 0 -81 74l8 140q-68 -106 -153 -167.5t-187 -61.5q-100 0 -163 56.5t-93 148.5q-21 69 -21 161zM283 397 q0 -208 127 -208q80 0 155 105q71 102 117 261l39 310q-27 3 -50 3q-164 0 -277 -141q-50 -62 -80.5 -147t-30.5 -183zM295 1193q10 82 49.5 141.5t102.5 88.5q40 18 84 18q20 0 39.5 -4t38.5 -13t30.5 -15t32.5 -19.5t27 -17.5q21 -13 41 -13q35 0 52 19t21 57h150 q-10 -81 -49 -141.5t-101 -87.5q-40 -18 -85 -18q-25 0 -51.5 8.5t-39.5 14.5t-42.5 25t-33.5 21q-22 13 -42 13q-62 0 -71 -77h-153z" />
<glyph unicode="&#xe4;" horiz-adv-x="1036" d="M36 353q0 279 191 483q194 207 478 207q156 0 275 -46l-100 -802h1q8 -1 29.5 -4.5t29.5 -5t23 -7t20.5 -12.5t9.5 -18.5t2 -27.5l-14 -118h-125h-130q-81 0 -81 74l8 140q-68 -106 -153 -167.5t-187 -61.5q-100 0 -163 56.5t-93 148.5q-21 69 -21 161zM283 397 q0 -208 127 -208q80 0 155 105q71 102 117 261l39 310q-27 3 -50 3q-164 0 -277 -141q-50 -62 -80.5 -147t-30.5 -183zM318 1347q20 36 55 60.5t80 24.5t80 -29.5t42 -72.5t-17 -90q-20 -36 -56 -59t-83 -23q-35 0 -63 17t-42.5 43.5t-14 61t18.5 67.5zM692 1347 q20 36 55 60.5t81 24.5q45 0 79.5 -29.5t41.5 -72.5t-17 -90q-20 -36 -55.5 -59t-82.5 -23q-35 0 -63.5 17t-43 43.5t-14.5 61t19 67.5z" />
<glyph unicode="&#xe5;" horiz-adv-x="1036" d="M36 353q0 279 191 483q194 207 478 207q156 0 275 -46l-100 -802h1q8 -1 29.5 -4.5t29.5 -5t23 -7t20.5 -12.5t9.5 -18.5t2 -27.5l-14 -118h-125h-130q-81 0 -81 74l8 140q-68 -106 -153 -167.5t-187 -61.5q-100 0 -163 56.5t-93 148.5q-21 69 -21 161zM283 397 q0 -208 127 -208q80 0 155 105q71 102 117 261l39 310q-27 3 -50 3q-164 0 -277 -141q-50 -62 -80.5 -147t-30.5 -183zM415 1243q-24 65 2.5 129t74.5 102q71 57 161 57q48 0 87.5 -15.5t65.5 -43t40 -63.5q12 -37 10.5 -70.5t-15.5 -64.5t-32.5 -54.5t-40.5 -39.5 q-72 -56 -165 -56q-35 0 -65.5 8.5t-54.5 24.5t-41.5 37.5t-26.5 48.5zM541 1325q-5 -41 17 -65t63 -24q40 0 67 25.5t32 63.5q5 42 -16 66.5t-61 24.5q-44 0 -70.5 -24.5t-31.5 -66.5z" />
<glyph unicode="&#xe6;" horiz-adv-x="1491" d="M36 232q0 154 128 251q162 122 479 122q8 73 8 95q0 154 -130 154q-23 0 -46 -4t-37.5 -7.5t-37.5 -14.5t-30 -15t-33 -19.5t-29 -16.5q-24 -15 -53 -15q-46 0 -64 43l-33 77q88 78 179 120t211 42q198 0 258 -156q132 153 334 153q66 0 122 -21t94.5 -57t61.5 -83 q23 -48 23 -102q0 -73 -30.5 -123.5t-84.5 -88.5q-151 -108 -476 -108q0 -282 205 -282q39 0 71.5 6.5t62 21t47 25.5t47.5 33q2 2 3 2.5t2.5 2t3 2.5t2.5 2q25 17 54 17q28 0 44 -22l63 -76q-48 -48 -88 -80.5t-95 -63.5t-121 -46t-145 -15q-109 0 -185 54t-118 146 q-58 -91 -151.5 -146t-218.5 -55q-93 0 -158 25.5t-102 81.5t-37 141zM266 262q0 -28 7.5 -49.5t21.5 -36t35 -22t49 -7.5q45 0 82.5 14t64 38.5t46 59t30.5 72.5t17 82l5 46q-192 0 -284 -60q-74 -48 -74 -137zM861 597q68 6 115 12.5t95.5 19.5t83.5 32q23 13 37.5 26 t24 33.5t9.5 45.5q0 50 -31 76.5t-86 26.5q-200 0 -248 -272z" />
<glyph unicode="&#xe7;" horiz-adv-x="959" d="M43 515q14 118 59.5 214t117.5 165t167 108q98 40 219 40q124 0 314 -74l-39 -316h-115q-39 0 -42 38q-2 25 1 144q-75 20 -127 20q-59 0 -106.5 -18t-80.5 -49t-57 -75t-37.5 -92t-20.5 -105q-11 -71 -2.5 -133.5t31.5 -108.5t70 -73t113 -27q47 0 88.5 13t63.5 26 t58 40q20 14 43 14q30 0 43 -23l60 -90q-142 -145 -354 -164l-17 -44q36 -9 61 -20t46.5 -27.5t30.5 -42t5 -58.5q-5 -38 -29 -67.5t-61.5 -46t-80 -24.5t-90.5 -8q-74 0 -144 23l32 76q9 23 31 23q13 0 37 -7t41 -7q29 0 49 11t23 32q3 29 -31.5 41.5t-108.5 22.5 q13 30 19 45l35 81q-171 31 -256 170t-59 353z" />
<glyph unicode="&#xe8;" horiz-adv-x="943" d="M37 411q0 121 34 226.5t90.5 181.5t132.5 130q129 91 289 91q110 0 189.5 -44t113.5 -120q20 -45 20 -88q0 -55 -15.5 -98.5t-42.5 -73.5t-68 -56q-86 -55 -206.5 -83t-295.5 -46v-13q0 -242 205 -242q107 0 183 56q49 35 73 47q17 9 37 9q28 0 44 -22l63 -76 q-48 -48 -88 -80.5t-95 -63.5t-121 -46t-145 -15q-140 0 -233.5 68t-135.5 183q-28 78 -28 175zM289 1462h231q27 0 44 -6t26.5 -17t18.5 -30l113 -243h-141q-30 0 -45.5 7.5t-31.5 27.5zM298 589q120 16 190.5 32.5t125.5 48.5q36 20 52.5 44.5t16.5 64.5q0 42 -32.5 65.5 t-81.5 23.5q-148 0 -230 -167q-26 -51 -41 -112z" />
<glyph unicode="&#xe9;" horiz-adv-x="990" d="M37 411q0 121 34 226.5t90.5 181.5t132.5 130q129 91 289 91q110 0 189.5 -44t113.5 -120q20 -45 20 -88q0 -55 -15.5 -98.5t-42.5 -73.5t-68 -56q-86 -55 -206.5 -83t-295.5 -46v-13q0 -242 205 -242q107 0 183 56q49 35 73 47q17 9 37 9q28 0 44 -22l63 -76 q-48 -48 -88 -80.5t-95 -63.5t-121 -46t-145 -15q-140 0 -233.5 68t-135.5 183q-28 78 -28 175zM298 589q120 16 190.5 32.5t125.5 48.5q36 20 52.5 44.5t16.5 64.5q0 42 -32.5 65.5t-81.5 23.5q-148 0 -230 -167q-26 -51 -41 -112zM442 1166l172 243q19 28 40.5 40.5 t60.5 12.5h240l-279 -261q-21 -20 -38 -27.5t-48 -7.5h-148z" />
<glyph unicode="&#xea;" horiz-adv-x="953" d="M37 411q0 121 34 226.5t90.5 181.5t132.5 130q129 91 289 91q110 0 189.5 -44t113.5 -120q20 -45 20 -88q0 -55 -15.5 -98.5t-42.5 -73.5t-68 -56q-86 -55 -206.5 -83t-295.5 -46v-13q0 -242 205 -242q107 0 183 56q49 35 73 47q17 9 37 9q28 0 44 -22l63 -76 q-48 -48 -88 -80.5t-95 -63.5t-121 -46t-145 -15q-140 0 -233.5 68t-135.5 183q-28 78 -28 175zM228 1168l263 278h232l195 -278h-165q-31 0 -48 18l-93 95q-16 19 -18 22q-3 -3 -24 -22l-119 -95q-22 -18 -52 -18h-171zM298 589q120 16 190.5 32.5t125.5 48.5 q24 14 38 27.5t22.5 33.5t8.5 48q0 42 -32.5 65.5t-81.5 23.5q-148 0 -230 -167q-26 -51 -41 -112z" />
<glyph unicode="&#xeb;" horiz-adv-x="952" d="M36 411q0 121 34 226.5t90.5 181.5t132.5 130q129 91 289 91q110 0 189.5 -44t113.5 -120q20 -45 20 -88q0 -82 -31.5 -135t-94.5 -93q-86 -55 -206.5 -83t-295.5 -46v-13q0 -242 205 -242q107 0 183 56q49 35 73 47q17 9 37 9q28 0 44 -22l63 -76q-48 -48 -88 -80.5 t-95 -63.5t-121 -46t-145 -15q-140 0 -233.5 68t-135.5 183q-28 78 -28 175zM280 1347q20 36 55.5 60.5t80.5 24.5t79.5 -29.5t42 -72t-16.5 -90.5q-20 -36 -56.5 -59t-82.5 -23q-35 0 -63.5 17t-42.5 43.5t-14 61t18 67.5zM297 589q120 16 190.5 32.5t125.5 48.5 q36 20 52.5 44.5t16.5 64.5q0 42 -32.5 65.5t-81.5 23.5q-148 0 -230 -167q-26 -51 -41 -112zM654 1347q21 36 55.5 60.5t81.5 24.5q45 0 79.5 -29.5t41.5 -72.5t-17 -90q-20 -36 -56 -59t-82 -23q-36 0 -64 17t-43 43.5t-14.5 61t18.5 67.5z" />
<glyph unicode="&#xec;" horiz-adv-x="538" d="M39 908l14 118h399l-102 -828q20 -3 52 -9t47 -9q49 -11 43 -62l-15 -118h-398q4 35 101 828q-19 3 -99 18q-49 11 -42 62zM69 1462h231q39 0 57.5 -12t31.5 -41l113 -243h-141q-30 0 -46 7.5t-31 27.5z" />
<glyph unicode="&#xed;" horiz-adv-x="770" d="M39 908l14 118h399l-102 -828q20 -3 52 -9t47 -9q49 -11 43 -62l-15 -118h-398q4 35 101 828q-19 3 -99 18q-49 11 -42 62zM222 1166l172 243q19 28 40.5 40.5t60.5 12.5h240l-279 -261q-14 -13 -24 -20t-25.5 -11t-36.5 -4h-148z" />
<glyph unicode="&#xee;" horiz-adv-x="759" d="M34 1168l263 278h232l195 -278h-165q-31 0 -48 18l-93 95q-17 19 -18 22q-3 -3 -24 -22l-119 -95q-23 -18 -52 -18h-171zM65 908l14 118h399l-102 -828q17 -3 35 -6.5t34.5 -6.5t29.5 -5q49 -11 43 -62l-15 -118h-398q4 35 101 828q-20 3 -99 18q-49 11 -42 62z" />
<glyph unicode="&#xef;" horiz-adv-x="733" d="M40 908l14 118h399l-102 -828q20 -3 52 -9t47 -9q49 -11 43 -62l-15 -118h-398q4 35 101 828q-19 3 -99 18q-49 11 -42 62zM62 1346q20 37 55 61.5t81 24.5q45 0 79.5 -29.5t42 -72.5t-16.5 -91q-20 -35 -56.5 -58t-82.5 -23q-35 0 -63.5 17t-43 43.5t-14 61t18.5 66.5z M436 1346q13 24 31.5 42.5t46 31t59.5 12.5q45 0 79 -29.5t41.5 -72.5t-16.5 -91q-20 -35 -56 -58t-82 -23q-36 0 -64.5 17t-43 43.5t-14 61t18.5 66.5z" />
<glyph unicode="&#xf0;" horiz-adv-x="1106" d="M53 269q-21 81 -18 157t28.5 146.5t61.5 126t80 96.5q146 136 348 136q189 0 297 -135q-8 110 -49.5 185t-117.5 131l-213 -128l-37 78q-11 28 -2 48t34 33l80 43q-45 20 -136 46q-37 11 -45.5 43.5t9.5 71.5l40 85q211 -36 355 -128l190 114l39 -80q10 -28 1.5 -47 t-29.5 -30l-87 -46q104 -105 152 -257.5t23 -349.5q-26 -215 -116.5 -365.5t-247.5 -215.5q-101 -42 -225 -42q-163 0 -269.5 75t-145.5 209zM289 344q18 -79 70 -125t138 -46q55 0 100 16t77.5 46t55.5 65.5t42 81.5q31 74 47 180q-24 83 -83.5 132t-155.5 49t-162.5 -45 t-101.5 -120q-22 -47 -30.5 -110.5t3.5 -123.5z" />
<glyph unicode="&#xf1;" horiz-adv-x="1180" d="M39 908l14 118h152h151q48 0 57 -45l7 -81q73 66 151 104t184 38q164 0 242 -104.5t56 -284.5l-56 -455q21 -3 52 -9t47 -9q49 -11 43 -62l-15 -118h-398l80 653q11 94 -26 145.5t-124 51.5q-70 0 -127 -29t-112 -79q-5 -43 -14.5 -118t-17 -138t-14.5 -118 q-23 -184 -45 -368h-247q23 193 101 828q-17 3 -49 9t-50 9q-49 11 -42 62zM353 1193q10 82 50 141.5t103 88.5q40 18 84 18q13 0 26 -2t23.5 -5t22.5 -8t21 -9.5t20 -11t19 -11.5t18 -11.5t17 -10.5q22 -13 42 -13q34 0 51 19t22 57h150q-10 -81 -49.5 -141.5t-101.5 -87.5 q-39 -18 -84 -18q-25 0 -52 8.5t-39.5 14.5t-42.5 25t-33 21q-22 13 -42 13q-62 0 -72 -77h-153z" />
<glyph unicode="&#xf2;" horiz-adv-x="1106" d="M52 295q-19 74 -14.5 156t22.5 154t46 129q70 141 198.5 224.5t311.5 83.5q232 0 352 -140.5t90 -386.5q-15 -121 -62 -219t-122 -167.5t-174 -106.5q-98 -37 -213 -37q-176 0 -287 81.5t-148 228.5zM297 513q-41 -338 213 -338q57 0 103 17t77.5 47t55 73.5t36.5 92.5 t20 108q42 340 -209 340q-254 0 -296 -340zM349 1462h231q38 0 56.5 -12t31.5 -41l114 -243h-141q-21 0 -34.5 4t-23 11t-19.5 20z" />
<glyph unicode="&#xf3;" horiz-adv-x="1106" d="M52 295q-19 74 -14.5 156t22.5 154t46 129q70 141 198.5 224.5t311.5 83.5q232 0 352 -140.5t90 -386.5q-15 -121 -62 -219t-122 -167.5t-174 -106.5q-98 -37 -213 -37q-176 0 -287 81.5t-148 228.5zM297 513q-41 -338 213 -338q57 0 103 17t77.5 47t55 73.5t36.5 92.5 t20 108q42 340 -209 340q-254 0 -296 -340zM502 1166l171 243q20 28 41.5 40.5t60.5 12.5h240l-279 -261q-21 -20 -38.5 -27.5t-47.5 -7.5h-148z" />
<glyph unicode="&#xf4;" horiz-adv-x="1106" d="M52 295q-19 74 -14.5 156t22.5 154t46 129q70 141 198.5 224.5t311.5 83.5q232 0 352 -140.5t90 -386.5q-15 -121 -62 -219t-122 -167.5t-174 -106.5q-98 -37 -213 -37q-176 0 -287 81.5t-148 228.5zM288 1168l263 278h232l195 -278h-165q-31 0 -48 18l-93 95 q-17 19 -19 22q-2 -3 -23 -22l-119 -95q-23 -18 -52 -18h-171zM297 513q-41 -338 213 -338q57 0 103 17t77.5 47t55 73.5t36.5 92.5t20 108q42 340 -209 340q-254 0 -296 -340z" />
<glyph unicode="&#xf5;" horiz-adv-x="1106" d="M52 295q-19 74 -14.5 156t22.5 154t46 129q70 141 198.5 224.5t311.5 83.5q232 0 352 -140.5t90 -386.5q-15 -121 -62 -219t-122 -167.5t-174 -106.5q-98 -37 -213 -37q-176 0 -287 81.5t-148 228.5zM297 513q-41 -338 213 -338q57 0 103 17t77.5 47t55 73.5t36.5 92.5 t20 108q42 340 -209 340q-254 0 -296 -340zM318 1193q10 82 50 141.5t103 88.5q39 18 83 18q21 0 40 -4t38.5 -13t30.5 -15t32 -19.5t27 -17.5q21 -13 41 -13q35 0 52 19t22 57h150q-10 -81 -49.5 -141.5t-101.5 -87.5q-40 -18 -85 -18q-25 0 -51.5 8.5t-39.5 14.5t-42.5 25 t-33.5 21q-22 13 -42 13q-62 0 -71 -77h-153z" />
<glyph unicode="&#xf6;" horiz-adv-x="1106" d="M52 295q-19 74 -14.5 156t22.5 154t46 129q70 141 198.5 224.5t311.5 83.5q232 0 352 -140.5t90 -386.5q-15 -121 -62 -219t-122 -167.5t-174 -106.5q-98 -37 -213 -37q-176 0 -287 81.5t-148 228.5zM297 513q-41 -338 213 -338q57 0 103 17t77.5 47t55 73.5t36.5 92.5 t20 108q42 340 -209 340q-254 0 -296 -340zM341 1346q20 37 55 61.5t80 24.5q46 0 80.5 -29.5t42 -72t-16.5 -91.5q-20 -35 -56.5 -58t-82.5 -23q-36 0 -64 17t-42.5 43.5t-14 61t18.5 66.5zM715 1346q20 37 55 61.5t81 24.5q34 0 63 -17t44 -44.5t16.5 -62t-18.5 -69.5 q-21 -35 -56.5 -58t-81.5 -23q-36 0 -64.5 17t-43 43.5t-14 61t18.5 66.5z" />
<glyph unicode="&#xf7;" horiz-adv-x="1077" d="M40 580l22 183h976l-22 -183h-976zM362 374q22 40 60.5 66t90.5 26q64 0 103 -42.5t30 -108.5q-7 -64 -54.5 -107t-115.5 -43q-65 0 -103 43q-26 30 -29 78.5t18 87.5zM450 1086q21 40 60 66t90 26q64 0 103 -42.5t31 -108.5q-8 -64 -55.5 -107t-115.5 -43q-65 0 -102 43 q-27 30 -30 78.5t19 87.5z" />
<glyph unicode="&#xf8;" horiz-adv-x="1288" d="M34 -77l180 209q-119 142 -89 383q11 91 40.5 169t75.5 139.5t107.5 107.5t136.5 74q98 37 213 37q143 0 247 -58l65 75q16 19 24 26.5t23 19t32.5 16t41.5 4.5h122l-200 -232q115 -143 87 -378q-23 -182 -116 -309t-242 -184q-98 -37 -213 -37q-142 0 -247 57l-40 -47 q-63 -72 -157 -72h-91zM363 513q-14 -119 8 -197l439 510q-52 34 -134 34q-72 0 -128.5 -27t-93.5 -75.5t-59 -109.5t-32 -135zM457 199q51 -32 134 -32q71 0 127 27t92.5 75.5t58.5 109t31 134.5q14 114 -7 193z" />
<glyph unicode="&#xf9;" horiz-adv-x="1180" d="M39 908l14 118h152h247l-80 -652q-12 -94 25.5 -145.5t123.5 -51.5q70 0 127 29t113 78l66 544q-36 6 -57.5 10t-29 5.5l-12.5 2.5q-48 11 -42 62l14 118h399l-102 -828q29 -5 48.5 -8.5t27 -5t13.5 -2.5t10 -2q49 -11 43 -62l-15 -118h-302q-48 0 -58 45l-7 82 q-75 -67 -152 -105t-182 -38q-164 0 -242.5 105t-55.5 285l55 454q-36 6 -57.5 10t-29.5 5.5t-12 2.5q-49 11 -42 62zM393 1462h231q39 0 57.5 -12t31.5 -41l113 -243h-141q-30 0 -46 7.5t-31 27.5z" />
<glyph unicode="&#xfa;" horiz-adv-x="1180" d="M39 908l14 118h152h247l-80 -652q-12 -94 25.5 -145.5t123.5 -51.5q70 0 127 29t113 78l66 544q-36 6 -57.5 10t-29 5.5l-12.5 2.5q-48 11 -42 62l14 118h399l-102 -828q29 -5 48.5 -8.5t27 -5t13.5 -2.5t10 -2q49 -11 43 -62l-15 -118h-302q-48 0 -58 45l-7 82 q-75 -67 -152 -105t-182 -38q-164 0 -242.5 105t-55.5 285l55 454q-36 6 -57.5 10t-29.5 5.5t-12 2.5q-49 11 -42 62zM546 1166l172 243q9 14 17.5 23t20.5 16t27.5 10.5t35.5 3.5h240l-279 -261q-21 -20 -38 -27.5t-48 -7.5h-148z" />
<glyph unicode="&#xfb;" horiz-adv-x="1180" d="M39 908l14 118h152h247l-80 -652q-12 -94 25.5 -145.5t123.5 -51.5q70 0 127 29t113 78l66 544q-36 6 -57.5 10t-29 5.5l-12.5 2.5q-48 11 -42 62l14 118h399l-102 -828q29 -5 48.5 -8.5t27 -5t13.5 -2.5t10 -2q49 -11 43 -62l-15 -118h-302q-48 0 -58 45l-7 82 q-75 -67 -152 -105t-182 -38q-164 0 -242.5 105t-55.5 285l55 454q-36 6 -57.5 10t-29.5 5.5t-12 2.5q-49 11 -42 62zM332 1168l263 278h232l195 -278h-165q-31 0 -48 18l-93 95q-16 19 -18 22q-3 -4 -24 -22l-119 -95q-23 -18 -52 -18h-171z" />
<glyph unicode="&#xfc;" horiz-adv-x="1180" d="M39 908l14 118h152h247l-80 -652q-12 -94 25.5 -145.5t123.5 -51.5q70 0 127 29t113 78l66 544q-36 6 -57.5 10t-29 5.5l-12.5 2.5q-48 11 -42 62l14 118h399l-102 -828q29 -5 48.5 -8.5t27 -5t13.5 -2.5t10 -2q49 -11 43 -62l-15 -118h-302q-48 0 -58 45l-7 82 q-75 -67 -152 -105t-182 -38q-164 0 -242.5 105t-55.5 285l55 454q-36 6 -57.5 10t-29.5 5.5t-12 2.5q-49 11 -42 62zM385 1346q20 37 55 61.5t80 24.5q46 0 80.5 -29.5t42 -72.5t-16.5 -91q-13 -22 -32.5 -40t-47.5 -29.5t-59 -11.5q-35 0 -63.5 17t-43 43.5t-14 61 t18.5 66.5zM759 1346q20 37 55 61.5t81 24.5q34 0 63 -17t44 -44.5t16.5 -62t-18.5 -69.5q-13 -22 -32 -40t-47 -29.5t-59 -11.5q-36 0 -64.5 17t-43 43.5t-14 61t18.5 66.5z" />
<glyph unicode="&#xfd;" horiz-adv-x="1260" d="M40 908l14 118h58h216h1h225l-15 -118q-1 -15 -7 -26.5t-12.5 -18t-21 -11.5t-24.5 -7t-31 -6q-2 0 -3 -0.5t-3 -0.5t-3 -1l112 -389q14 -45 20 -110q19 48 52 111l196 385q-9 1 -26 4q-21 4 -30.5 5.5t-23 6.5t-18.5 12t-8.5 18.5t-1.5 27.5l15 118h241h198h61l-15 -118 q-6 -51 -58 -62q-4 -1 -9.5 -2t-11.5 -2t-25.5 -4.5t-49.5 -8.5l-611 -1111q-15 -27 -34 -40t-55 -13h-184l243 411l-237 753q-23 4 -39.5 7t-24.5 4.5t-12.5 2.5t-8 1.5t-7.5 1.5q-49 11 -42 62zM545 1166l171 243q20 28 41.5 40.5t60.5 12.5h240l-279 -261 q-21 -20 -38 -27.5t-48 -7.5h-148z" />
<glyph unicode="&#xfe;" horiz-adv-x="1134" d="M34 -335l224 1821h247l-72 -586q70 67 150 104.5t185 37.5q77 0 137 -26.5t97.5 -74t60.5 -113t26 -143t-6 -164.5q-21 -174 -104 -304t-215 -191q-87 -41 -188 -41q-85 0 -141.5 30t-99.5 87l-54 -437h-247zM355 266q32 -47 76 -70t110 -23q244 0 287 348q6 46 7 85 t-3 77.5t-16.5 68t-32 52t-51 34.5t-72.5 12q-81 0 -137.5 -32t-111.5 -92z" />
<glyph unicode="&#xff;" horiz-adv-x="1260" d="M40 908l14 118h58h216h1h225l-15 -118q-1 -15 -7 -26.5t-12.5 -18t-21 -11.5t-24.5 -7t-31 -6q-2 0 -3 -0.5t-3 -0.5t-3 -1l112 -389q14 -45 20 -110q19 48 52 111l196 385q-9 1 -26 4q-21 4 -30.5 5.5t-23 6.5t-18.5 12t-8.5 18.5t-1.5 27.5l15 118h241h198h61l-15 -118 q-6 -51 -58 -62q-4 -1 -9.5 -2t-11.5 -2t-25.5 -4.5t-49.5 -8.5l-611 -1111q-15 -27 -34 -40t-55 -13h-184l243 411l-237 753q-23 4 -39.5 7t-24.5 4.5t-12.5 2.5t-8 1.5t-7.5 1.5q-49 11 -42 62zM384 1346q20 37 55 61.5t80 24.5q46 0 80.5 -29.5t42 -72.5t-16.5 -91 q-13 -22 -32.5 -40t-47.5 -29.5t-59 -11.5q-36 0 -64 17t-42.5 43.5t-14 61t18.5 66.5zM758 1346q20 37 55 61.5t81 24.5t80 -29.5t41 -72.5t-16 -91q-20 -35 -56 -58t-82 -23q-36 0 -64.5 17t-43 43.5t-14 61t18.5 66.5z" />
<glyph unicode="&#x152;" horiz-adv-x="2181" d="M47.5 723q19.5 162 83.5 297.5t163 233t228 153.5q128 55 276 55q284 0 444 -201l22 185h880q-3 -24 -8 -67.5t-9.5 -79t-8.5 -67.5l-20 -165h-115q-39 0 -42 37q-2 23 1 128h-465l-49 -401h488l-25 -207h-489l-50 -409h465q23 106 30 129q13 38 51 38h116 q-15 -121 -30 -241l-17 -141h-880l22 185q-209 -200 -492 -200q-150 0 -264 56t-188 154q-74 96 -105.5 231t-12 297zM325 509q24 -141 111 -221.5t236 -80.5q95 0 176 36q84 38 146.5 109t99 163.5t51.5 207.5q21 176 -24.5 301t-154.5 180q-72 36 -167 36 q-81 0 -150 -23.5t-120 -67t-87.5 -95.5t-64.5 -116q-17 -42 -30.5 -92t-22 -108t-8.5 -115.5t9 -113.5z" />
<glyph unicode="&#x153;" horiz-adv-x="1565" d="M37 359q0 234 90.5 400t253.5 238q100 44 208 44q194 0 281 -159q138 159 357 159q102 0 174 -40t104 -113q22 -47 22 -104q0 -78 -31.5 -131t-92.5 -93q-83 -54 -201 -82.5t-287 -45.5q6 -256 205 -256q38 0 70.5 6.5t61.5 21t46 25t47 32.5q9 6 13 9q25 18 54 18 q28 0 45 -22l63 -76q-48 -48 -88 -80.5t-95 -63t-121 -46t-145 -15.5q-107 0 -182.5 52.5t-116.5 141.5q-152 -194 -395 -194q-123 0 -203.5 63.5t-114.5 167.5q-22 68 -22 143zM277 372q0 -93 38.5 -148.5t120.5 -55.5q40 0 74 10.5t60 30.5t46.5 44.5t36.5 56.5t26.5 62.5 t19.5 66.5q24 98 24 206q0 64 -14.5 109.5t-50.5 74t-91 28.5q-134 0 -213 -134q-77 -131 -77 -351zM925 582q110 15 185.5 33.5t133.5 51.5q37 21 57 46t20 62q0 46 -37 70.5t-96 24.5q-57 0 -103.5 -23.5t-78 -64.5t-51.5 -91t-30 -109z" />
<glyph unicode="&#x178;" horiz-adv-x="1481" d="M42 1328l14 118h540l-14 -118q-1 -10 -5 -19t-8 -15.5t-13 -12t-13.5 -8.5t-17.5 -7t-18 -5t-21 -4.5t-20 -4.5l149 -349q30 -74 51 -157q39 83 89 157l232 349q-6 1 -18.5 4t-19 4.5t-17 5t-16 6.5t-12 8.5t-9.5 12t-5 15.5t0 20l14 118h507h33l-14 -118 q-2 -17 -10.5 -29.5t-18.5 -19.5t-28.5 -12.5t-31 -8t-37 -5.5t-35.5 -5l-492 -686l-45 -364q22 -4 53 -9.5t46 -8.5q49 -11 42 -62l-14 -118h-572l15 118q2 17 10.5 29.5t18.5 19.5t28.5 12.5t31.5 8t37 5.5t35 5l45 364l-325 686q-12 2 -46 8.5t-53 9.5q-49 11 -42 62z M447 1718q20 36 53.5 60t76.5 24q44 0 78 -28.5t42 -70t-16 -87.5q-13 -22 -31.5 -39.5t-46 -29t-59.5 -11.5q-34 0 -60.5 16.5t-40.5 42.5t-13.5 59t17.5 64zM879 1718q20 36 55 60t79 24t77 -28.5t39.5 -70t-15.5 -87.5q-20 -35 -54 -57.5t-80 -22.5q-27 0 -51 10.5 t-39.5 28.5t-23 41t-4.5 50t17 52z" />
<glyph unicode="&#x2c6;" horiz-adv-x="797" d="M54 1168l263 278h232l195 -278h-165q-31 0 -48 18l-93 95q-17 19 -18 22q-3 -4 -24 -22l-119 -95q-23 -18 -52 -18h-171z" />
<glyph unicode="&#x2dc;" horiz-adv-x="781" d="M58 1193q10 82 50 141.5t103 88.5q39 18 83 18q15 0 29.5 -2.5t28 -7t24.5 -9t23.5 -12t21.5 -13t21.5 -13.5t19.5 -12q21 -13 41 -13q24 0 39.5 9t23.5 25.5t11 41.5h150q-10 -81 -49.5 -141.5t-101.5 -87.5q-40 -18 -85 -18q-25 0 -51.5 8.5t-39.5 14.5t-42.5 25 t-33.5 21q-22 13 -42 13q-62 0 -71 -77h-153z" />
<glyph unicode="&#x2000;" horiz-adv-x="937" />
<glyph unicode="&#x2001;" horiz-adv-x="1874" />
<glyph unicode="&#x2002;" horiz-adv-x="937" />
<glyph unicode="&#x2003;" horiz-adv-x="1874" />
<glyph unicode="&#x2004;" horiz-adv-x="624" />
<glyph unicode="&#x2005;" horiz-adv-x="468" />
<glyph unicode="&#x2006;" horiz-adv-x="312" />
<glyph unicode="&#x2007;" horiz-adv-x="312" />
<glyph unicode="&#x2008;" horiz-adv-x="234" />
<glyph unicode="&#x2009;" horiz-adv-x="374" />
<glyph unicode="&#x200a;" horiz-adv-x="104" />
<glyph unicode="&#x2010;" horiz-adv-x="662" d="M59 501l25 206h518l-25 -206h-518z" />
<glyph unicode="&#x2011;" horiz-adv-x="662" d="M59 501l25 206h518l-25 -206h-518z" />
<glyph unicode="&#x2012;" horiz-adv-x="662" d="M59 501l25 206h518l-25 -206h-518z" />
<glyph unicode="&#x2013;" horiz-adv-x="954" d="M60 512l21 175h811l-21 -175h-811z" />
<glyph unicode="&#x2014;" horiz-adv-x="1500" d="M60 512l21 175h1357l-21 -175h-1357z" />
<glyph unicode="&#x2018;" horiz-adv-x="426" d="M94 977q-36 74 -41.5 148t13 135.5t56 119.5t80.5 101t93 79l71 -47q12 -8 14.5 -19t-4 -23t-13.5 -21t-18.5 -20.5t-12.5 -13.5q-91 -107 -72 -228q7 -38 27 -80q12 -26 1 -45t-37 -28z" />
<glyph unicode="&#x2019;" horiz-adv-x="424" d="M61 996q-9 6 -12.5 13.5t-2 15.5t5.5 16t10.5 16.5t12.5 14.5l12.5 12.5l8.5 8.5q90 105 70 227q-6 39 -27 82q-12 26 -0.5 44.5t37.5 27.5l156 58q55 -109 41 -224q-25 -200 -240 -359z" />
<glyph unicode="&#x201a;" horiz-adv-x="443" d="M68 -245q-10 7 -13 16t-0.5 18t9.5 19.5t13.5 17.5t15 15.5l10.5 10.5q90 105 70 228q-6 38 -27 81q-12 26 -0.5 44.5t37.5 27.5l156 58q55 -109 41 -224q-25 -200 -240 -359z" />
<glyph unicode="&#x201c;" horiz-adv-x="758" d="M94 977q-36 74 -41.5 148t13 135.5t56 119.5t80.5 101t93 79l71 -47q12 -8 14.5 -19t-4 -23t-13.5 -21t-18.5 -20.5t-12.5 -13.5q-91 -107 -72 -228q7 -38 27 -80q12 -26 1 -45t-37 -28zM426 977q-30 62 -39 124t1.5 116.5t33 104.5t57 94t71 79t77.5 65l71 -47 q12 -8 14.5 -19t-4 -23t-13.5 -21t-18.5 -20.5t-12.5 -13.5q-91 -107 -72 -228q7 -38 27 -80q12 -26 1 -45t-37 -28z" />
<glyph unicode="&#x201d;" horiz-adv-x="756" d="M61 996q-12 8 -14.5 19t4.5 23.5t13.5 21t18.5 20.5l13 13q91 102 70 227q-6 39 -27 82q-12 26 -0.5 44.5t37.5 27.5l156 58q55 -109 41 -224q-25 -200 -240 -359zM393 996q-12 8 -14.5 19t4.5 23.5t13.5 21t18.5 20.5l13 13q91 102 70 227q-6 39 -27 82 q-12 26 -0.5 44.5t37.5 27.5l156 58q55 -109 41 -224q-25 -200 -240 -359z" />
<glyph unicode="&#x201e;" horiz-adv-x="775" d="M68 -245q-10 7 -13 16t-0.5 18t9.5 19.5t13.5 17.5t15 15.5l10.5 10.5q91 102 70 227q-6 39 -27 82q-12 26 -0.5 44.5t37.5 27.5l156 58q55 -109 41 -224q-25 -200 -240 -359zM400 -245q-12 8 -14.5 19t4.5 23.5t13.5 21t18.5 20.5l13 13q91 102 70 227q-6 39 -27 82 q-12 26 -0.5 44.5t37.5 27.5l156 58q55 -109 41 -224q-25 -200 -240 -359z" />
<glyph unicode="&#x2022;" horiz-adv-x="978" d="M66 426q-18 57 -18 116t14 109.5t39 98t54.5 84.5t62.5 67q142 127 323 127q140 0 236 -73.5t134 -192.5q18 -57 18 -116t-14 -109.5t-39 -98t-54.5 -84t-62.5 -66.5q-64 -57 -146.5 -92t-178.5 -35q-139 0 -234.5 73.5t-133.5 191.5z" />
<glyph unicode="&#x2026;" horiz-adv-x="1489" d="M76 195q21 40 60.5 66t91.5 26q63 0 101.5 -42.5t30.5 -108.5q-8 -64 -54.5 -107t-114.5 -43q-65 0 -103 43q-27 30 -30 78.5t18 87.5zM610 195q21 40 60.5 66t91.5 26q63 0 101.5 -42.5t30.5 -108.5q-8 -64 -54.5 -107t-114.5 -43q-65 0 -103 43q-27 30 -30 78.5 t18 87.5zM1144 195q21 40 60.5 66t91.5 26q63 0 101.5 -42.5t30.5 -108.5q-8 -64 -54.5 -107t-114.5 -43q-65 0 -103 43q-27 30 -30 78.5t18 87.5z" />
<glyph unicode="&#x202f;" horiz-adv-x="374" />
<glyph unicode="&#x2039;" horiz-adv-x="513" d="M48 522l4 32l305 396l76 -38q28 -13 30.5 -42t-17.5 -55l-167 -235q-17 -26 -37 -42q14 -14 27 -42l109 -236q14 -34 4 -58t-41 -38l-86 -38z" />
<glyph unicode="&#x203a;" horiz-adv-x="514" d="M67 260l167 236q19 28 37 42q-16 16 -27 42l-109 235q-15 34 -4.5 58.5t41.5 38.5l85 38l208 -396l-4 -32l-305 -396l-76 38q-28 13 -31 41.5t18 54.5z" />
<glyph unicode="&#x205f;" horiz-adv-x="468" />
<glyph unicode="&#x20ac;" horiz-adv-x="1265" d="M42 539l17 137h116q0 11 2 23q9 74 12 91h-116l17 138h133q55 177 160.5 306t257.5 188q96 38 203 38q258 0 380 -198l-99 -94q-46 -45 -80 -20q-8 6 -37.5 33.5t-50.5 38.5q-51 28 -128 28q-118 0 -209 -81t-142 -239h502l-10 -76q-3 -25 -25 -43.5t-51 -18.5h-450 q-3 -17 -5 -34q-9 -69 -9 -80h424l-9 -75q-3 -25 -25.5 -43.5t-50.5 -18.5h-344q3 -76 19 -136t46.5 -107t80.5 -72.5t117 -25.5q82 0 136 27.5t110 78.5q21 20 43 20t34 -17l94 -98q-171 -223 -456 -223q-120 0 -212 40.5t-149 115t-87 174.5t-32 223h-127z" />
<glyph unicode="&#x2122;" horiz-adv-x="1408" d="M50 1306l17 140h498l-17 -140h-164l-57 -463h-171l57 463h-163zM563 843l74 603h147q27 0 36 -4t16 -22l100 -255q12 -38 17 -71q20 44 38 71l164 255q8 12 15 17t16 7t27 2h147l-74 -603h-150l37 302l23 99l-190 -302q-23 -37 -62 -37h-24q-41 0 -55 37l-114 297l-1 -94 l-37 -302h-150z" />
<glyph unicode="&#x25fc;" horiz-adv-x="1025" d="M0 0v1025h1025v-1025h-1025z" />
</font>
</defs>
</svg>
