<?xml version="1.0" encoding="UTF-8"?>
<svg width="162.15" height="162.15" enable-background="new 0 0 694.35 162.148" version="1.1" viewBox="0 0 162.15201 162.14802" xml:space="preserve" xmlns="http://www.w3.org/2000/svg"><path d="m152.54 57.793-48.182-48.18c-6.41-6.412-14.875-9.613-23.297-9.611-8.418-2e-3 -16.875 3.207-23.275 9.611l-48.182 48.18c-6.398 6.393-9.611 14.838-9.609 23.252-2e-3 8.424 3.195 16.898 9.611 23.314l48.182 48.18c6.398 6.4 14.855 9.611 23.277 9.609h0.016c8.414 0 16.871-3.205 23.277-9.609l48.18-48.18c6.408-6.41 9.613-14.875 9.609-23.295 4e-3 -8.416-3.207-16.871-9.607-23.271z" fill="#0092c8"/><linearGradient id="SVGID_1_" x1="13.633" x2="148.52" y1="109.71" y2="52.448" gradientTransform="translate(3.7488e-6)" gradientUnits="userSpaceOnUse"><stop stop-color="#0092c8" offset="0"/><stop stop-color="#00b0de" offset="1"/></linearGradient><path d="m60.621 12.441c11.25-11.25 29.662-11.252 40.914 0l48.182 48.18c11.248 11.25 11.25 29.656-2e-3 40.91l-48.18 48.18c-11.254 11.254-29.666 11.25-40.914 0l-48.182-48.18c-11.25-11.252-11.25-29.66-2e-3 -40.91z" fill="url(#SVGID_1_)"/><g transform="translate(3.7488e-6)"><linearGradient id="SVGID_2_" x1="8.8892" x2="102.79" y1="105.33" y2="8.0905" gradientUnits="userSpaceOnUse"><stop stop-color="#8cc63f" offset="0"/><stop stop-color="#f1f6de" offset="1"/></linearGradient><path d="m52.152 40.604c0-8.939 10.093-10.093 10.093-17.014 0-4.528-7.795-5.277-13.186-5.255l-39.457 39.456c-0.876 0.876-1.688 1.793-2.444 2.741 0.187 7.401 9.058 8.621 14.138 8.621 6.345 0 9.805 9.805 3.46 16.148-6.344 6.344-6.815 17.197-2.673 21.339 2.786 2.786 1.824 7.982 0.896 11.092l7.481 7.48c2.053-6.58 10.989-10.862 22.845-19.438 13.554-9.804-9.805-19.609-15.572-22.492-5.768-2.884 0-8.651 6.056-11.247 6.056-2.595 4.018 16.457 11.247 9.229 6.921-6.921-11.822-14.995 4.183-24.655s-7.067-7.065-7.067-16.005z" fill="url(#SVGID_2_)"/><linearGradient id="SVGID_3_" x1="-.3994" x2="93.499" y1="96.354" y2="-.8802" gradientUnits="userSpaceOnUse"><stop stop-color="#8cc63f" offset="0"/><stop stop-color="#f1f6de" offset="1"/></linearGradient><path d="m77.752 10.656c10.904-1.404 0.812 7.559 5.994 9.825 4.685 2.048 17.202-4.223 18.578-12.726-0.378-0.319-0.762-0.629-1.151-0.929-8e-3 -6e-3 -0.016-0.012-0.023-0.019-0.387-0.298-0.78-0.586-1.177-0.865l-0.018-0.012c-2.41-1.687-4.999-3.013-7.689-3.98-0.013-5e-3 -0.024-0.01-0.037-0.014-0.365-0.131-0.733-0.251-1.103-0.369-0.116-0.037-0.232-0.077-0.349-0.112-0.324-0.1-0.649-0.19-0.975-0.28-0.166-0.045-0.332-0.091-0.499-0.134-0.298-0.077-0.597-0.147-0.896-0.215-0.199-0.045-0.399-0.089-0.598-0.13-0.278-0.058-0.556-0.112-0.834-0.163-0.228-0.041-0.456-0.078-0.684-0.114-0.258-0.042-0.517-0.082-0.775-0.117-0.256-0.034-0.512-0.063-0.769-0.092-0.235-0.026-0.471-0.054-0.707-0.075-0.301-0.027-0.603-0.046-0.904-0.064-0.194-0.012-0.389-0.029-0.583-0.037-0.499-0.021-0.996-0.034-1.494-0.034-0.769 0-1.538 0.035-2.305 0.089-0.126 9e-3 -0.252 0.017-0.378 0.027-0.783 0.064-1.564 0.151-2.342 0.271-0.013 2e-3 -0.023 4e-3 -0.034 6e-3 -1.662 0.259-3.308 0.644-4.923 1.154-0.601 4.364-0.116 9.984 6.675 9.109z" fill="url(#SVGID_3_)"/><linearGradient id="SVGID_4_" x1="47.483" x2="141.38" y1="142.6" y2="45.361" gradientUnits="userSpaceOnUse"><stop stop-color="#8cc63f" offset="0"/><stop stop-color="#f1f6de" offset="1"/></linearGradient><path d="m109.74 101.46c0.912-8.918 11.848-20.229 9.166-23.523-2.682-3.292-13.094-0.141-14.515-5.99-1.814-7.468-19.232-10.192-27.581-4.108-12.302 8.964-14.269 26.219-4.713 27.196 9.555 0.978 18.264 10.237 13.464 19.401-4.799 9.165 5.798 31.499 17.424 15.301 11.628-16.199 5.842-19.358 6.755-28.277z" fill="url(#SVGID_4_)"/><linearGradient id="SVGID_5_" x1="73.194" x2="167.09" y1="167.43" y2="70.189" gradientUnits="userSpaceOnUse"><stop stop-color="#8cc63f" offset="0"/><stop stop-color="#f1f6de" offset="1"/></linearGradient><path d="m65.255 158.12c1.82 0.993 3.716 1.801 5.658 2.428 0.042 0.014 0.085 0.027 0.128 0.041 1.885 0.6 3.814 1.023 5.761 1.276 0.146 0.02 0.292 0.036 0.438 0.053 0.495 0.058 0.992 0.103 1.488 0.139 0.15 0.011 0.3 0.023 0.45 0.032 0.628 0.035 1.256 0.058 1.885 0.058h0.016c2.103 0 4.208-0.2 6.284-0.601 0.295-0.057 0.588-0.127 0.883-0.192 0.222-0.049 0.444-0.091 0.666-0.145 5.664-1.377 11.039-4.268 15.442-8.673l4.067-4.066c-6.938-1.295-31.039 5.834-43.166 9.65z" fill="url(#SVGID_5_)"/><linearGradient id="SVGID_6_" x1="74.436" x2="168.33" y1="168.62" y2="71.388" gradientUnits="userSpaceOnUse"><stop stop-color="#8cc63f" offset="0"/><stop stop-color="#f1f6de" offset="1"/></linearGradient><path d="m152.53 104.36c-2.512-5.125-6.55-13.819-18.137-9.81-13 4.5-22 19-14.5 21 7.066 1.885 14.578-3.773 19.604 1.842z" fill="url(#SVGID_6_)"/><linearGradient id="SVGID_7_" x1="17.803" x2="111.7" y1="113.93" y2="16.699" gradientUnits="userSpaceOnUse"><stop stop-color="#8cc63f" offset="0"/><stop stop-color="#f1f6de" offset="1"/></linearGradient><path d="m92.384 41.584c2.955-0.396 0.631-3.713-1.049-4.449-1.678-0.734-7.023-0.357-5.045 2.064 1.494 1.828 3.139 2.781 6.094 2.385z" fill="url(#SVGID_7_)"/><linearGradient id="SVGID_8_" x1="69.242" x2="163.15" y1="163.62" y2="66.376" gradientUnits="userSpaceOnUse"><stop stop-color="#8cc63f" offset="0"/><stop stop-color="#f1f6de" offset="1"/></linearGradient><path d="m149.6 81.212c3.572 0.873 5.633 0.923 5.611-0.807-0.023-1.731-6.416-3.499-8.104-3.346-1.679 0.157-2.241 2.994 2.493 4.153z" fill="url(#SVGID_8_)"/><linearGradient id="SVGID_9_" x1="43.851" x2="137.75" y1="139.09" y2="41.854" gradientUnits="userSpaceOnUse"><stop stop-color="#8cc63f" offset="0"/><stop stop-color="#f1f6de" offset="1"/></linearGradient><path d="m99.321 28.262c-0.713 5.695 4.982 7.832 2.135 10.678-2.848 2.848-19.609 8.9-15.662 10.678 10.529 4.742-7.314 4.076 0 11.391 3.631 3.629 15.092-2.781 13.881-7.119-0.342-1.229 3.166-5.853 5.973-3.414 2.424 2.105 9.922 4.434 9.922 16.852 0 6.611 5.693 13.059 11.516 11.48 4.832-1.312 5.643-7.383 2.643-9.611-3.832-2.847 6.441-6.28 16.902 5.007 4.825 5.207 12.802-1.144 14.439-1.485-5e-3 -0.018-0.01-0.035-0.015-0.053-0.168-0.643-0.356-1.279-0.563-1.913-0.013-0.04-0.025-0.081-0.039-0.121-0.429-1.296-0.942-2.569-1.536-3.813-0.045-0.095-0.093-0.188-0.139-0.281-0.25-0.51-0.514-1.014-0.791-1.512-0.066-0.12-0.131-0.24-0.199-0.359-0.654-1.144-1.385-2.256-2.188-3.329-0.121-0.161-0.246-0.32-0.371-0.479-0.29-0.374-0.59-0.742-0.899-1.106-0.142-0.167-0.282-0.335-0.429-0.499-0.404-0.457-0.821-0.907-1.256-1.346-0.037-0.037-0.07-0.076-0.107-0.113l-39.858-39.859c-7.338 0.765-13.068 7.998-13.359 10.326z" fill="url(#SVGID_9_)"/></g><g transform="translate(3.7488e-6)" opacity=".25"><path d="m81.07 162.15c-8.422 4e-3 -16.879-3.209-23.279-9.609l-48.18-48.18c-6.418-6.416-9.615-14.888-9.611-23.314-4e-3 -8.414 3.211-16.861 9.609-23.252l48.182-48.182c6.4-6.402 14.857-9.613 23.277-9.609 8.418-6e-3 16.887 3.199 23.295 9.609l48.18 48.182c6.402 6.4 9.613 14.857 9.609 23.273 4e-3 8.418-3.205 16.883-9.609 23.293l-48.18 48.18c-6.406 6.408-14.869 9.611-23.285 9.609zm-65.804-98.699c-4.84 4.84-7.262 11.197-7.264 17.596 2e-3 6.426 2.416 12.807 7.266 17.658l48.182 48.178c4.842 4.844 11.211 7.264 17.621 7.268 6.414-4e-3 12.785-2.42 17.635-7.268l48.18-48.178c4.848-4.852 7.262-11.225 7.268-17.637-6e-3 -6.408-2.422-12.773-7.266-17.617l-48.183-48.179c-4.85-4.85-11.223-7.264-17.637-7.268-6.41 2e-3 -12.777 2.424-17.619 7.268z" fill="#0092c8"/></g><g transform="translate(3.7488e-6)" opacity=".15"><path d="m157.99 65.016c-1.443-2.592-3.252-5.029-5.445-7.223l-48.182-48.18c-6.41-6.412-14.875-9.613-23.297-9.611-8.418-2e-3 -16.875 3.207-23.275 9.611l-48.182 48.18c-6.398 6.393-9.611 14.838-9.609 23.252-2e-3 8.424 3.195 16.898 9.611 23.314l5.744 5.744c10.192-15.843 59.354-82.683 142.64-45.087z" fill="#fff"/></g></svg>
