<svg id="Layer_1" data-name="Layer 1" xmlns="http://www.w3.org/2000/svg" viewBox="0 0 30 30"><defs><style>.cls-1{fill:#6d9a40;}.cls-2{fill:#fff;}</style></defs><title>Swagger-Icon-Color</title><path class="cls-1" d="M14.89,29.33A14.43,14.43,0,0,1,.67,14.89,14.33,14.33,0,1,1,14.89,29.33Zm0,0A14.43,14.43,0,0,1,.67,14.89,14.33,14.33,0,1,1,14.89,29.33Z"/><path class="cls-2" d="M20.28,15a1.21,1.21,0,1,0-1.22,1.15A1.17,1.17,0,0,0,20.28,15Z"/><path class="cls-2" d="M9.82,21.62c-.6,0-.82-.16-.88-.74-.08-.74-.05-1.49-.1-2.24C8.75,17.26,8.6,15.89,7.25,15a3.17,3.17,0,0,0,1.36-1.94,13.82,13.82,0,0,0,.23-1.71c0-.58,0-1.16,0-1.74.08-.92.14-1.29,1.24-1.26.16,0,.33,0,.51,0V6.51c-.44,0-.83,0-1.21,0a2.28,2.28,0,0,0-2.4,2c-.16.92-.13,1.86-.2,2.79a9.64,9.64,0,0,1-.15,1.43,1.25,1.25,0,0,1-1.41,1.15,3,3,0,0,0-.34.06v2c1.56.08,1.77.63,1.9,2.26,0,.59,0,1.19,0,1.78A9.87,9.87,0,0,0,7,21.72c.36,1.49,1.8,2,3.56,1.69V21.63Z"/><path class="cls-2" d="M11,13.83a1.17,1.17,0,1,0,0,2.33A1.15,1.15,0,0,0,12.13,15,1.17,1.17,0,0,0,11,13.83Z"/><path class="cls-2" d="M15,13.83A1.12,1.12,0,0,0,13.84,15,1.1,1.1,0,0,0,15,16.16,1.08,1.08,0,0,0,16.17,15,1.1,1.1,0,0,0,15,13.83Z"/><path class="cls-2" d="M23.43,12.94a7.11,7.11,0,0,1-.21-1.38c-.05-.86,0-1.72-.1-2.57C23,7,21.51,6.25,19.38,6.6V8.37h.86c.46,0,.8.18.85.69s0,.93.09,1.4c.09.93.14,1.86.3,2.78A2.87,2.87,0,0,0,22.78,15a3.55,3.55,0,0,0-1.52,3.06c0,.84-.06,1.68-.1,2.53s-.31,1-1.08,1l-.67,0v1.81c.45,0,.87,0,1.28,0a2.25,2.25,0,0,0,2.33-2,16.24,16.24,0,0,0,.19-2.09c0-.64,0-1.28.1-1.91a1.41,1.41,0,0,1,1.54-1.46,1.71,1.71,0,0,0,.28-.07V14l-.41,0A1.18,1.18,0,0,1,23.43,12.94Z"/></svg>