<?xml version="1.0" encoding="UTF-8" standalone="no"?>
<!-- Created with Inkscape (http://www.inkscape.org/) -->
<svg
   xmlns:svg="http://www.w3.org/2000/svg"
   xmlns="http://www.w3.org/2000/svg"
   version="1.0"
   width="811.69598"
   height="714.06201"
   viewBox="0 0 811.696 714.062"
   id="Layer_1"
   xml:space="preserve"><defs
   id="defs188" />
<polygon
   points="405.847,653.074 694.142,199.574 694.142,249.115 407.196,702.621 117.55,249.121 117.55,199.574 405.847,653.074 "
   style="fill:none;stroke:white;stroke-width:12.27649975;stroke-miterlimit:3.86400008"
   id="polygon3" />
<path
   d="M 721.347,258.715 L 721.347,189.863 L 782.784,162.978 L 795.124,144.476 C 668.663,46.962 566.437,12.276 405.848,12.276 C 245.27,12.276 143.033,46.95 16.572,144.476 L 28.908,162.978 L 90.359,189.863 L 90.359,258.715 L 101.967,273.227 C 197.41,192.153 279.674,162.172 405.847,162.172 C 532.032,162.172 614.302,192.153 709.744,273.227 L 721.347,258.715 z "
   style="fill:none;stroke:white;stroke-width:24.5529995;stroke-miterlimit:3.86400008"
   id="path5" />
<path
   d="M 125.702,243.807 L 405.952,674.909 L 682.038,236.152 C 682.038,236.152 580.46,148.79 421.058,148.79 C 223.791,148.79 125.702,240.534 125.702,240.534 L 125.702,243.807"
   style="fill:white"
   id="path7" />
<polyline
   fill="#0671B0"
   points="690.165,213.235 405.847,660.489 121.53,213.235 121.53,247.961 407.178,695.206 690.165,247.961   690.165,213.235 "
   id="polyline9"
   style="fill:#0671b0" />
<path
   d="M 405.847,653.074 L 694.142,199.574 L 694.142,249.115 L 407.196,702.621 L 117.55,249.121 L 117.55,199.575 L 405.847,653.074 M 405.847,667.898 L 125.507,226.905 L 125.507,246.794 L 407.16,687.8 L 686.187,246.807 L 686.187,226.906 L 405.847,667.898 z "
   id="path11" />
<polyline
   fill="#0671B0"
   points="122.645,193.286 405.847,638.795 689.046,193.286 691.283,194.712 405.847,643.726   120.412,194.712 122.645,193.286 "
   id="polyline13"
   style="fill:#0671b0" />
<path
   d="M 710.288,278.916 L 725.325,260.115 L 725.325,192.465 L 785.442,166.15 L 800.488,143.599 C 671.977,43.822 568.553,8.299 405.847,8.299 C 243.153,8.299 139.717,43.804 11.212,143.599 L 26.252,166.15 L 86.388,192.465 L 86.388,260.115 L 101.425,278.916 C 197.491,196.448 279.252,166.149 405.847,166.149 C 532.461,166.149 614.221,196.448 710.288,278.916"
   style="fill:#0671b0"
   id="path15" />
<path
   d="M 464.5,522.471 C 463.229,525.183 462.504,528.117 462.27,531.241 C 468.009,531.352 473.387,528.762 478.652,529.865 C 479.548,530.758 478.451,531.45 477.651,531.645 C 477.058,530.051 475.472,531.645 474.375,531.645 C 467.425,537.313 462.159,543.868 459.773,552.008 C 430.167,569.095 388.347,567.218 358.147,552.712 C 357.754,550.515 361.123,549.82 362.816,548.839 C 369.485,543.474 367.582,534.519 370.674,527.667 C 373.246,531.057 377.229,535.223 382.091,533.437 C 383.281,532.541 384.774,531.45 386.074,532.041 C 386.167,532.844 386.461,533.923 387.449,534.127 C 391.432,533.033 395.7,528.375 397.484,524.482 C 397.94,523.858 398.284,523.181 398.56,522.483 L 267.04,522.471 C 268.575,527.042 272.72,531.286 266.956,535.224 C 265.655,541.185 262.88,547.944 268.035,552.413 C 272.707,550.423 278.279,544.465 283.045,548.84 C 290.496,559.564 301.724,564.929 311.648,572.767 C 310.569,576.154 310.569,580.827 311.648,584.195 C 313.14,587.27 316.32,589.057 319.204,590.256 C 325.073,591.551 328.837,587.867 332.82,583.509 C 346.526,585.595 359.447,591.739 373.153,594.925 C 423.218,606.545 475.768,593.736 519.095,570.588 L 518.091,576.153 C 525.449,571.384 537.456,562.246 538.052,553.099 C 544.625,546.34 550.973,537.606 552.372,527.668 C 552.855,526.286 552.069,523.999 553.751,523.403 C 555.447,524.593 557.533,526.883 559.131,525.876 C 559.571,524.797 559.916,523.649 560.186,522.465 L 464.5,522.471"
   id="path17" />
<path
   d="M 267.041,522.471 C 266.412,520.586 266.22,518.647 267.35,516.644 C 268.639,513.368 270.923,510.683 274.109,508.8 C 280.364,506.306 287.515,508.204 291.981,513.065 C 296.45,510.985 301.521,509.492 306.697,510.179 C 302.411,506.511 296.549,505.318 290.884,504.43 C 292.676,497.461 299.435,492.004 306.283,489.813 C 308.573,489.219 311.558,489.121 313.14,491.207 C 324.269,489.714 330.137,500.948 340.265,501.931 C 353.486,504.521 368.477,503.424 376.426,491.6 C 379.175,484.143 378.734,474.027 375.119,466.42 L 425.592,466.42 C 422.076,468.246 418.141,469.007 415.084,471.246 C 418.06,486.831 414.581,503.625 401.459,512.673 C 399.672,515.601 399.813,519.327 398.561,522.483 L 267.041,522.471 M 448.012,466.42 C 446.954,470.023 446.151,473.728 445.77,477.594 C 445.173,485.045 447.374,491.6 453.628,495.886 C 455.714,497.369 456.4,493.701 458.286,493.701 C 460.669,497.07 462.269,501.748 466.141,504.431 C 468.12,502.534 469.609,499.156 470.514,496.273 C 470.703,494.786 471.299,493.498 472.306,492.308 C 474.374,495.284 477.761,497.967 481.537,498.359 C 490.873,497.672 488.484,483.762 497.632,483.762 C 502.301,487.428 507.064,491.411 508.76,496.977 C 510.049,502.828 508.556,509.101 503.695,512.379 C 492.56,509.697 480.535,509.193 470.513,514.465 C 467.843,516.872 465.858,519.542 464.498,522.455 L 560.186,522.47 C 561.193,518.031 561.094,513.023 560.621,508.395 C 561.996,506.698 563.696,509.989 565.282,509.099 C 565.777,501.04 562.893,495.282 562.707,488.02 C 564.679,488.131 566.765,487.726 568.461,488.323 L 567.772,481.172 C 566.783,476.13 564.739,471.122 561.915,466.426 L 448.012,466.42 z M 367.543,466.42 C 367.085,466.954 366.587,467.49 366.002,467.967 C 365.352,467.679 364.866,467.104 364.449,466.426 L 367.543,466.42 z "
   id="path19" />
<path
   d="M 514.75,410.373 C 516.144,415.732 519.171,420.422 521.278,425.437 L 514.426,426.15 L 520.177,432.594 C 518.391,434.287 514.518,432.201 512.639,434.38 C 517.201,440.351 525.653,438.456 531.605,441.843 C 543.636,445.496 555.067,455.033 561.916,466.426 L 448.011,466.42 C 450.559,457.734 454.566,449.639 457.593,441.139 C 455.714,440.351 452.123,441.25 451.545,444.022 C 442.7,447.208 442.994,457.632 434.746,462.308 C 433.148,463.591 431.356,461.118 430.074,462.997 C 428.755,464.532 427.22,465.593 425.593,466.432 L 375.12,466.42 C 374.542,465.206 373.886,464.059 373.154,462.997 C 370.232,462.835 369.09,464.628 367.543,466.426 L 364.45,466.42 C 363.003,464.083 362.394,460.516 358.846,463.297 C 351.494,456.925 355.576,447.805 351.389,439.745 C 351.107,430.708 356.562,422.46 364.211,418.291 C 369.375,415.902 376.041,416.295 381.793,415.812 C 386.732,413.336 392.295,411.901 397.861,410.36 L 514.75,410.373 M 365.28,410.373 C 363.499,411.392 361.332,411.961 358.551,411.83 C 357.667,411.069 356.819,410.607 356.004,410.373 L 365.28,410.373 z M 353.121,410.373 C 349.614,411.2 346.323,414.536 342.052,412.534 C 340.53,411.416 338.965,410.736 337.373,410.367 L 353.121,410.373 z M 330.542,410.373 C 325.755,411.239 320.9,413.424 316.32,414.027 C 300.624,419.874 300.624,438.658 287.715,447.988 C 280.755,450.185 273.4,449.388 265.856,448.995 C 267.538,444.305 272.411,438.961 274.794,433.988 C 273.997,422.068 264.667,435.472 258.412,433.299 C 252.753,435.272 247.964,429.52 242.305,430.41 L 228.71,436.168 C 225.32,433.686 224.43,428.42 225.53,423.951 C 227.259,418.643 232.067,413.179 237.708,410.368 L 330.542,410.373 z "
   id="path21" />
<path
   d="M 237.708,410.373 C 238.499,409.974 239.312,409.636 240.126,409.348 C 240.426,408.257 242.509,407.469 241.226,406.075 C 239.137,404.082 235.951,403.695 234.467,401.105 L 215.492,396.837 C 214.8,393.861 216.292,390.879 218.378,388.589 C 224.429,382.427 234.074,382.727 241.226,381.438 C 240.812,379.84 238.34,378.755 236.553,378.258 C 232.378,377.754 228.71,376.261 224.726,375.365 C 222.343,372.5 226.512,370.51 227.609,368.214 C 233.963,360.679 245.391,366.428 252.642,363.152 C 269.435,364.641 279.955,384.42 298.445,378.551 C 308.572,374.286 319.003,365.336 323.471,355.011 C 321.886,353.318 319.596,353.617 317.417,353.528 C 315.331,353.618 315.522,355.907 314.534,357.101 C 310.961,358.479 308.075,361.758 303.81,361.366 C 298.838,351.328 285.635,364.049 283.438,351.035 C 280.846,347.96 275.783,350.046 273.805,346.359 C 275.004,338.518 273.604,332.56 269.435,326.002 C 270.325,321.422 275.298,318.557 277.686,314.574 C 280.956,302.45 267.643,297.295 269.827,285.564 C 266.752,281.985 264.372,278.113 262.283,274.147 C 256.718,276.233 250.756,276.83 246.194,271.95 C 243.697,269.175 242.211,265.491 243.403,261.618 C 243.997,258.246 247.072,255.567 250.159,254.467 C 255.821,257.15 256.414,249.806 261.297,250.496 C 262.972,244.241 270.828,246.72 273.007,240.851 C 277.182,239.367 281.348,241.265 284.534,237.278 C 290.696,233.517 293.676,244.726 298.051,237.986 C 296.75,232.123 291.979,227.649 289.506,222.29 L 290.195,219.104 L 302.016,203.312 L 317.719,215.532 C 318.909,220.001 315.429,225.159 318.105,229.032 C 330.822,223.877 343.45,218.811 356.059,213.336 C 359.146,210.857 359.74,207.191 362.122,204.398 L 372.441,166.151 L 389.645,184.044 C 387.448,188.905 383.09,195.664 387.858,200.819 C 389.443,201.715 391.23,202.123 393.217,201.919 C 402.658,197.339 389.141,184.733 400.761,182.551 L 418.655,176.482 C 420.633,179.854 421.227,183.843 424.02,186.912 C 447.26,180.06 470.812,172.609 497.329,174.695 L 510.139,176.482 C 509.342,179.071 505.763,182.257 503.401,183.633 C 484.711,199.833 464.446,213.446 442.588,222.684 C 438.02,227.054 436.126,233.114 432.958,238.38 L 432.958,241.953 C 437.427,249.608 442.489,256.96 446.46,264.807 L 447.554,263.407 C 447.947,239.873 463.163,220.205 483.328,207.971 C 501.896,199.441 525.037,198.845 541.63,211.157 C 560.026,223.967 571.437,243.545 567.361,266.29 C 566.171,283.479 554.851,298.076 540.941,308.523 C 549.093,316.46 560.027,323.923 568.461,332.057 C 566.765,332.45 564.889,332.56 563.489,333.547 C 565.686,337.026 568.761,339.209 570.64,342.787 L 564.193,342.491 C 565.776,347.064 569.447,351.632 570.94,356.805 C 566.975,356.805 562.799,355.315 558.423,355.315 C 556.637,357.995 559.02,361.069 557.737,363.956 C 557.234,378.352 547.903,392.462 535.872,401.493 C 529.224,405.072 521.576,406.466 514.424,408.962 C 514.517,409.436 514.628,409.906 514.748,410.374 L 397.859,410.374 C 406.62,407.943 415.393,405.273 421.825,397.92 C 422.922,393.562 419.05,390.583 416.074,388.59 C 408.512,386.804 400.168,386.6 393.22,383.231 C 389.054,384.421 387.45,388.89 384.271,391.068 C 373.364,392.761 373.037,405.904 365.281,410.373 L 356.005,410.373 C 355.01,410.091 354.06,410.133 353.122,410.361 L 337.374,410.373 C 335.135,409.852 332.845,409.962 330.543,410.373 L 237.708,410.373"
   id="path23" />
<path
   d="M 382.091,186.911 C 380.895,191.194 378.512,195.462 380.005,200.425 C 382.798,203.704 386.371,208.08 391.028,208.38 C 395.104,207.577 399.573,206.983 401.77,202.61 C 402.66,198.045 403.053,192.386 402.849,188.31 C 406.925,187.117 410.8,184.429 415.083,184.731 C 417.151,188.31 418.251,192.869 418.251,196.852 C 413.986,201.623 408.81,206.982 411.492,213.738 C 412.592,217.82 417.061,219.904 420.43,221.879 C 423.313,223.078 426.1,221.486 428.582,220.497 C 434.241,215.92 435.841,209.665 436.53,203.018 C 438.322,201.624 441.005,202.514 443.295,202.218 L 443.295,205.104 L 427.892,235.493 L 425.009,235.493 C 405.827,225.863 386.663,216.221 367.487,206.588 C 367.787,196.652 372.055,187.511 374.938,178.274 C 377.323,180.563 381.588,183.239 382.091,186.911"
   style="fill:#ffb300"
   id="path25" />
<path
   d="M 490.482,180.464 C 471.3,186.525 454.414,198.345 431.86,196.553 C 431.467,203.108 424.115,203.312 420.039,206.183 C 419.442,201.231 429.177,199.535 426.102,193.274 C 446.87,186.314 468.12,178.87 490.482,180.464"
   style="fill:#ffb300"
   id="path27" />
<path
   d="M 446.87,214.042 C 450.146,193.173 474.486,196.05 488.001,186.129 L 493.366,184.337 C 478.155,195.066 463.459,206.779 446.87,214.042"
   style="fill:#ffb300"
   id="path29" />
<path
   d="M 551.981,229.031 C 564.084,245.623 563.193,269.679 552.766,286.664 C 540.55,307.716 503.199,314.274 510.14,344.573 C 511.147,348.152 512.037,352.617 512.64,356.804 C 504.389,351.034 501.598,331.366 501.598,331.366 C 495.936,338.721 498.319,350.137 502.302,357.792 C 490.089,352.931 493.569,338.88 492.954,328.875 C 490.383,331.165 489.381,335.331 488.392,338.909 C 487.202,343.882 488.785,348.644 489.786,353.224 C 484.52,347.454 483.624,338.816 483.723,330.961 C 481.637,330.862 481.931,333.251 481.134,334.551 C 480.052,340.303 479.045,346.06 480.145,351.722 C 474.486,346.857 473.093,338.123 474.375,330.66 C 475.97,330.175 474.282,327.792 475.88,327.087 C 481.242,318.746 490.875,315.964 499.813,313.884 C 517.595,310.494 537.868,302.258 544.819,283.474 C 551.871,269.27 549.581,250.493 538.764,238.768 C 533.885,233.403 535.488,225.455 530.516,220.089 C 530.516,220.089 529.821,230.813 527.741,235.896 C 526.434,229.734 526.248,222.286 522.358,217.313 C 522.358,217.313 520.479,230.923 516.993,235.896 L 515.914,234.41 C 515.114,228.835 513.924,222.679 509.848,219.1 C 508.659,222.582 509.156,226.644 508.056,230.126 C 506.866,233.606 505.379,237.274 501.9,239.468 C 500.218,234.888 500.407,228.834 495.842,225.154 C 495.557,233.04 495.638,231.82 494.742,235.488 L 494.448,238.767 C 488.99,237.682 484.018,237.778 479.046,239.768 C 469.515,245.316 467.728,256.36 469.422,266.284 C 471.301,284.27 490.573,296.097 506.572,300.266 C 509.045,299.763 510.849,300.862 512.641,302.052 C 499.72,310.603 483.421,304.138 471.894,296.99 C 457.594,287.051 452.235,268.481 455.119,251.594 C 460.373,233.107 475.881,214.129 495.153,209.064 C 516.306,205.104 538.95,210.352 551.981,229.031"
   style="fill:#ffb300"
   id="path31" />
<path
   d="M 312.748,218.307 C 310.159,237.876 318.518,255.469 327.051,271.654 C 324.662,274.337 323.286,278.506 319.9,279.905 C 317.419,278.02 314.535,277.424 312.053,275.53 C 316.228,255.359 307.98,237.484 295.955,222.683 C 296.548,217.411 300.532,213.631 303.418,209.37 C 306.283,211.875 310.066,215.231 312.748,218.307"
   style="fill:#ffb300"
   id="path33" />
<path
   d="M 429.387,210.855 C 429.276,213.145 426.704,215.324 424.708,215.827 C 423.125,215.531 420.743,215.531 420.431,213.738 C 421.935,211.358 425.604,211.065 428.286,209.755 L 429.387,210.855"
   style="fill:#ffb300"
   id="path35" />
<path
   d="M 373.951,217.62 C 373.651,219.499 373.246,221.879 371.068,222.29 C 368.883,223.18 367.396,220.89 366.803,219.407 C 366.206,216.814 367.882,215.232 369.968,214.434 C 371.865,214.335 373.651,215.828 373.951,217.62 z "
   style="fill:#ffb300"
   id="path37" />
<path
   d="M 373.951,217.62 C 373.651,219.499 373.246,221.879 371.068,222.29 C 368.883,223.18 367.396,220.89 366.803,219.407 C 366.206,216.814 367.882,215.232 369.968,214.434 C 371.865,214.335 373.651,215.828 373.951,217.62 z "
   style="fill:none;stroke:#f8b30c;stroke-width:1.27059996;stroke-miterlimit:3.86400008"
   id="path39" />
<path
   d="M 381.792,223.666 C 381.496,224.856 380.995,225.458 380.006,226.256 C 378.717,226.759 378.313,225.27 377.524,224.766 C 377.716,223.666 376.931,222.18 378.219,221.58 C 380.206,221.193 381.288,221.99 381.792,223.666 z "
   style="fill:#ffb300"
   id="path41" />
<path
   d="M 381.792,223.666 C 381.496,224.856 380.995,225.458 380.006,226.256 C 378.717,226.759 378.313,225.27 377.524,224.766 C 377.716,223.666 376.931,222.18 378.219,221.58 C 380.206,221.193 381.288,221.99 381.792,223.666 z "
   style="fill:none;stroke:#f8b30c;stroke-width:1.27059996;stroke-miterlimit:3.86400008"
   id="path43" />
<path
   d="M 350.303,222.979 C 351.886,236.089 336.189,234.204 329.241,239.772 C 325.762,239.661 320.303,246.42 319.203,240.165 C 318.61,238.178 318.61,236.386 319.203,234.8 C 329.728,231.228 339.579,226.165 350.303,222.979"
   style="fill:#ffb300"
   id="path45" />
<path
   d="M 368.568,229.441 C 365.199,231.027 360.227,230.43 357.451,234.114 C 355.464,232.72 355.665,228.938 356.765,226.945 C 358.348,220.498 362.927,226.945 366.002,226.945 L 368.568,229.441"
   style="fill:#ffb300"
   id="path47" />
<path
   d="M 394.308,229.441 C 394.601,230.43 393.915,232.217 392.521,232.621 C 391.322,232.813 389.95,232.123 390.04,230.817 C 389.839,229.834 390.133,228.638 391.029,228.344 C 392.33,228.434 393.613,228.14 394.308,229.441 z "
   style="fill:#ffb300"
   id="path49" />
<path
   d="M 394.308,229.441 C 394.601,230.43 393.915,232.217 392.521,232.621 C 391.322,232.813 389.95,232.123 390.04,230.817 C 389.839,229.834 390.133,228.638 391.029,228.344 C 392.33,228.434 393.613,228.14 394.308,229.441 z "
   style="fill:none;stroke:#f8b30c;stroke-width:1.27059996;stroke-miterlimit:3.86400008"
   id="path51" />
<path
   d="M 419.646,254.075 C 424.022,254.578 424.205,249.606 426.501,247.316 C 429.983,250.796 433.556,255.358 434.341,259.832 C 432.555,260.33 429.57,258.636 428.976,261.226 C 431.769,267.088 435.249,272.654 437.224,278.805 C 435.249,279.905 434.149,276.626 432.555,278.805 L 432.555,280.591 C 436.034,286.565 440.018,292.322 439.718,299.866 C 437.428,300.957 434.653,297.78 432.555,300.271 L 433.949,309.209 C 432.07,310.198 430.874,307.423 428.584,308.109 C 427.694,314.37 427.784,321.926 425.809,328.181 C 423.426,327.201 423.519,322.13 419.646,321.725 C 417.264,326.394 420.542,332.65 417.86,337.421 C 415.277,332.859 414.875,326.787 411.101,322.429 C 409.608,322.726 409.812,324.308 409.315,325.304 C 410.298,332.449 409.608,342.595 405.736,349.635 C 403.839,344.177 402.961,337.328 396.798,334.553 C 394.601,338.126 395.197,342.688 393.612,346.359 C 392.422,347.96 392.128,349.938 390.039,350.642 C 387.953,348.948 388.549,345.166 385.369,343.883 C 380.397,346.769 376.818,352.224 371.36,354.607 C 371.159,347.66 374.141,338.428 367.487,333.849 C 364.4,334.236 366.093,339.322 364.601,341.704 C 364.008,344.276 361.919,346.659 359.236,347.063 C 355.573,347.363 350.895,347.162 350.301,343.191 C 348.404,340.403 352.48,337.925 349.612,335.635 C 344.439,338.518 338.87,340.215 332.408,339.912 L 332.408,338.518 L 366.001,305.93 C 376.632,306.134 388.345,299.264 392.127,289.547 C 393.914,284.668 393.41,280.702 392.52,275.529 C 389.949,268.486 381.991,265.006 374.938,264.11 C 369.069,264.203 364.4,267.985 360.635,272.361 C 357.653,271.951 355.462,269.679 353.184,267.683 C 350.601,263.313 360.932,264.806 356.058,260.924 C 353.283,261.82 350.801,259.641 350.301,257.354 C 351.884,250.292 356.559,244.634 357.449,237.279 C 359.334,237.987 359.832,240.369 361.028,241.952 C 360.524,242.345 359.832,243.241 359.628,244.131 C 359.445,247.317 363.111,247.41 364.993,248.711 C 366.498,249.305 368.979,249.403 369.573,247.71 C 369.069,246.329 368.272,243.838 370.673,243.739 C 373.448,241.266 378.217,241.56 379.611,237.988 C 375.628,235.398 369.666,237.28 365.296,235.494 C 366.597,233.219 370.856,233.702 370.673,230.132 C 387.561,236.796 403.153,246.63 419.646,254.075"
   style="fill:#ffb300"
   id="path53" />
<path
   d="M 406.836,235.9 C 407.024,237.09 406.632,238.379 405.331,238.772 C 403.65,238.583 403.053,237.987 402.85,236.2 C 402.367,235.103 403.557,234.414 404.343,234.114 C 405.332,234.303 406.534,234.708 406.836,235.9 z "
   style="fill:#ffb300"
   id="path55" />
<path
   d="M 406.836,235.9 C 407.024,237.09 406.632,238.379 405.331,238.772 C 403.65,238.583 403.053,237.987 402.85,236.2 C 402.367,235.103 403.557,234.414 404.343,234.114 C 405.332,234.303 406.534,234.708 406.836,235.9 z "
   style="fill:none;stroke:#f8b30c;stroke-width:1.27059996;stroke-miterlimit:3.86400008"
   id="path57" />
<path
   d="M 418.657,240.165 C 418.957,242.344 418.363,244.727 416.074,245.138 C 413.877,245.321 411.395,243.948 411.101,241.559 C 411.395,239.871 411.991,237.279 414.281,237.279 C 416.367,236.796 418.061,238.472 418.657,240.165 z "
   style="fill:#ffb300"
   id="path59" />
<path
   d="M 418.657,240.165 C 418.957,242.344 418.363,244.727 416.074,245.138 C 413.877,245.321 411.395,243.948 411.101,241.559 C 411.395,239.871 411.991,237.279 414.281,237.279 C 416.367,236.796 418.061,238.472 418.657,240.165 z "
   style="fill:none;stroke:#f8b30c;stroke-width:1.27059996;stroke-miterlimit:3.86400008"
   id="path61" />
<path
   d="M 348.909,239.772 C 347.92,243.141 348.013,246.923 346.023,249.807 C 339.972,253.185 333.81,256.161 327.051,257.648 L 323.472,250.203 C 330.731,244.727 339.972,242.548 348.109,238.772 L 348.909,239.772"
   style="fill:#ffb300"
   id="path63" />
<path
   d="M 291.98,245.53 C 294.48,251 293.38,257.854 293.08,263.012 C 292.484,263.606 291.89,264.502 290.883,264.109 C 288.71,257.743 288.41,250.496 284.535,244.837 C 283.528,242.454 286.321,243.239 287.016,241.951 C 289.298,241.658 291.294,243.645 291.98,245.53"
   style="fill:#ffb300"
   id="path65" />
<path
   d="M 542.037,259.44 C 543.527,272.544 539.061,283.184 531.999,292.715 L 524.162,298.074 C 506.772,295.298 488.193,291.63 478.359,274.54 C 474.073,267.296 475.284,257.354 478.652,250.203 C 481.335,246.421 485.117,245.231 489.083,244.431 C 490.572,245.139 492.862,244.431 493.366,246.631 C 492.955,247.521 493.066,248.711 492.955,249.808 C 496.141,251.001 499.216,247.914 502.303,246.925 L 508.762,243.052 C 510.333,247.017 510.738,247.428 511.927,250.497 L 519.492,244.431 C 521.872,246.029 522.316,249.023 523.365,250.497 L 532.303,241.952 C 537.96,245.824 540.451,252.882 542.037,259.44"
   style="fill:white"
   id="path67" />
<path
   d="M 284.536,258.451 C 284.929,261.133 285.333,264.805 284.143,267.389 L 283.046,267.389 C 280.067,260.43 278.28,253.086 274.108,246.631 C 274.501,245.138 276.377,243.142 278.073,244.431 C 282.156,248.306 282.953,253.479 284.536,258.451"
   style="fill:#ffb300"
   id="path69" />
<path
   d="M 305.204,251.6 C 306.1,259.944 306.88,268.783 304.497,276.626 L 301.332,278.413 L 277.384,283.778 C 275.487,282.378 272.321,281.189 272.321,278.413 L 296.658,267.683 C 300.734,265.896 299.341,261.227 299.826,257.648 C 299.937,253.479 295.651,246.813 301.331,244.43 C 303.7,245.734 303.903,249.214 305.204,251.6"
   style="fill:#ffb300"
   id="path71" />
<path
   d="M 277.687,267.389 C 277.98,268.486 277.184,269.274 276.979,270.164 L 275.894,270.164 C 273.511,264.302 271.521,258.247 267.643,253.086 C 267.946,251.896 266.956,249.999 268.743,249.807 C 274.198,254.369 276.194,260.924 277.687,267.389"
   style="fill:#ffb300"
   id="path73" />
<path
   d="M 269.136,265.192 C 269.828,267.683 271.021,270.464 270.536,273.047 C 265.564,269.175 264.464,262.416 260.885,257.354 C 261.095,256.062 262.078,254.873 263.366,255.861 L 269.136,265.192"
   style="fill:#ffb300"
   id="path75" />
<path
   d="M 347.123,263.81 C 346.023,270.464 353.186,274.633 357.451,278.113 C 364.905,283.184 366.389,269.679 373.951,270.569 C 378.009,269.867 381.288,271.354 384.27,273.44 C 386.964,276.326 387.954,279.905 388.253,283.777 C 387.954,286.16 387.66,288.54 385.664,290.236 C 383.971,286.361 383.877,280.498 378.513,278.412 C 364.603,272.846 351.493,298.877 340.659,280.591 L 335.596,274.54 C 331.925,278.706 329.341,285.375 331.328,290.929 C 333.021,293.815 335.3,297.295 338.479,298.485 C 351.886,302.954 361.527,289.64 375.333,290.929 L 384.271,292.023 C 378.918,299.867 369.486,299.082 361.423,300.958 C 353.486,306.323 350.603,320.05 338.479,314.574 L 326.658,312.787 C 325.264,307.926 321.293,303.157 316.321,301.67 C 311.945,303.247 311.256,299.375 310.267,296.698 C 312.245,293.212 316.528,290.032 315.929,285.264 C 318.812,284.485 320.305,288.057 323.08,286.271 L 333.115,272.361 C 333.214,269.379 330.532,267.185 331.035,264.503 C 336.096,263.606 344.734,252.493 347.123,263.81"
   style="fill:white"
   id="path77" />
<path
   d="M 394.308,265.192 C 400.167,271.06 404.636,279.303 402.163,288.843 C 400.167,297.888 393.519,306.919 383.877,309.209 L 369.967,308.822 C 370.47,308.22 387.267,304.053 392.128,295.209 C 396.687,288.541 396.891,279.21 392.521,272.361 C 389.647,265.896 381.881,264.805 376.426,261.619 C 380.098,258.544 394.308,265.192 394.308,265.192"
   id="path79" />
<path
   d="M 256.62,261.619 C 258.02,263.606 258.412,266.382 257.705,268.782 C 256.327,270.667 253.44,269.771 251.555,269.474 C 249.475,268.075 248.375,265.602 248.375,263.012 C 248.075,258.247 254.723,259.944 256.62,261.619"
   style="fill:#ffb300"
   id="path81" />
<path
   d="M 447.262,266.289 C 448.359,281.985 457.689,296.885 472.307,304.537 C 476.473,306.434 480.837,307.816 484.814,310.309 C 480.144,313.977 472.882,316.753 469.714,323.119 C 465.842,328.784 465.045,337.422 467.628,343.884 C 471.893,353.319 480.537,361.163 489.786,365.338 C 491.075,364.736 490.278,363.153 490.481,362.17 C 494.354,364.553 497.534,369.504 501.898,369.316 L 501.898,364.643 C 506.268,367.329 510.946,369.316 515.505,371.402 C 517.495,370.008 515.317,367.629 515.206,365.743 C 518.596,366.43 522.076,368.216 525.543,367.829 C 525.249,363.657 521.167,361.07 520.178,356.806 C 517.595,348.746 515.616,336.14 520.589,328.182 C 529.323,333.347 537.07,342.302 536.678,352.822 C 536.082,360.177 534.388,367.718 527.33,371.794 C 501.899,382.336 477.762,363.957 456.905,350.643 L 433.949,329.974 C 432.666,326.899 435.046,323.32 434.746,320.233 L 442.197,323.512 C 445.566,319.154 441.6,313.385 441.897,308.11 C 444.669,306.626 447.058,309.42 449.734,308.523 C 450.538,300.665 447.373,293.606 445.083,286.665 C 446.666,284.576 449.048,287.855 450.448,285.266 C 447.556,279.514 444.58,273.442 440.803,268.38 C 440.705,264.203 445.173,267.089 447.262,266.289"
   style="fill:white"
   id="path83" />
<path
   d="M 378.513,285.968 C 374.044,284.574 366.599,286.361 362.223,287.65 C 363.617,285.264 368.981,284.071 371.361,282.68 C 374.437,283.385 377.23,282.68 378.513,285.968"
   style="fill:#ffb300"
   id="path85" />
<path
   d="M 344.237,290.929 C 345.925,292.323 348.202,291.738 351.592,292.715 C 349.707,294.202 344.348,294.502 341.759,293.815 C 339.58,293.212 337.29,290.929 336.694,288.843 L 336.694,284.485 C 339.669,285.564 341.069,289.733 344.237,290.929"
   style="fill:#ffb300"
   id="path87" />
<path
   d="M 308.48,286.271 C 307.98,288.057 306.787,290.326 304.497,289.844 C 295.469,290.437 287.311,290.033 278.766,291.63 L 276.587,291.334 L 278.074,289.844 C 288.207,288.843 297.649,286.271 307.776,285.264 L 308.48,286.271"
   style="fill:#ffb300"
   id="path89" />
<path
   d="M 305.204,298.074 C 307.584,302.953 302.117,306.736 305.204,310.995 L 305.204,312.394 C 299.728,314.273 293.677,319.252 287.716,314.867 C 280.957,312.577 284.833,303.247 280.16,298.787 C 280.067,297.183 282.156,297.588 283.046,296.995 C 289.9,296.698 296.659,296.287 303.418,295.994 L 305.204,298.074"
   style="fill:#ffb300"
   id="path91" />
<path
   d="M 417.557,311.687 C 414.674,314.181 411.194,312.284 408.215,311.294 C 406.24,310.011 408.713,307.329 407.915,305.635 L 409.315,304.142 L 417.557,311.687"
   style="fill:#121414"
   id="path93" />
<path
   d="M 320.304,311.687 C 320.697,313.285 319.507,314.774 318.107,314.867 C 315.431,314.574 312.245,313.179 311.649,310.308 C 311.853,308.612 312.449,307.422 314.143,307.029 C 317.025,306.736 319.507,309.308 320.304,311.687"
   style="fill:#ffb300"
   id="path95" />
<path
   d="M 552.374,326.002 C 551.274,326.898 548.592,325.597 547.402,327.09 C 549.581,330.663 553.753,332.449 556.639,335.635 C 554.16,336.138 551.385,334.739 549.188,336.732 L 559.133,348.556 C 557.032,349.15 554.056,345.763 551.685,347.456 C 554.853,366.042 548.2,383.021 534.089,394.641 C 525.655,401.61 514.017,402.086 503.403,402.497 C 504.182,407.064 507.962,411.234 509.044,416.113 C 504.785,416.406 499.321,414.027 495.545,415.408 L 502.993,426.836 C 500.703,429.315 497.535,426.333 495.545,429.315 L 506.964,440.836 C 503.493,442.628 498.917,443.336 496.534,446.201 C 500.107,447.394 503.404,446.998 506.964,446.201 C 520.589,446.012 539.262,445.808 548.392,460.111 C 553.361,466.366 558.726,472.528 559.526,480.483 L 550.588,480.876 C 551.478,483.553 554.056,486.538 555.56,489.421 C 556.732,492.308 557.628,495.284 558.132,498.359 C 556.154,498.059 553.864,496.384 551.982,498.059 C 554.056,503.238 553.957,509.194 554.854,514.852 C 552.375,515.061 550.085,511.483 548.095,513.758 C 547.702,528.172 543.626,542.285 530.909,550.216 C 525.949,549.326 525.151,539.786 519.097,542.375 C 513.624,548.537 510.738,560.958 499.813,558.071 C 496.938,556.677 495.449,554.387 495.152,551.312 C 493.962,548.036 497.834,542.677 492.955,542.374 C 488.879,541.67 484.815,542.677 482.624,538.795 C 482.324,532.429 489.787,535.114 491.966,530.945 C 489.979,526.377 480.346,526.581 483.331,519.528 C 485.417,516.543 489.083,514.649 492.662,515.542 C 497.038,517.329 502.103,519.618 506.964,518.036 C 512.641,513.96 514.721,507.108 515.207,500.142 C 514.82,490.701 509.044,482.863 501.207,477.591 C 498.228,476.398 493.852,475.208 490.875,477.294 C 485.007,480.48 486.7,491.597 478.359,489.811 C 475.88,486.043 475.584,481.371 475.88,476.602 C 475.172,475.319 473.779,475.319 472.993,476.215 C 469.714,480.279 467.535,483.852 466.141,488.726 L 465.137,489.811 C 463.351,485.839 464.355,480.777 461.564,477.294 C 458.585,478.002 456.592,481.673 454.707,484.053 C 451.245,474.318 457.5,465.284 460.482,456.535 C 469.513,439.643 467.726,417.392 462.269,398.92 C 457.204,392.851 447.655,395.827 440.111,395.047 C 435.843,394.151 429.779,395.937 427.894,390.764 C 426.704,386.889 423.818,384.116 420.431,381.826 C 411.604,376.761 394.116,382.815 393.612,367.823 L 392.815,367.119 C 386.854,372.496 386.26,382.33 378.218,386.394 C 366.094,387.485 369.373,403.187 357.45,404.674 C 359.335,399.012 360.043,393.446 358.146,387.192 L 357.058,387.192 C 353.881,393.648 352.481,401.396 345.63,405.772 L 342.444,405.772 C 343.34,401.899 343.64,397.823 343.544,393.558 C 338.871,390.765 339.375,398.42 336.393,400.407 C 326.061,410.837 307.29,403.692 300.232,418.975 C 293.38,427.526 291.891,443.516 277.687,443.627 C 276.791,441.73 280.259,440.447 280.552,438.25 C 283.345,433.781 281.763,428.827 279.17,424.745 C 272.708,417.189 264.76,425.248 257.312,424.745 C 253.644,425.342 250.949,423.858 248.374,421.862 C 245.784,419.683 245.694,416.111 245.895,413.224 C 246.884,407.952 252.642,406.762 256.214,403.987 C 256.829,402.387 254.931,402.201 254.125,401.79 C 248.466,402.084 241.618,402.084 238.039,397.138 C 236.343,394.456 237.835,391.368 239.025,388.98 C 243.305,384.904 249.959,386.891 255.132,385.401 C 253.345,380.336 245.894,374.677 251.259,369.612 C 262.487,367.526 270.324,377.956 279.864,382.128 C 289.899,388.089 304.495,385.401 313.433,378.942 C 323.078,369.018 330.43,357.791 338.178,347.453 L 343.843,346.767 C 343.936,350.34 346.022,354.119 349.613,355.312 C 354.678,356.004 357.45,355.705 362.123,354.212 C 364.098,356.205 361.029,357.884 361.029,359.97 L 357.846,364.247 C 360.822,367.029 364.7,365.036 368.567,364.64 C 373.749,363.057 378.218,359.479 382.888,356.398 C 383.092,358.589 382.295,361.868 383.577,362.854 C 389.535,361.868 393.612,358.085 398.179,354.605 C 400.469,357.398 399.573,361.756 401.77,364.247 C 405.705,362.431 411.604,357.195 413.579,352.426 C 415.377,352.726 414.784,355.109 416.459,356.005 C 419.675,352.849 421.638,346.858 423.217,342.488 C 425.807,342.488 425.303,346.564 428.285,346.357 C 431.768,344.175 430.374,340.009 432.16,337.123 C 454.219,356.692 478.449,377.157 507.66,382.516 C 519.882,382.93 533.789,379.447 540.248,367.527 C 545.109,358.781 544.717,347.062 540.548,338.125 C 536.969,332.263 531.311,326.99 525.945,323.118 C 527.83,319.153 531.996,316.156 535.575,313.887 L 552.374,326.002"
   style="fill:#ffb300"
   id="path97" />
<path
   d="M 340.266,321.033 L 340.266,322.019 L 320.604,340.305 C 320.79,343.38 326.658,344.276 327.051,347.849 C 322.987,348.253 319.204,347.063 315.632,347.456 C 313.043,344.573 313.141,340.515 312.749,336.732 C 315.929,332.449 319.9,328.574 318.519,322.429 C 324.368,316.561 333.213,319.84 340.266,321.033"
   style="fill:#ffb300"
   id="path99" />
<path
   d="M 292.376,328.181 L 279.17,331.76 C 276.88,330.663 275.598,327.888 275.598,325.304 C 279.059,323.119 281.26,315.863 285.929,320.643 C 288.804,322.222 294.07,323.119 292.376,328.181"
   style="fill:#ffb300"
   id="path101" />
<path
   d="M 311.648,322.825 C 311.759,326.002 310.662,329.38 307.383,330.663 C 305.393,331.46 302.614,332.449 300.624,330.963 C 298.352,328.685 298.739,325.304 300.231,322.825 C 301.127,320.535 303.51,320.442 305.203,319.546 C 307.683,319.84 310.569,320.049 311.648,322.825"
   style="fill:#ffb300"
   id="path103" />
<path
   d="M 293.081,334.235 C 292.191,338.61 286.826,341.102 284.833,344.983 C 283.235,344.983 279.474,345.466 279.474,342.786 C 279.362,335.542 288.411,336.732 293.081,334.235"
   style="fill:#ffb300"
   id="path105" />
<path
   d="M 298.838,338.911 C 298.838,343.584 296.359,348.152 293.473,352.129 C 291.78,352.225 290.197,352.129 289.9,350.343 C 291.687,346.174 294.762,342.49 297.753,338.911 L 298.838,338.911"
   style="fill:#ffb300"
   id="path107" />
<path
   d="M 307.383,341.704 L 308.777,353.528 C 307.482,355.707 304.8,355.503 303.118,354.214 C 300.028,349.844 304.197,344.866 304.904,340.304 C 306.101,340.011 307.083,340.808 307.383,341.704"
   style="fill:#ffb300"
   id="path109" />
<path
   d="M 241.913,374.679 C 239.329,374.586 236.254,373.49 233.368,372.893 C 233.668,370.51 236.345,370.603 237.648,368.91 L 242.606,369.315 L 241.913,374.679"
   style="fill:#ffb300"
   id="path111" />
<path
   d="M 231.581,388.982 C 231.188,391.068 230.889,393.652 230.496,395.348 L 222.251,393.954 C 223.333,390.769 228.002,388.386 231.581,388.982"
   style="fill:#ffb300"
   id="path113" />
<path
   d="M 455.412,404.283 C 459.177,413.823 460.274,423.558 456.201,433.299 C 455.008,431.606 455.808,428.327 453.315,426.837 C 450.036,430.802 451.136,436.578 446.871,440.058 C 444.377,437.861 443.481,431.699 439.315,431.507 C 437.319,434.885 440.313,437.861 439.719,441.545 C 439.315,445.013 437.915,448.199 435.439,450.782 C 432.364,448.995 432.96,443.52 429.388,442.237 L 428.288,443.631 C 428.585,447.695 428.977,453.465 425.809,456.926 C 421.04,463.089 413.281,463.089 407.523,465.882 C 410.298,477.409 412.091,491.208 404.637,501.246 C 398.886,506.611 391.737,512.078 392.13,521.318 L 391.435,522.304 C 390.638,517.535 391.92,511.877 388.944,508.005 C 384.382,512.27 387.751,521.114 383.193,525.877 C 376.335,531.059 375.439,516.739 367.79,520.518 C 361.328,525.379 361.922,533.834 361.032,541.28 C 359.449,544.466 355.969,545.656 352.783,544.556 C 350.1,539.694 350.697,533.532 349.615,528.074 C 347.124,524.001 343.641,527.967 340.959,528.763 C 333.811,531.838 328.536,541.672 320.305,539.886 C 317.517,537.908 317.125,534.428 317.419,531.647 C 318.015,530.457 318.612,528.863 318.108,527.67 C 314.836,526.18 309.863,531.06 306.992,526.288 C 305.095,523.797 305.002,520.311 305.991,517.332 C 308.182,512.177 314.344,512.866 317.722,509.791 C 316.421,506.812 312.546,508.598 310.963,505.511 C 310.753,503.128 310.864,499.366 313.846,498.36 C 328.949,497.874 338.684,512.177 355.273,509.102 C 365.403,508.005 375.738,504.13 381.103,494.488 C 386.765,483.665 384.676,468.062 378.22,458.327 C 376.134,456.037 373.359,454.748 370.374,455.848 L 367.098,457.934 C 366.208,454.25 366.894,450.378 369.277,447.597 C 370.97,444.417 374.735,445.014 375.739,441.546 C 374.144,440.152 370.77,440.949 368.885,442.238 C 365.201,444.621 363.022,448.886 360.639,451.568 C 359.45,447.396 360.936,442.534 363.508,439.052 C 366.208,434.886 370.86,435.473 374.25,432.89 C 374.643,431.901 373.752,431.397 373.156,430.804 C 366.391,429.129 361.923,433.19 357.453,437.266 C 357.16,431.607 361.425,426.932 366.004,424.357 C 373.845,421.573 381.883,425.85 388.255,419.394 C 401.955,414.512 418.752,414.029 430.075,402.894 C 439.215,402.799 446.959,402.799 455.412,404.283"
   style="fill:#ffb300"
   id="path115" />
<path
   d="M 237.24,424.748 C 235.358,425.144 233.871,426.744 231.875,427.229 C 232.471,422.961 234.668,418.888 238.04,416.505 C 236.646,419.392 242.305,423.264 237.24,424.748"
   style="fill:#ffb300"
   id="path117" />
<path
   d="M 304.497,500.853 L 299.524,500.853 C 298.538,498.863 300.918,497.874 302.018,496.978 C 303.511,497.371 304.014,495.677 305.597,496.274 L 304.497,500.853"
   style="fill:#ffb300"
   id="path119" />
<path
   d="M 287.017,517.745 C 285.524,521.809 282.356,527.872 286.624,531.646 C 292.675,531.242 302.521,528.67 306.696,535.225 C 303.81,541.48 301.127,549.92 306.282,555.993 C 307.978,557.477 309.369,559.766 312.052,558.858 C 314.231,554.887 316.62,550.325 319.899,547.349 C 321.796,551.614 316.824,554.794 315.928,558.858 C 314.645,560.755 316.024,566.42 312.053,564.538 C 301.926,558.766 292.283,551.911 287.017,541.28 C 285.132,538.597 281.559,538.99 278.766,539.493 C 277.084,539.583 274.893,542.469 273.806,539.886 C 273.212,537.497 275.895,536.122 277.385,534.821 C 278.878,534.218 281.167,534.728 281.947,533.034 C 281.654,529.659 277.385,529.866 276.588,526.683 C 275.299,524.091 274.502,520.422 275.896,517.745 C 276.792,515.953 278.579,515.062 280.161,514.466 C 282.356,514.853 285.929,514.559 287.017,517.745"
   style="fill:#ffb300"
   id="path121" />
<path
   d="M 299.132,519.531 C 301.332,525.987 294.481,523.404 291.295,524.483 C 291.981,521.318 295.47,518.725 298.446,518.039 L 299.132,519.531"
   style="fill:#ffb300"
   id="path123" />
<path
   d="M 475.88,518.431 C 476.473,522.102 474.78,524.896 471.207,525.189 L 469.714,525.189 C 470.2,522.01 472.7,519.327 475.88,518.431"
   style="fill:#ffb300"
   id="path125" />
<path
   d="M 343.844,537.706 C 347.809,543.658 344.44,550.92 340.958,555.992 C 334.7,565.131 331.72,575.555 323.472,583.902 C 320.991,584.295 318.517,583.399 317.721,581.312 C 316.732,573.657 320.011,567.309 322.091,560.251 C 324.57,557.568 328.739,561.45 331.035,558.072 C 330.139,553.795 324.369,549.326 330.642,545.562 C 334.215,541.579 338.18,538.393 342.445,535.914 L 343.844,537.706"
   style="fill:#ffb300"
   id="path127" />
<path
   d="M 476.866,544.851 L 467.928,549.134 C 469.121,545.361 471.41,541.971 474.78,539.189 C 474.99,540.982 477.258,542.567 476.866,544.851"
   style="fill:#ffb300"
   id="path129" />
<path
   d="M 310.569,549.134 L 310.266,549.527 C 309.561,546.844 309.672,543.365 311.648,540.589 C 317.517,542.468 311.055,546.251 310.569,549.134"
   style="fill:#ffb300"
   id="path131" />
<path
   d="M 488.393,554.886 C 488.393,557.961 484.814,558.558 483.028,560.251 C 455.007,573.657 422.721,585.484 388.943,576.34 C 373.45,572.575 359.448,568.502 344.944,562.43 C 344.735,558.072 348.313,556.771 351.682,555.992 L 352.482,555.581 C 383.674,569.902 424.316,574.554 456.904,559.864 C 465.437,557.871 473.685,551.313 483.028,549.134 C 486.214,549.326 489.083,551.112 488.393,554.886"
   style="fill:#ffb300"
   id="path133" />
<path
   d="M 523.757,553.795 L 522.358,561.351 C 513.232,568.298 502.303,570.588 492.269,575.261 C 498.731,570.681 504.986,564.123 512.641,562.044 C 516.7,558.969 517.796,553.996 520.871,550.217 C 522.669,550.216 523.457,552.413 523.757,553.795"
   style="fill:#ffb300"
   id="path135" />
<path
   d="M 497.331,564.93 C 496.141,566.213 494.852,567.22 493.366,567.813 C 492.563,566.021 493.255,563.94 494.055,562.43 C 495.343,562.84 498.916,562.43 497.331,564.93"
   style="fill:#ffb300"
   id="path137" />
<path
   d="M 490.482,575.953 C 459.68,588.167 423.618,598.801 388.55,591.739 C 370.564,588.763 353.186,584.195 336.693,577.437 C 336.693,574.368 339.166,572.374 340.658,569.902 C 350.603,570.384 359.933,575.651 369.275,577.74 C 397.284,586.788 431.77,588.763 459.386,577.437 C 468.413,573.957 477.357,570.289 485.803,565.616 C 487.89,568.598 487.497,574.26 490.482,575.953"
   style="fill:#ffb300"
   id="path139" />
<path
   d="M 132.485,146.23 L 133.375,145.876 C 138.524,143.862 139.888,146.029 143.787,153.051 L 159.37,181.165 C 161.558,185.103 164.207,190.04 164.633,194.122 C 165.008,197.953 163.275,200.863 161.042,202.104 C 159.315,203.054 157.229,203.512 154.94,202.697 C 153.822,202.34 152.036,201.384 151.151,199.78 C 149.913,197.547 151.496,195.134 148.486,189.707 C 145.89,185.019 141.961,182.606 139.15,184.165 C 134.933,186.497 135.823,193.378 139.366,199.774 C 147.812,214.997 160.359,216.537 168.277,212.144 C 172.944,209.561 177.571,204.489 178.315,197.254 C 178.866,190.268 176.115,184.692 172.569,178.303 L 155.155,146.895 C 150.665,138.802 150.032,137.061 154.969,133.905 L 155.553,133.443 L 150.709,124.715 L 127.646,137.495 L 132.485,146.23"
   style="fill:white"
   id="path141" />
<path
   d="M 181.105,121.341 C 179.429,122.084 179.049,124.872 180.29,127.662 C 181.597,130.596 184.15,132.439 185.919,131.66 C 187.546,130.934 187.909,127.971 186.668,125.183 C 185.421,122.396 182.733,120.616 181.105,121.341 M 170.531,126.05 C 168.72,126.853 168.463,129.676 169.77,132.617 C 171.077,135.557 173.531,137.173 175.294,136.388 C 176.921,135.662 177.314,132.776 176.073,129.992 C 174.796,127.129 172.243,125.283 170.531,126.05 z M 189.411,167.121 L 186.381,150.954 L 196.239,164.076 L 189.411,167.121 z M 186.417,136.669 L 179.406,139.792 L 186.207,178.654 C 187.232,184.609 188.215,189.138 184.538,191.587 L 187.295,197.764 L 201.259,191.545 L 198.51,185.371 L 198.025,185.494 C 196.808,185.677 194.317,186.783 193.146,184.142 C 192.708,183.165 192.352,181.514 192.145,180.434 L 190.928,174.296 L 200.645,169.968 L 204.353,175.003 C 205.003,175.977 206.331,177.733 206.796,178.789 C 207.833,181.121 204.967,182.221 204.113,182.871 L 206.87,189.045 L 223.328,181.723 L 220.571,175.543 L 220.044,175.69 C 216.489,176.101 215.827,174.854 212.506,170.559 L 186.417,136.669 z "
   style="fill:white"
   id="path143" />
<path
   d="M 221.378,105.591 C 219.655,106.217 219.076,108.972 220.122,111.841 C 221.219,114.865 223.644,116.879 225.454,116.223 C 227.13,115.608 227.696,112.68 226.653,109.815 C 225.608,106.946 223.048,104.982 221.378,105.591 M 210.496,109.55 C 208.638,110.224 208.176,113.024 209.282,116.048 C 210.379,119.069 212.714,120.856 214.53,120.193 C 216.2,119.585 216.802,116.737 215.75,113.872 C 214.683,110.923 212.264,108.906 210.496,109.55 z M 226.468,151.841 L 224.577,135.503 L 233.491,149.281 L 226.468,151.841 z M 225.602,121.254 L 218.397,123.882 L 222.467,163.124 C 223.075,169.14 223.744,173.725 219.901,175.91 L 222.215,182.261 L 236.584,177.04 L 234.27,170.68 L 233.778,170.77 C 232.552,170.869 229.993,171.795 229.004,169.082 C 228.641,168.075 228.401,166.406 228.267,165.321 L 227.482,159.108 L 237.481,155.469 L 240.82,160.747 C 241.404,161.766 242.6,163.612 242.999,164.7 C 243.871,167.101 240.931,167.997 240.041,168.578 L 242.355,174.938 L 259.286,168.776 L 256.972,162.422 L 256.43,162.533 C 252.851,162.692 252.282,161.409 249.267,156.887 L 225.602,121.254 z "
   style="fill:white"
   id="path145" />
<path
   d="M 273.407,128.1 L 274.04,126.155 C 276.114,119.942 278.287,114.136 283.046,112.356 L 281.406,105.793 L 265.084,109.857 L 266.717,116.418 L 267.442,116.241 C 268.21,116.049 269.933,115.62 270.356,117.302 C 270.694,118.665 269.646,120.797 269.364,121.711 L 264.838,135.675 L 262.401,125.916 C 260.884,119.832 260.645,118.867 264.223,117.044 L 262.586,110.483 L 246.117,114.589 L 247.75,121.15 C 251.979,120.521 252.506,122.427 253.882,127.954 L 260.689,155.244 C 261.106,156.919 261.54,158.852 261.153,159.971 C 260.731,161.353 259.202,162.156 258.066,162.525 L 259.705,169.086 L 276.175,164.98 L 274.536,158.419 C 270.564,158.647 270.226,157.283 268.79,151.525 L 267.15,144.964 L 269.551,138.412 L 277.401,150.056 C 278.039,151.003 279.993,153.488 280.269,154.612 C 280.872,157.012 278.003,157.387 277.035,157.798 L 278.671,164.359 L 296.963,159.8 L 295.306,153.158 C 293.642,153.23 291.931,152.894 290.285,151.431 C 288.697,149.959 285.921,145.973 284.479,143.869 L 273.407,128.1"
   style="fill:white"
   id="path147" />
<path
   d="M 315.749,149.344 L 315.314,149.419 C 314.226,149.527 312.287,149.368 311.349,148.023 C 310.752,147.208 310.417,145.595 310.147,144.048 L 304.929,114.478 C 304.626,112.779 304.332,110.822 304.794,109.733 C 305.357,108.376 307.009,107.752 308.361,107.425 L 307.168,100.684 L 289.673,103.771 L 290.848,110.434 L 291.202,110.452 C 292.239,110.353 294.13,110.524 295.009,111.788 C 295.683,112.765 296.076,114.705 296.361,116.326 L 301.474,145.324 C 301.774,147.03 302.074,148.987 301.621,150.153 C 301.094,151.424 299.46,152.131 298.258,152.425 L 299.43,159.085 L 316.93,156.004 L 315.749,149.344"
   style="fill:white"
   id="path149" />
<path
   d="M 336.669,109.985 L 332.838,110.453 C 333.096,112.581 333.365,115.959 332.886,117.763 C 332.388,119.402 331.181,119.714 330.003,119.861 L 327.548,120.164 L 326.559,112.14 C 326.337,110.336 326.127,108.205 326.448,107.168 C 326.922,105.696 329.706,105.271 330.641,105.154 C 336.141,104.48 340.663,108.832 344.506,115.755 L 347.515,112.644 L 340.571,96.291 L 312.226,99.771 L 313.053,106.488 L 314.219,106.671 C 316.913,107.088 317.315,108.703 317.696,111.814 L 321.199,140.309 C 321.82,145.386 321.942,147.196 319.056,148.467 L 318.253,148.812 L 319.074,155.526 L 348.258,151.947 L 351.282,131.962 L 347.509,129.597 C 344.802,139.242 341.535,145.122 334.606,145.973 C 333.575,146.105 331.414,146.369 330.718,144.372 C 330.412,143.494 330.038,140.47 329.768,138.258 L 328.474,127.696 L 329.849,127.522 C 331.174,127.363 332.807,127.246 333.832,129.113 C 334.857,130.984 335.525,133.564 335.954,135.833 L 339.785,135.369 L 336.669,109.985"
   style="fill:white"
   id="path151" />
<path
   d="M 375.045,113.833 L 376.046,112.046 C 379.262,106.345 382.502,101.052 387.51,100.213 L 387.162,93.461 L 370.354,94.339 L 370.71,101.092 L 371.453,101.053 C 372.245,101.011 374.025,100.918 374.112,102.644 C 374.184,104.05 372.748,105.941 372.302,106.786 L 365.193,119.632 L 364.665,109.586 C 364.338,103.325 364.285,102.336 368.139,101.227 L 367.788,94.468 L 350.836,95.358 L 351.19,102.111 C 355.464,102.3 355.617,104.275 355.91,109.961 L 357.385,138.042 C 357.478,139.774 357.532,141.759 356.942,142.778 C 356.268,144.055 354.604,144.549 353.426,144.696 L 353.777,151.449 L 370.729,150.565 L 370.373,143.809 C 366.435,143.273 366.359,141.867 366.048,135.938 L 365.692,129.186 L 369.295,123.222 L 374.783,136.149 C 375.229,137.198 376.668,140.009 376.728,141.163 C 376.857,143.636 373.974,143.459 372.948,143.672 L 373.302,150.431 L 392.13,149.445 L 391.774,142.606 C 390.122,142.366 388.501,141.704 387.17,139.962 C 385.893,138.206 383.921,133.767 382.908,131.429 L 375.045,113.833"
   style="fill:white"
   id="path153" />
<path
   d="M 416.919,113.006 L 418.007,111.274 C 421.523,105.75 425.035,100.63 430.086,100.055 L 430.086,93.287 L 413.257,93.287 L 413.257,100.055 L 414,100.055 C 414.792,100.055 416.578,100.055 416.578,101.784 C 416.578,103.19 415.043,105 414.546,105.83 L 406.775,118.284 L 406.775,108.216 C 406.775,101.949 406.775,100.96 410.686,100.055 L 410.686,93.287 L 393.707,93.287 L 393.707,100.055 C 397.966,100.466 398.017,102.447 398.017,108.138 L 398.017,136.263 C 398.017,137.998 397.966,139.977 397.322,140.969 C 396.578,142.204 394.897,142.615 393.707,142.701 L 393.707,149.46 L 410.686,149.46 L 410.686,142.701 C 406.775,141.958 406.775,140.552 406.775,134.618 L 406.775,127.853 L 410.686,122.078 L 415.484,135.275 C 415.883,136.348 417.166,139.234 417.166,140.388 C 417.166,142.867 414.301,142.537 413.258,142.702 L 413.258,149.461 L 432.113,149.461 L 432.113,142.615 C 430.479,142.291 428.897,141.542 427.662,139.732 C 426.472,137.916 424.743,133.378 423.852,130.983 L 416.919,113.006"
   style="fill:white"
   id="path155" />
<path
   d="M 452.699,143.623 C 446.075,143.272 444.762,131.481 445.236,122.421 C 445.734,112.95 448.581,101.036 455.303,101.393 C 461.678,101.723 462.943,113.522 462.496,122.169 C 462.25,126.779 461.588,131.949 460.125,136.085 C 458.457,140.622 455.96,143.796 452.699,143.623 M 451.815,151.916 C 462.44,152.474 471.114,140.212 472.061,122.169 C 472.951,105.043 465.327,93.573 455.54,93.063 C 445.113,92.515 436.616,104.375 435.684,122.163 C 435.249,130.486 436.508,137.736 439.919,143.53 C 443.192,149.152 447.071,151.67 451.815,151.916 z "
   style="fill:white"
   id="path157" />
<path
   d="M 506.403,136.441 L 503.37,133.078 C 499.848,140.706 494.57,147.123 488.872,146.422 C 486.118,146.083 486.007,144.992 486.381,141.959 L 490.235,110.519 C 490.436,108.885 490.693,107.174 491.395,106.347 C 492.333,105.211 494.096,105.094 495.489,105.1 L 496.31,98.389 L 479.019,96.267 L 478.198,102.975 C 482.181,104.216 482.007,105.609 481.285,111.502 L 478.063,137.778 C 477.338,143.679 477.11,145.145 472.998,145.304 L 472.177,152.015 L 498.903,155.3 L 506.403,136.441"
   style="fill:white"
   id="path159" />
<path
   d="M 523.862,153.369 L 523.424,153.279 C 522.375,152.97 520.639,152.092 520.271,150.498 C 520.025,149.515 520.319,147.896 520.646,146.362 L 526.886,116.989 C 527.243,115.296 527.704,113.368 528.538,112.538 C 529.569,111.489 531.337,111.525 532.707,111.735 L 534.131,105.036 L 516.753,101.343 L 515.347,107.958 L 515.668,108.111 C 516.666,108.407 518.356,109.274 518.692,110.781 C 518.956,111.929 518.596,113.877 518.252,115.489 L 512.126,144.295 C 511.769,145.991 511.311,147.919 510.457,148.827 C 509.492,149.801 507.706,149.852 506.485,149.675 L 505.073,156.284 L 522.457,159.986 L 523.862,153.369"
   style="fill:white"
   id="path161" />
<path
   d="M 544.626,158.569 L 544.197,158.464 C 543.16,158.123 541.451,157.181 541.14,155.575 C 540.93,154.586 541.281,152.976 541.656,151.454 L 548.918,122.324 C 549.34,120.646 549.862,118.734 550.728,117.927 C 551.795,116.92 553.558,117.019 554.921,117.277 L 556.578,110.63 L 539.335,106.332 L 537.701,112.895 L 538.019,113.06 C 539.008,113.393 540.66,114.319 540.947,115.835 C 541.169,116.989 540.74,118.922 540.342,120.525 L 533.221,149.097 C 532.798,150.773 532.277,152.682 531.392,153.566 C 530.391,154.51 528.611,154.492 527.388,154.271 L 525.758,160.835 L 542.991,165.13 L 544.626,158.569"
   style="fill:white"
   id="path163" />
<path
   d="M 559.885,154.691 L 559.474,155.941 C 558.964,157.514 558.284,159.46 557.505,160.245 C 556.363,161.522 554.588,161.381 553.527,161.123 L 552.961,160.94 L 550.875,167.372 L 568.055,172.959 L 570.144,166.524 L 569.578,166.336 C 568.565,165.922 567.048,164.996 566.871,163.291 C 566.712,162.197 567.3,160.222 567.809,158.651 L 578.281,126.413 C 578.59,125.466 578.809,125.277 579.558,125.523 C 581.303,126.086 582.549,128.664 583.161,130.942 C 583.815,133.408 583.916,136.136 584.01,139.547 L 588.185,138.387 L 589.696,120.926 L 563.944,112.558 L 554.91,127.574 L 557.604,130.967 C 559.678,128.255 561.366,126.117 563.341,124.505 C 565.178,123.018 567.702,121.667 569.437,122.239 C 570.192,122.485 570.261,122.76 569.953,123.705 L 559.885,154.691"
   style="fill:white"
   id="path165" />
<path
   d="M 594.113,167.279 L 593.579,168.49 C 592.905,169.991 592.02,171.859 591.166,172.557 C 589.895,173.705 588.145,173.381 587.114,173.013 L 586.574,172.773 L 583.825,178.947 L 600.325,186.296 L 603.073,180.122 L 602.534,179.882 C 601.568,179.361 600.157,178.278 600.157,176.568 C 600.115,175.462 600.906,173.559 601.574,172.048 L 615.368,141.081 C 615.766,140.179 616.006,140.014 616.725,140.332 C 618.401,141.081 619.371,143.77 619.737,146.099 C 620.133,148.625 619.953,151.338 619.683,154.746 L 623.954,154.03 L 627.28,136.823 L 602.551,125.811 L 591.995,139.793 L 594.321,143.453 C 596.671,140.971 598.568,139.02 600.712,137.626 C 602.687,136.337 605.333,135.264 607.009,136.007 C 607.735,136.331 607.764,136.612 607.365,137.521 L 594.113,167.279"
   style="fill:white"
   id="path167" />
<path
   d="M 637.935,193.921 C 629.372,189.173 635.265,172.668 641.753,160.958 C 648.542,148.711 660.039,134.76 668.725,139.576 C 676.967,144.15 671.012,160.614 664.814,171.796 C 661.505,177.757 657.282,184.184 652.672,188.727 C 647.517,193.664 642.152,196.259 637.935,193.921 M 631.398,204.354 C 645.134,211.973 664.575,201.315 677.502,177.991 C 689.778,155.845 687.078,135.692 674.427,128.681 C 660.948,121.206 642,131.439 629.244,154.439 C 623.282,165.193 620.255,175.626 621.037,185.529 C 621.742,195.105 625.266,200.953 631.398,204.354 z "
   style="fill:white"
   id="path169" />
<path
   d="M 198.528,64.463 C 195.648,63.648 192.309,63.813 189.632,64.838 C 183.365,67.244 178.914,73.973 181.819,81.535 C 183.003,84.616 185.215,87.176 188.203,88.132 C 190.799,88.935 194.218,88.551 196.853,88.285 L 202.922,87.692 C 205.125,87.464 208.539,86.778 209.681,89.748 C 211.051,93.309 207.954,95.862 205.287,96.888 C 199.454,99.121 193.481,96.211 188.853,91.724 L 185.679,94.493 L 194.943,106.554 L 197.856,105.439 L 197.581,102.694 C 200.59,103.83 204.609,103.407 207.427,102.325 C 214.473,99.618 219.287,92.251 216.035,83.775 C 214.872,80.748 212.504,78.068 209.528,77.286 C 206.806,76.594 203.554,76.98 200.83,77.151 L 197.201,77.427 L 195.238,77.685 C 193.347,77.853 189.475,78.662 188.462,76.018 C 187.32,73.045 190.126,70.917 192.316,70.075 C 194.453,69.254 196.878,69.314 199.141,69.988 C 201.206,70.567 203.352,72.095 205.132,73.396 L 205.84,73.93 L 208.78,71.131 L 201.365,61.396 L 198.449,62.514 L 198.528,64.463"
   style="fill:white"
   id="path171" />
<path
   d="M 269.885,41.972 L 252.414,45.686 L 253.403,50.329 C 257.332,50.026 257.839,50.683 258.528,53.908 L 262.248,71.394 C 263.063,75.242 264.217,78.428 267.946,80.418 C 271.246,82.204 275.223,82.124 278.694,81.389 C 282.408,80.595 286.661,78.808 288.888,75.263 C 291.061,71.721 290.263,67.452 289.403,63.439 L 286.385,49.229 C 285.507,45.099 285.315,43.957 289.514,42.656 L 288.525,38.008 L 274.825,40.924 L 275.802,45.51 C 280.148,45.171 280.352,46.136 281.239,50.329 L 284.248,64.476 C 284.757,66.847 285.303,69.694 284.161,71.825 C 283.136,73.758 280.939,74.936 279.006,75.346 C 276.914,75.789 274.813,75.175 273.155,73.395 C 271.917,72.061 271.393,70.104 270.982,68.177 L 267.796,53.182 C 266.968,49.036 266.669,47.859 270.871,46.615 L 269.885,41.972"
   style="fill:white"
   id="path173" />
<path
   d="M 357.556,65.582 C 350.591,65.951 348.136,57.855 347.803,51.495 C 347.452,44.853 349.35,36.29 356.42,35.922 C 363.13,35.571 365.537,43.672 365.855,49.739 C 366.02,52.973 365.801,56.638 364.653,59.654 C 363.314,62.965 360.988,65.402 357.556,65.582 M 357.397,71.444 C 368.574,70.86 376.537,61.517 375.872,48.866 C 375.243,36.847 366.206,29.555 355.905,30.095 C 344.938,30.673 337.115,39.716 337.775,52.193 C 338.081,58.032 340.056,62.965 344.165,66.691 C 348.109,70.308 352.407,71.708 357.397,71.444 z "
   style="fill:white"
   id="path175" />
<path
   d="M 437.429,31.545 L 421.409,30.703 L 421.163,35.441 C 425.458,36.073 425.446,37.228 425.23,41.334 L 424.262,59.824 C 424.046,63.978 423.882,65.132 419.595,65.312 L 419.349,70.051 L 433.54,70.794 L 433.792,66.062 L 433.375,66.035 C 432.338,65.865 430.387,65.418 429.76,64.399 C 429.281,63.617 429.299,62.232 429.362,61.078 L 430.447,40.334 L 437.703,71.013 L 443.577,71.322 L 453.974,42.03 L 452.943,61.734 C 452.877,63.059 452.721,65.025 451.9,65.792 C 451.022,66.613 449.188,66.811 448.088,66.811 L 447.677,66.784 L 447.425,71.523 L 466.355,72.518 L 466.601,67.779 L 466.184,67.755 C 465.096,67.584 463.091,67.129 462.465,66.115 C 462.033,65.396 462.039,64.236 462.102,63.139 L 463.199,42.165 C 463.262,40.948 463.385,39.566 464.101,38.856 C 464.925,38.025 466.76,37.891 468.165,37.906 L 468.411,33.17 L 451.827,32.3 L 443.258,56.532 L 437.429,31.545"
   style="fill:white"
   id="path177" />
<path
   d="M 537.206,52.759 L 533.216,51.98 C 532.934,53.458 532.326,55.753 531.373,56.809 C 530.453,57.75 529.152,57.615 527.923,57.375 L 525.373,56.877 L 526.452,51.308 C 526.692,50.061 527.031,48.596 527.624,47.999 C 528.478,47.166 531.4,47.675 532.368,47.864 C 538.096,48.976 541.534,53.124 543.619,58.78 L 547.455,57.575 L 544.683,44.84 L 515.188,39.1 L 514.286,43.758 L 515.416,44.214 C 518.024,45.257 518.006,46.429 517.595,48.59 L 513.753,68.357 C 513.064,71.873 512.722,73.107 509.479,73.126 L 508.577,73.126 L 507.675,77.783 L 538.037,83.682 L 546.267,71.375 L 543.063,68.75 C 537.839,74.334 533.019,77.286 525.814,75.886 C 524.741,75.679 522.493,75.241 522.31,73.734 C 522.223,73.063 522.634,70.964 522.928,69.43 L 524.355,62.108 L 525.785,62.383 C 527.166,62.653 528.842,63.033 529.393,64.556 C 529.944,66.079 529.951,67.967 529.798,69.588 L 533.781,70.361 L 537.206,52.759"
   style="fill:white"
   id="path179" />
<path
   d="M 610.988,64.76 L 596.742,59.29 L 595.04,63.72 C 596.316,64.334 598.013,65.293 598.318,66.525 C 598.483,67.398 598.054,68.656 597.644,69.735 L 590.217,89.079 C 589.779,90.212 589.24,91.482 588.356,91.896 C 587.319,92.423 585.557,92.055 584.325,91.65 L 582.623,96.074 L 595.601,101.053 L 597.3,96.629 C 596.029,96.015 594.336,95.055 594.027,93.823 C 593.844,93.005 594.291,91.692 594.687,90.667 L 602.231,71.005 L 606.538,105.257 L 612.565,107.571 L 622.96,80.509 C 624.449,76.622 625.033,75.543 629.269,76.856 L 630.968,72.432 L 617.943,67.427 L 616.238,71.854 C 620.245,73.77 619.841,74.971 618.392,78.753 L 613.971,90.262 L 610.988,64.76"
   style="fill:white"
   id="path181" />
<g
   id="g183">
	<path
   d="M 729.301,261.508 L 710.821,284.613 C 613.43,201.01 534.223,170.126 405.847,170.126 C 277.471,170.126 198.276,201.01 100.891,284.614 L 82.411,261.509 L 82.411,195.06 L 23.588,169.323 L 5.848,142.726 C 136.99,40.887 239.844,4.328 405.847,4.328 C 571.856,4.328 674.696,40.9 805.847,142.726 L 788.107,169.323 L 729.301,195.06 L 729.301,261.508 M 721.347,258.715 L 721.347,189.863 L 782.784,162.978 L 795.124,144.476 C 668.663,46.962 566.437,12.276 405.848,12.276 C 245.27,12.276 143.033,46.95 16.572,144.476 L 28.908,162.978 L 90.359,189.863 L 90.359,258.715 L 101.967,273.227 C 197.41,192.153 279.674,162.172 405.847,162.172 C 532.032,162.172 614.302,192.153 709.744,273.227 L 721.347,258.715 z "
   id="path185" />
</g>
</svg>