<?xml version="1.0" encoding="UTF-8" standalone="no"?>
<svg
   xmlns:dc="http://purl.org/dc/elements/1.1/"
   xmlns:cc="http://creativecommons.org/ns#"
   xmlns:rdf="http://www.w3.org/1999/02/22-rdf-syntax-ns#"
   xmlns:svg="http://www.w3.org/2000/svg"
   xmlns="http://www.w3.org/2000/svg"
   version="1.1"
   id="svg3776"
   viewBox="0 0 500 284.62056"
   height="80.326248mm"
   width="141.11111mm">
  <defs
     id="defs3778">
    <clipPath
       id="clipPath320"
       clipPathUnits="userSpaceOnUse">
      <path
         id="path322"
         d="m 719.791,226.428 122.755,0 0,70.196 -122.755,0 0,-70.196 z" />
    </clipPath>
  </defs>
  <metadata
     id="metadata3781">
    <rdf:RDF>
      <cc:Work
         rdf:about="">
        <dc:format>image/svg+xml</dc:format>
        <dc:type
           rdf:resource="http://purl.org/dc/dcmitype/StillImage" />
        <dc:title></dc:title>
      </cc:Work>
    </rdf:RDF>
  </metadata>
  <g
     transform="translate(-283.70093,-179.74561)"
     id="layer1">
    <g
       id="g316"
       transform="matrix(4.0957253,0,0,-4.0957253,-2666.7404,1393.6244)">
      <g
         clip-path="url(#clipPath320)"
         id="g318">
        <g
           transform="translate(803.2253,245.8536)"
           id="g324">
          <path
             id="path326"
             style="fill:#008e7e;fill-opacity:1;fill-rule:evenodd;stroke:none"
             d="m 0,0 0,50.521 -43.89,0 0,-40.219 c 2.192,0.496 3.871,0.43 6.216,-0.235 2.601,-0.732 3.267,-2.841 5.847,-3.57 2.646,-0.732 4.388,0.729 7.034,-0.044 2.536,-0.733 3.226,-2.797 5.806,-3.505 2.644,-0.753 4.409,0.795 7.073,0.063 2.538,-0.687 3.226,-2.796 5.806,-3.396 C -3.763,-0.923 -2.085,-0.708 0,0 m -19.118,13.486 3.333,0 0,-6.369 -3.333,0 0,6.369 z m 0,37.035 c 0,0 2.99,-1.117 4.301,-2.151 1.099,-0.881 1.421,-1.096 2.001,-2.452 0.774,-1.742 0.149,-2.259 1.356,-4.538 1.204,-2.345 3.417,-2.001 4.516,-4.859 1.266,-3.4 -1.377,-4.947 -0.86,-8.368 0.43,-2.796 2.449,-3.032 2.3,-6.303 -0.088,-1.675 -0.753,-3.118 -1.915,-4.515 -1.807,-2.259 -4.731,-3.98 -8.321,-3.827 4.02,-1.055 8.449,0.322 10.839,2.58 2.816,2.668 3.395,4.58 3.031,7.077 -0.451,3.011 -1.786,2.945 -2.237,5.741 -0.537,3.268 1.893,5.249 0.409,8.991 -1.29,3.31 -4.345,3.397 -5.504,5.246 -1.356,2.15 -0.669,1.894 -1.592,3.787 -0.496,0.989 -1.873,1.936 -2.989,2.474 -1.312,0.645 -5.183,1.159 -5.335,1.117 m -5.699,0 c -1.439,-3.268 -2.278,-5.033 -4.364,-8.044 -1.355,-1.957 -2.559,-3.205 -3.998,-4.839 l 6.191,0 c -1.44,-2.322 -1.891,-3.011 -3.979,-5.548 -1.331,-1.637 -2.344,-2.625 -3.999,-4.131 l 6.517,0 c -1.592,-2.386 -2.257,-3.225 -4.408,-5.807 -1.099,-1.353 -2.258,-2.386 -3.895,-3.743 l 11.935,0 0,-6.708 -3.375,0 0,3.764 -15.719,0 c 3.139,2.514 5.009,4.172 7.589,6.753 1.249,1.245 1.571,1.7 2.518,2.838 l -8.193,0 c 3.032,2.41 4.194,3.486 7.226,6.712 1.245,1.332 1.613,1.783 2.58,2.966 l -8.129,0 c 3.333,2.775 4.924,4.066 8.493,7.656 3.486,3.465 4.43,4.991 6.882,8.131 l 0.128,0 z" />
        </g>
        <g
           transform="translate(759.3773,253.0795)"
           id="g328">
          <path
             id="path330"
             style="fill:#1a68bb;fill-opacity:1;fill-rule:evenodd;stroke:none"
             d="m 0,0 0,-11.053 37.979,0 c 0,0 -1.443,0.299 -1.571,0.344 -2.602,0.732 -2.882,2.581 -5.462,3.268 -2.689,0.69 -4.495,-0.773 -7.205,0 -2.535,0.732 -3.181,2.862 -5.785,3.528 -2.729,0.71 -4.516,-0.794 -7.072,0.042 -2.518,0.797 -3.486,2.99 -6.022,3.593 C 2.819,0.215 2.022,0.454 0.28,0.086 0,0.045 0,0 0,0" />
        </g>
        <g
           transform="translate(784.9674,230.3894)"
           id="g332">
          <path
             id="path334"
             style="fill:#008e7e;fill-opacity:1;fill-rule:evenodd;stroke:none"
             d="M 0,0 -0.042,0.086 1.054,2.733 1.141,2.841 1.207,2.733 2.282,0.066 2.216,0 0,0 Z M 2.452,-0.537 2.56,-0.621 3.527,-2.903 C 3.593,-3.032 3.292,-3.139 3.205,-3.16 c -0.129,0 -0.17,-0.021 -0.17,-0.087 0,-0.087 0.149,-0.087 0.364,-0.087 0.946,-0.021 2.043,-0.021 2.473,-0.021 0.451,0 0.066,0.195 -0.021,0.195 -0.152,0 0.107,0 -0.086,0.041 C 5.508,-3.074 5.161,-2.925 4.71,-1.936 3.936,-0.299 2.022,4.11 1.744,4.711 1.613,4.947 1.55,5.054 1.442,5.054 1.314,5.054 1.249,4.926 1.099,4.624 l -3.011,-6.796 c -0.238,-0.537 -0.475,-0.881 -0.582,-0.881 -0.107,0 -0.516,-0.128 -0.516,-0.194 0,-0.087 0.065,-0.108 0.214,-0.108 0.625,0 0.86,0.021 0.992,0.021 0.364,0 0.666,-0.021 1.051,-0.021 0.132,0 0.216,0.021 0.216,0.108 0,0.066 -0.043,0.087 -0.192,0.087 0,0 -0.43,0.128 -0.43,0.323 0,0.128 0.042,0.409 0.171,0.665 l 0.644,1.551 0.108,0.084 2.688,0 z" />
        </g>
        <g
           transform="translate(765.2073,229.8517)"
           id="g336">
          <path
             id="path338"
             style="fill:#008e7e;fill-opacity:1;fill-rule:evenodd;stroke:none"
             d="m 0,0 0.107,-0.084 0.969,-2.282 c 0.062,-0.128 -0.24,-0.236 -0.323,-0.257 -0.132,0 -0.173,-0.021 -0.173,-0.086 0,-0.087 0.149,-0.087 0.364,-0.087 0.968,-0.021 2.043,-0.021 2.473,-0.021 0.453,0 0.066,0.194 -0.021,0.194 -0.149,0 0.108,0 -0.087,0.042 -0.235,0.045 -0.579,0.194 -1.051,1.183 -0.752,1.637 -2.688,6.046 -2.969,6.646 -0.128,0.236 -0.194,0.344 -0.301,0.344 -0.129,0 -0.195,-0.129 -0.344,-0.431 l -3.01,-6.795 c -0.237,-0.538 -0.473,-0.902 -1.01,-0.968 -0.107,-0.021 0.17,-0.021 0.062,-0.021 -0.107,0 -0.149,-0.021 -0.149,-0.086 0,-0.087 0.063,-0.108 0.215,-0.108 0.625,0 0.86,0.021 0.989,0.021 0.364,0 0.666,-0.021 1.054,-0.021 0.129,0 0.215,0.021 0.215,0.108 0,0.065 -0.045,0.086 -0.194,0.086 0,0 -0.43,0.129 -0.43,0.323 0,0.128 0.065,0.409 0.174,0.666 l 0.644,1.55 L -2.688,0 0,0 Z m -2.452,0.537 -0.045,0.088 1.12,2.646 0.063,0.107 0.065,-0.107 1.076,-2.668 -0.066,-0.066 -2.213,0 z" />
        </g>
        <g
           transform="translate(765.7449,235.5959)"
           id="g340">
          <path
             id="path342"
             style="fill:#008e7e;fill-opacity:1;fill-rule:evenodd;stroke:none"
             d="M 0,0 C 0.364,0 0.58,0.236 0.58,0.537 0.58,0.839 0.344,1.01 0.021,1.01 -0.368,1.01 -0.537,0.732 -0.537,0.517 -0.537,0.278 -0.368,0 0,0" />
        </g>
        <g
           transform="translate(762.7971,235.5959)"
           id="g344">
          <path
             id="path346"
             style="fill:#008e7e;fill-opacity:1;fill-rule:evenodd;stroke:none"
             d="M 0,0 C 0.344,0 0.558,0.236 0.558,0.537 0.558,0.839 0.323,1.01 0,1.01 -0.385,1.01 -0.558,0.708 -0.558,0.517 -0.558,0.278 -0.385,0 0,0" />
        </g>
        <g
           transform="translate(721.1859,228.1102)"
           id="g348">
          <path
             id="path350"
             style="fill:#008e7e;fill-opacity:1;fill-rule:evenodd;stroke:none"
             d="m 0,0 c -0.062,-0.364 -0.15,-0.794 -0.492,-0.86 -0.174,-0.021 -0.045,-0.021 -0.154,-0.021 -0.107,0 -0.169,-0.021 -0.169,-0.087 0,-0.087 0.083,-0.108 0.214,-0.108 0.365,0 0.729,0.021 0.969,0.021 0.214,0 0.537,-0.021 1.029,-0.021 0.195,0 0.302,0.021 0.302,0.108 0,0.066 -0.086,0.087 -0.193,0.087 -0.109,0 -0.064,0 -0.278,0.042 -0.216,0.045 -0.368,0.152 -0.368,0.346 0,0.17 0.021,0.322 0.045,0.514 l 0.621,4.301 0.045,0 C 2.001,3.507 2.709,2.151 2.817,1.915 2.969,1.613 3.915,-0.021 4.193,-0.537 c 0.195,-0.323 0.323,-0.539 0.43,-0.539 0.108,0 0.173,0.108 0.451,0.604 l 2.605,4.926 0.063,0 0.71,-4.777 C 8.495,-0.625 8.022,-0.753 7.956,-0.774 L 7.828,-0.902 c 0,-0.066 0.066,-0.087 0.344,-0.108 0.496,-0.045 2.15,-0.066 2.452,-0.066 0.149,0 0.301,0.021 0.301,0.108 0,0.066 -0.086,0.087 -0.194,0.087 -0.149,0 0.042,0 -0.301,0.107 -0.365,0.087 -0.493,0.41 -0.601,1.097 L 8.73,6.99 C 8.709,7.226 8.623,7.333 8.515,7.333 8.407,7.333 8.345,7.249 8.258,7.076 L 4.991,0.905 1.72,6.99 C 1.571,7.27 1.485,7.333 1.397,7.333 1.29,7.333 1.228,7.226 1.183,7.056 L 0,0 Z" />
        </g>
        <g
           transform="translate(735.6149,230.1743)"
           id="g352">
          <path
             id="path354"
             style="fill:#008e7e;fill-opacity:1;fill-rule:evenodd;stroke:none"
             d="m 0,0 c 0,-1.01 0,-1.849 -0.062,-2.3 -0.045,-0.323 -0.109,-0.559 -0.344,-0.603 -0.108,-0.022 -0.195,-0.042 -0.368,-0.042 -0.149,0 -0.193,-0.042 -0.193,-0.087 0,-0.087 0.086,-0.107 0.238,-0.107 0.472,0 1.183,0.02 1.44,0.02 0.711,0 1.526,-0.062 3.333,-0.062 0.451,0 0.558,0 0.645,0.278 0.066,0.215 0.15,0.752 0.15,0.991 0,0.108 0,0.192 -0.084,0.192 -0.087,0 -0.108,-0.043 -0.132,-0.15 C 4.54,-2.321 4.388,-2.342 4.086,-2.473 3.763,-2.602 3.271,-2.602 2.948,-2.602 c -1.228,0 -1.419,0.174 -1.442,0.926 l 0,1.676 0,0.839 0.086,0.108 c 0.28,0 1.463,0 1.7,-0.021 C 3.722,0.884 3.895,0.711 3.957,0.496 4.002,0.368 4.002,0.43 4.002,0.323 L 4.11,0.239 c 0.107,0 0.107,0.108 0.107,0.191 0,0.087 0.021,0.302 0.063,0.517 0.021,0.538 0.086,0.711 0.086,0.773 L 4.28,1.808 4.086,1.679 C 3.979,1.571 3.808,1.53 3.506,1.506 3.25,1.485 1.852,1.485 1.592,1.485 l -0.086,0.128 0,2.733 0.086,0.108 c 0.236,0 1.505,-0.021 1.7,-0.045 C 3.895,4.346 4.023,4.217 4.11,4.024 4.172,3.895 4.172,3.916 4.172,3.851 4.172,3.743 4.193,3.701 4.28,3.701 L 4.409,3.809 C 4.432,3.937 4.454,4.194 4.474,4.301 4.495,4.818 4.561,4.947 4.561,5.013 L 4.495,5.12 4.301,5.078 C 4.193,5.054 4.002,5.033 3.787,5.013 3.549,4.992 1.162,4.992 0.777,4.992 c -0.323,0 -0.884,0.041 -1.506,0.041 -0.194,0 -0.259,-0.02 -0.259,-0.107 0,-0.063 0.065,-0.087 0.194,-0.087 0.173,0 0.148,-0.021 0.257,-0.042 C -0.15,4.731 -0.042,4.561 -0.021,4.173 0,3.83 0,3.528 0,1.894 L 0,0 Z" />
        </g>
        <g
           transform="translate(745.9608,230.1743)"
           id="g356">
          <path
             id="path358"
             style="fill:#008e7e;fill-opacity:1;fill-rule:evenodd;stroke:none"
             d="m 0,0 c 0,-1.01 0,-1.849 -0.066,-2.3 -0.041,-0.323 -0.107,-0.559 -0.343,-0.603 -0.108,-0.022 -0.045,-0.042 -0.215,-0.042 -0.153,0 -0.195,-0.042 -0.195,-0.087 0,-0.087 0.087,-0.107 0.237,-0.107 0.475,0 1.012,0.02 1.29,0.02 0.343,0 0.666,-0.02 1.442,-0.02 0.129,0 0.216,0.02 0.216,0.107 0,0.045 -0.045,0.087 -0.174,0.087 -0.194,0 -0.021,0.02 -0.194,0.042 -0.364,0.044 -0.43,0.28 -0.472,0.582 C 1.482,-1.849 1.482,-1.01 1.482,0 l 0,4.433 1.505,-0.045 C 4.062,4.367 4.599,4.281 4.623,4.003 l 0,-0.132 c 0.021,-0.149 0.042,-0.215 0.15,-0.215 0.066,0 0.087,0.066 0.107,0.174 0,0.28 -0.193,0.818 -0.193,1.054 0,0.149 0,0.215 -0.088,0.215 -0.107,0 -0.385,-0.107 -1.159,-0.107 l -4.73,0 c -0.389,0 -0.86,0.021 -1.207,0.062 -0.299,0.024 -0.406,0.132 -0.513,0.132 -0.066,0 -0.109,-0.066 -0.132,-0.216 -0.042,-0.086 -0.257,-0.86 -0.257,-1.033 0,-0.107 0.021,-0.173 0.107,-0.173 l 0.129,0.131 c 0.021,0.084 0.087,0.215 0.194,0.386 0.194,0.236 0.472,0.065 1.183,0.086 L 0,4.433 0,0 Z" />
        </g>
        <g
           transform="translate(754.8613,226.8856)"
           id="g360">
          <path
             id="path362"
             style="fill:#008e7e;fill-opacity:1;fill-rule:evenodd;stroke:none"
             d="m 0,0 c 0.646,0 1.314,0.086 1.915,0.43 0.86,0.517 1.119,1.269 1.119,1.891 0,1.034 -0.516,1.744 -1.958,2.754 L 0.732,5.29 c -0.989,0.687 -1.269,1.075 -1.269,1.571 0,0.645 0.537,1.118 1.421,1.118 0.795,0 1.138,-0.344 1.311,-0.538 0.257,-0.281 0.323,-0.41 0.323,-0.496 0,-0.128 0.021,-0.191 0.107,-0.191 0.108,0 0.15,0.084 0.15,0.322 0,0.837 0.044,0.944 0.044,1.076 0,0.083 -0.066,0.107 -0.173,0.128 -0.323,0.087 -0.818,0.195 -1.592,0.195 -1.675,0 -2.774,-0.861 -2.774,-2.044 0,-0.884 0.454,-1.636 1.765,-2.56 L 0.603,3.483 C 1.592,2.775 1.786,2.279 1.786,1.742 1.786,1.183 1.249,0.517 0.173,0.517 c -0.753,0 -1.463,0.277 -1.72,1.096 -0.066,0.17 -0.108,0.194 -0.108,0.323 0,0.086 0,0.193 -0.107,0.193 -0.108,0 -0.15,-0.131 -0.15,-0.28 -0.024,-0.173 -0.065,-0.604 -0.065,-1.204 0,-0.236 0.041,-0.301 0.236,-0.367 C -1.224,0.062 -0.687,0 0,0" />
        </g>
        <g
           transform="translate(773.2057,231.7664)"
           id="g364">
          <path
             id="path366"
             style="fill:#008e7e;fill-opacity:1;fill-rule:evenodd;stroke:none"
             d="m 0,0 -0.066,0.066 0,0.236 c 0,1.634 0,1.936 0.024,2.279 0.021,0.388 0.128,0.582 0.451,0.624 0.128,0.021 0.021,0.042 0.128,0.042 0.15,0 0.216,0.024 0.216,0.087 0,0.086 -0.087,0.107 -0.257,0.107 -0.475,0 -1.013,-0.041 -1.29,-0.041 -0.323,0 -0.753,0.041 -1.398,0.041 -0.153,0 -0.239,-0.021 -0.239,-0.107 0,-0.063 0.065,-0.087 0.194,-0.087 0.173,0 0.087,-0.021 0.194,-0.042 0.388,-0.066 0.43,-0.236 0.451,-0.624 0.021,-0.343 0.021,-0.645 0.021,-2.279 l 0,-1.894 c 0,-1.01 0,-1.849 -0.063,-2.3 -0.045,-0.323 -0.107,-0.559 -0.343,-0.603 -0.108,-0.022 -0.024,-0.043 -0.215,-0.043 -0.131,0 -0.195,-0.041 -0.195,-0.086 0,-0.087 0.087,-0.108 0.237,-0.108 0.495,0 1.033,0.021 1.311,0.021 0.322,0 0.645,-0.021 1.442,-0.021 0.129,0 0.236,0.021 0.236,0.108 0,0.045 -0.065,0.086 -0.193,0.086 -0.174,0 -0.022,0.021 -0.174,0.043 -0.365,0.044 -0.451,0.28 -0.472,0.582 -0.066,0.472 -0.066,1.311 -0.066,2.321 l 0,0.946 0.066,0.066 4.388,0 0.062,-0.066 0,-0.946 c 0,-1.01 0,-1.849 -0.062,-2.3 C 4.343,-4.215 4.28,-4.451 4.044,-4.495 3.936,-4.517 3.999,-4.538 3.829,-4.538 c -0.152,0 -0.194,-0.041 -0.194,-0.086 0,-0.087 0.087,-0.108 0.256,-0.108 0.452,0 1.013,0.021 1.27,0.021 0.343,0 0.666,-0.021 1.44,-0.021 0.152,0 0.259,0.021 0.259,0.108 0,0.045 -0.066,0.086 -0.194,0.086 -0.194,0 -0.02,0.021 -0.194,0.043 -0.364,0.044 -0.43,0.28 -0.472,0.582 -0.044,0.472 -0.044,1.311 -0.044,2.321 l 0,1.894 c 0,1.634 0,1.936 0.023,2.279 0.021,0.388 0.108,0.582 0.43,0.624 0.15,0.021 0.043,0.042 0.15,0.042 0.128,0 0.215,0.024 0.215,0.087 0,0.086 -0.087,0.107 -0.257,0.107 C 6.042,3.441 5.504,3.4 5.226,3.4 4.904,3.4 4.516,3.441 3.85,3.441 3.697,3.441 3.614,3.42 3.614,3.334 3.614,3.271 3.677,3.247 3.805,3.247 3.979,3.247 3.742,3.226 3.85,3.205 4.235,3.139 4.409,2.969 4.43,2.581 4.45,2.238 4.45,1.936 4.45,0.302 L 4.45,0.066 4.388,0 0,0 Z" />
        </g>
        <g
           transform="translate(795.3135,232.0681)"
           id="g368">
          <path
             id="path370"
             style="fill:#008e7e;fill-opacity:1;fill-rule:evenodd;stroke:none"
             d="m 0,0 c 0,1.634 0,1.936 0.021,2.279 0.021,0.389 0.129,0.582 0.451,0.624 0.149,0.022 0.343,0.042 0.472,0.042 0.152,0 0.215,0.024 0.215,0.087 0,0.086 -0.083,0.107 -0.257,0.107 -0.472,0 -1.332,-0.041 -1.634,-0.041 -0.322,0 -0.774,0.041 -1.335,0.041 -0.17,0 -0.256,-0.021 -0.256,-0.107 0,-0.063 0.065,-0.087 0.193,-0.087 0.171,0 -0.065,-0.02 0.042,-0.042 C -1.699,2.837 -1.55,2.668 -1.529,2.279 -1.506,1.936 -1.506,1.634 -1.506,0 l 0,-1.894 c 0,-1.009 0,-1.849 -0.044,-2.3 -0.063,-0.323 -0.108,-0.558 -0.343,-0.603 -0.129,-0.021 -0.043,-0.042 -0.237,-0.042 -0.128,0 -0.173,-0.042 -0.173,-0.087 0,-0.087 0.066,-0.107 0.236,-0.107 0.475,0 1.013,0.02 1.29,0.02 0.968,0 1.765,-0.062 3.486,-0.062 0.624,0 0.687,0.062 0.774,0.302 0.086,0.299 0.173,0.902 0.173,1.03 0,0.129 -0.024,0.174 -0.087,0.174 -0.108,0 -0.129,-0.066 -0.152,-0.153 C 3.396,-3.937 3.267,-4.02 3.119,-4.152 2.817,-4.451 2.342,-4.474 1.72,-4.474 0.774,-4.474 0.451,-4.388 0.257,-4.236 0,-4.02 0,-3.292 0,-1.894 L 0,0 Z" />
        </g>
        <g
           transform="translate(803.7419,232.0681)"
           id="g372">
          <path
             id="path374"
             style="fill:#008e7e;fill-opacity:1;fill-rule:evenodd;stroke:none"
             d="m 0,0 c 0,1.634 0,1.936 0.021,2.279 0.021,0.389 0.129,0.582 0.451,0.624 0.131,0.022 0.108,0.042 0.239,0.042 0.149,0 0.236,0.024 0.236,0.087 0,0.086 -0.087,0.107 -0.26,0.107 -0.472,0 -1.138,-0.041 -1.419,-0.041 -0.322,0 -0.86,0.041 -1.418,0.041 -0.195,0 -0.281,-0.021 -0.281,-0.107 0,-0.063 0.086,-0.087 0.215,-0.087 0.152,0 0.087,-0.02 0.173,-0.042 0.409,-0.066 0.496,-0.235 0.517,-0.624 0.02,-0.343 0.02,-0.645 0.02,-2.279 l 0,-1.894 c 0,-1.009 0,-1.849 -0.065,-2.3 -0.042,-0.323 -0.108,-0.558 -0.344,-0.603 -0.107,-0.021 -0.021,-0.042 -0.214,-0.042 -0.15,0 -0.194,-0.042 -0.194,-0.087 0,-0.087 0.086,-0.107 0.238,-0.107 0.493,0 1.031,0.02 1.311,0.02 0.968,0 1.762,-0.062 3.483,-0.062 0.624,0 0.69,0.062 0.752,0.302 0.108,0.299 0.195,0.902 0.195,1.03 0,0.129 -0.021,0.174 -0.107,0.174 L 3.42,-3.722 C 3.399,-3.937 3.247,-4.02 3.119,-4.152 2.817,-4.451 2.345,-4.474 1.699,-4.474 0.774,-4.474 0.451,-4.388 0.257,-4.236 0,-4.02 0,-3.292 0,-1.894 L 0,0 Z" />
        </g>
        <g
           transform="translate(810.6652,230.1743)"
           id="g376">
          <path
             id="path378"
             style="fill:#008e7e;fill-opacity:1;fill-rule:evenodd;stroke:none"
             d="m 0,0 c 0,-1.051 0,-1.912 -0.062,-2.366 -0.045,-0.322 -0.109,-0.493 -0.344,-0.537 -0.108,-0.022 -0.045,-0.042 -0.215,-0.042 -0.153,0 -0.194,-0.042 -0.194,-0.087 0,-0.087 0.086,-0.107 0.235,-0.107 0.473,0 1.034,0.02 1.291,0.02 0.322,0 0.666,-0.02 1.439,-0.02 0.152,0 0.239,0.02 0.239,0.107 0,0.045 -0.066,0.087 -0.194,0.087 -0.173,0 0,0.02 -0.173,0.042 C 1.658,-2.859 1.571,-2.664 1.529,-2.387 1.485,-1.912 1.485,-1.051 1.485,0 l 0,1.894 c 0,1.634 0,1.936 0.021,2.279 0.023,0.388 0.131,0.583 0.453,0.624 0.15,0.021 0.022,0.042 0.15,0.042 0.107,0 0.193,0.024 0.193,0.108 0,0.066 -0.107,0.086 -0.259,0.086 -0.451,0 -0.944,-0.041 -1.245,-0.041 -0.344,0 -0.905,0.041 -1.356,0.041 -0.195,0 -0.278,-0.02 -0.278,-0.086 0,-0.084 0.062,-0.108 0.19,-0.108 0.132,0 0.088,-0.021 0.216,-0.042 C -0.171,4.731 -0.042,4.561 -0.021,4.173 0,3.83 0,3.528 0,1.894 L 0,0 Z" />
        </g>
        <g
           transform="translate(818.8369,230.1743)"
           id="g380">
          <path
             id="path382"
             style="fill:#008e7e;fill-opacity:1;fill-rule:evenodd;stroke:none"
             d="m 0,0 c 0,-1.01 0,-1.849 -0.042,-2.3 -0.042,-0.323 -0.108,-0.559 -0.364,-0.603 -0.108,-0.022 -0.024,-0.042 -0.215,-0.042 -0.132,0 -0.194,-0.042 -0.194,-0.087 0,-0.087 0.086,-0.107 0.257,-0.107 0.474,0 1.012,0.02 1.29,0.02 0.344,0 0.665,-0.02 1.442,-0.02 0.149,0 0.237,0.02 0.237,0.107 0,0.045 -0.066,0.087 -0.195,0.087 -0.173,0 0,0.02 -0.173,0.042 -0.364,0.044 -0.43,0.28 -0.472,0.582 C 1.506,-1.849 1.506,-1.01 1.506,0 l 0,4.433 1.528,-0.045 C 4.086,4.367 4.495,4.152 4.495,4.152 c 0,-0.173 0.215,-0.496 0.301,-0.496 0.088,0 0.108,0.066 0.108,0.174 0,0.28 -0.173,0.818 -0.173,1.054 0,0.149 -0.021,0.215 -0.108,0.215 -0.083,0 -0.364,-0.107 -1.138,-0.107 l -4.751,0 c -0.409,0 -0.86,0.021 -1.207,0.062 -0.299,0.024 -0.43,0.132 -0.514,0.132 -0.066,0 -0.107,-0.066 -0.152,-0.216 -0.021,-0.086 -0.257,-0.86 -0.257,-1.033 0,-0.107 0.042,-0.173 0.108,-0.173 l 0.149,0.131 c 0.02,0.084 0.086,0.215 0.194,0.386 0.173,0.236 0.472,0.065 1.162,0.086 L 0,4.433 0,0 Z" />
        </g>
        <g
           transform="translate(826.4291,230.4969)"
           id="g384">
          <path
             id="path386"
             style="fill:#008e7e;fill-opacity:1;fill-rule:evenodd;stroke:none"
             d="m 0,0 c 0,-1.568 0.451,-2.366 1.054,-2.88 0.882,-0.71 2.043,-0.732 2.668,-0.732 0.773,0 1.654,0.108 2.493,0.775 1.01,0.773 1.138,2.043 1.138,3.246 l 0,1.162 c 0,1.634 0,1.936 0.025,2.28 0.041,0.388 0.128,0.582 0.45,0.623 0.149,0.021 0,0.043 0.128,0.043 0.15,0 0.216,0.023 0.216,0.086 0,0.087 -0.087,0.108 -0.236,0.108 -0.475,0 -1.013,-0.042 -1.162,-0.042 -0.021,0 -0.989,0.042 -1.592,0.042 -0.17,0 -0.257,-0.021 -0.257,-0.108 0,-0.063 0.063,-0.086 0.194,-0.086 0.15,0 0.559,-0.022 0.666,-0.043 C 6.171,4.409 6.257,4.239 6.302,3.851 6.323,3.507 6.323,3.205 6.323,1.571 l 0,-1.356 C 6.323,-0.903 6.278,-1.87 5.612,-2.45 5.14,-2.903 4.495,-3.053 3.957,-3.053 c -0.408,0 -0.947,0.042 -1.484,0.451 -0.603,0.43 -0.947,1.096 -0.947,2.668 l 0,1.505 c 0,1.634 0,1.936 0.021,2.28 0.024,0.388 0.132,0.582 0.454,0.623 0.128,0.021 0,0.043 0.128,0.043 0.108,0 0.194,0.023 0.194,0.086 0,0.087 -0.086,0.108 -0.259,0.108 -0.451,0 -0.988,-0.042 -1.27,-0.042 -0.364,0 -0.901,0.042 -1.547,0.042 -0.173,0 -0.257,-0.021 -0.257,-0.108 0,-0.063 0.084,-0.086 0.216,-0.086 0.17,0 0.148,-0.022 0.236,-0.043 C -0.15,4.409 -0.066,4.239 -0.042,3.851 0,3.507 0,3.205 0,1.571 L 0,0 Z" />
        </g>
        <g
           transform="translate(839.4184,226.8856)"
           id="g388">
          <path
             id="path390"
             style="fill:#008e7e;fill-opacity:1;fill-rule:evenodd;stroke:none"
             d="m 0,0 c 0.624,0 1.311,0.086 1.915,0.43 0.86,0.517 1.116,1.269 1.116,1.891 0,1.034 -0.516,1.744 -1.955,2.754 L 0.732,5.29 c -0.992,0.687 -1.269,1.075 -1.269,1.571 0,0.645 0.537,1.118 1.418,1.118 0.774,0 1.141,-0.344 1.311,-0.538 0.26,-0.281 0.323,-0.41 0.323,-0.496 0,-0.128 0.02,-0.191 0.107,-0.191 0.108,0 0.129,0.084 0.129,0.322 0,0.837 0.045,0.944 0.045,1.076 0,0.083 -0.045,0.107 -0.152,0.128 -0.323,0.087 -0.816,0.195 -1.613,0.195 -1.655,0 -2.772,-0.861 -2.772,-2.044 0,-0.884 0.472,-1.636 1.783,-2.56 L 0.601,3.483 C 1.592,2.775 1.762,2.279 1.762,1.742 1.762,1.183 1.245,0.517 0.171,0.517 c -0.753,0 -1.461,0.277 -1.721,1.096 -0.063,0.17 -0.108,0.194 -0.108,0.323 0,0.086 -0.021,0.193 -0.128,0.193 -0.086,0 -0.129,-0.131 -0.129,-0.28 -0.021,-0.173 -0.066,-0.604 -0.066,-1.204 0,-0.236 0.025,-0.301 0.216,-0.367 C -1.249,0.062 -0.711,0 0,0" />
        </g>
      </g>
    </g>
  </g>
</svg>
