<?xml version="1.0" encoding="UTF-8" standalone="no"?>
<!-- Created with Inkscape (http://www.inkscape.org/) -->
<svg
   xmlns:dc="http://purl.org/dc/elements/1.1/"
   xmlns:cc="http://creativecommons.org/ns#"
   xmlns:rdf="http://www.w3.org/1999/02/22-rdf-syntax-ns#"
   xmlns:svg="http://www.w3.org/2000/svg"
   xmlns="http://www.w3.org/2000/svg"
   xmlns:sodipodi="http://sodipodi.sourceforge.net/DTD/sodipodi-0.dtd"
   xmlns:inkscape="http://www.inkscape.org/namespaces/inkscape"
   version="1.0"
   width="304.03"
   height="230.55"
   id="svg2"
   xml:space="preserve"
   sodipodi:version="0.32"
   inkscape:version="0.46"
   sodipodi:docname="SYKE_logo.svg"
   inkscape:output_extension="org.inkscape.output.svg.inkscape"><metadata
     id="metadata17"><rdf:RDF><cc:Work
         rdf:about=""><dc:format>image/svg+xml</dc:format><dc:type
           rdf:resource="http://purl.org/dc/dcmitype/StillImage" /></cc:Work></rdf:RDF></metadata><sodipodi:namedview
     inkscape:window-height="743"
     inkscape:window-width="884"
     inkscape:pageshadow="2"
     inkscape:pageopacity="1"
     guidetolerance="10.0"
     gridtolerance="10.0"
     objecttolerance="10.0"
     borderopacity="1.0"
     bordercolor="#666666"
     pagecolor="#ffffff"
     id="base"
     showgrid="true"
     inkscape:zoom="1.9852113"
     inkscape:cx="134.45568"
     inkscape:cy="105.70881"
     inkscape:window-x="610"
     inkscape:window-y="119"
     inkscape:current-layer="svg2"
     showborder="true"
     borderlayer="false"><inkscape:grid
       type="xygrid"
       id="grid2392"
       visible="true"
       enabled="true" /></sodipodi:namedview><defs
     id="defs5"><inkscape:perspective
       sodipodi:type="inkscape:persp3d"
       inkscape:vp_x="0 : 107.60713 : 1"
       inkscape:vp_y="0 : 1000 : 0"
       inkscape:vp_z="274.02625 : 107.60713 : 1"
       inkscape:persp3d-origin="137.01312 : 71.738088 : 1"
       id="perspective19" /><clipPath
       id="clipPath35"><path
         d="M 28.748,784.842 L 566.972,784.842 L 566.972,28.379 L 28.748,28.379 L 28.748,784.842 z"
         id="path37" /></clipPath></defs><g
     transform="matrix(0,-1.25,-1.25,0,361.1274,278.18158)"
     id="g11"><path
       d="M 155.78427,222.37192 C 186.02927,222.37192 210.54727,197.85492 210.54727,167.60992 C 210.54727,137.36592 186.02927,112.84892 155.78427,112.84892 C 125.54027,112.84892 101.02226,137.36592 101.02226,167.60992 C 101.02226,197.85492 125.54027,222.37192 155.78427,222.37192"
       id="path41"
       style="fill:#9dd4f6;fill-opacity:1;fill-rule:nonzero;stroke:none" /><path
       d="M 155.50927,201.23092 C 174.27027,201.23092 189.47827,186.02292 189.47827,167.26192 C 189.47827,148.50192 174.27027,133.29392 155.50927,133.29392 C 136.74927,133.29392 121.54127,148.50192 121.54127,167.26192 C 121.54127,186.02292 136.74927,201.23092 155.50927,201.23092"
       id="path43"
       style="fill:#ffffff;fill-opacity:1;fill-rule:nonzero;stroke:none" /><path
       d="M 82.480264,265.57492 C 82.570264,263.79092 82.124264,262.30492 81.143264,261.11592 C 80.221264,260.04492 78.646264,259.51092 76.415264,259.51092 L 76.415264,253.71292 C 79.210264,253.71292 81.336264,255.03592 82.793264,257.68192 C 83.982264,259.88192 84.576264,262.57292 84.576264,265.75392 C 84.576264,268.93392 83.744264,271.47592 82.079264,273.37892 C 80.385264,275.37192 78.036264,276.36692 75.033264,276.36692 C 72.565264,276.36692 70.589264,275.56392 69.102264,273.95892 C 67.764264,272.53192 66.739264,270.33192 66.025264,267.35892 L 64.063264,259.46592 C 63.320264,256.37392 61.580264,254.82792 58.845264,254.82792 C 56.735264,254.82792 55.084264,255.55592 53.895264,257.01292 C 52.735264,258.43992 52.156264,260.37292 52.156264,262.80992 C 52.156264,265.90192 53.137264,268.54792 55.099264,270.74792 C 57.061264,272.94792 59.842264,274.38992 63.438264,275.07392 L 63.438264,276.90192 L 50.328264,276.90192 L 50.328264,275.11792 C 51.130264,275.08792 51.918264,274.92492 52.691264,274.62792 C 53.494264,274.32992 53.895264,273.95892 53.895264,273.51292 C 53.895264,273.33492 53.806264,273.14192 53.628264,272.93292 C 51.279264,270.07992 50.105264,266.70492 50.105264,262.80992 C 50.105264,259.12392 51.056264,256.19492 52.959264,254.02592 C 54.743264,251.97392 57.047264,250.94792 59.871264,250.94792 C 64.895264,250.94792 68.121264,253.66792 69.548264,259.10892 L 71.510264,266.64492 C 72.521264,270.53992 74.364264,272.48792 77.040264,272.48792 C 78.497264,272.48792 79.716264,271.93692 80.697264,270.83792 C 81.827264,269.58892 82.421264,267.83492 82.480264,265.57492"
       id="path45"
       style="fill:#000000;fill-opacity:1;fill-rule:nonzero;stroke:none" /><path
       d="M 84.443264,213.23992 L 67.006264,201.46692 L 84.443264,190.94292 L 84.443264,188.31092 L 64.375264,200.17292 L 55.367264,200.17292 C 54.029264,200.17292 53.211264,200.00992 52.914264,199.68292 C 52.617264,199.32592 52.468264,198.49392 52.468264,197.18592 L 52.468264,195.75792 L 50.328264,195.75792 L 50.328264,210.11792 L 52.468264,210.11792 L 52.468264,208.64592 C 52.468264,207.33792 52.617264,206.50592 52.914264,206.14892 C 53.211264,205.79292 54.029264,205.61392 55.367264,205.61392 L 63.929264,205.61392 L 84.443264,219.39392 L 84.443264,213.23992"
       id="path47"
       style="fill:#000000;fill-opacity:1;fill-rule:nonzero;stroke:none" /><path
       d="M 84.443264,147.18192 L 65.490264,147.18192 L 78.066264,133.93692 C 79.255264,132.53992 80.741264,130.74092 82.525264,128.54092 C 83.803264,126.72792 84.443264,124.34992 84.443264,121.40592 L 82.302264,121.40592 C 82.183264,124.55792 80.800264,127.54592 78.155264,130.36992 L 71.510264,137.50492 L 54.965264,125.37492 C 53.508264,124.30492 52.735264,123.35392 52.646264,122.52092 C 52.528264,121.48092 52.468264,120.88592 52.468264,120.73692 L 50.328264,120.73692 L 50.328264,128.40792 L 67.809264,141.29492 L 62.101264,147.18192 L 50.328264,147.18192 L 50.328264,156.85892 L 52.468264,156.85892 L 52.468264,155.43192 C 52.468264,154.42092 52.632264,153.70692 52.959264,153.29192 C 53.315264,152.84492 53.955264,152.62292 54.876264,152.62292 L 84.443264,152.62292 L 84.443264,147.18192"
       id="path49"
       style="fill:#000000;fill-opacity:1;fill-rule:nonzero;stroke:none" /><path
       d="M 67.006264,76.945915 L 54.296264,76.945915 C 53.345264,76.945915 52.765264,76.514915 52.557264,75.652915 C 52.468264,75.355915 52.439264,74.537915 52.468264,73.199915 L 52.557264,63.166915 C 52.557264,62.184915 52.855264,61.411915 53.449264,60.847915 C 54.044264,60.252915 54.817264,59.954915 55.768264,59.954915 L 57.017264,59.954915 L 57.017264,57.680915 L 50.328264,57.680915 L 50.328264,86.622915 L 52.468264,86.622915 L 52.468264,85.195915 C 52.468264,84.184915 52.632264,83.471915 52.959264,83.055915 C 53.315264,82.608915 53.955264,82.386915 54.876264,82.386915 L 84.443264,82.386915 L 84.443264,57.680915 L 77.754264,57.680915 L 77.754264,59.954915 L 79.002264,59.954915 C 79.953264,59.954915 80.741264,60.252915 81.366264,60.847915 C 81.990264,61.441915 82.302264,62.229915 82.302264,63.210915 L 82.302264,73.199915 C 82.302264,75.221915 82.287264,76.469915 82.258264,76.945915 L 69.147264,76.945915 L 69.147264,67.536915 L 67.006264,67.536915 L 67.006264,76.945915"
       id="path51"
       style="fill:#000000;fill-opacity:1;fill-rule:nonzero;stroke:none" /><path
       d="M 140.45027,244.28192 L 142.79927,242.54692 L 141.63427,240.45692 L 142.45727,239.04592 L 144.78027,238.34792 L 143.19427,236.81092 L 144.81827,236.13992 L 146.21127,235.40692 L 144.04927,233.71392 L 144.84727,232.81992 L 144.88027,231.71992 L 147.68127,231.36692 L 146.21927,229.86292 L 149.07027,229.52292 L 147.24827,227.92192 L 148.29727,227.09592 L 149.39427,226.28292 L 148.94027,225.05092 L 148.15927,223.73092 L 150.14227,223.15692 L 149.25727,221.67992 L 151.53027,220.65192 L 152.27027,219.30992 L 151.90727,217.74192 L 151.08927,216.07992 L 151.42627,214.65492 L 154.62727,213.81692 L 152.81327,211.95192 L 154.50827,210.66992 L 155.09027,209.06492 L 153.50927,207.12792 L 153.83027,205.48292 L 155.10627,203.98492 L 157.50327,202.65792 L 155.40927,200.64292 L 158.37227,199.40292 L 156.05127,197.78592 L 158.72627,197.11192 L 157.07827,196.02092 L 158.84027,195.25892 L 158.19827,194.26492 L 157.97827,193.31192 L 156.93427,192.27892 L 159.31627,191.57692 L 157.81127,190.49992 L 158.25127,189.60992 L 158.72227,188.72392 L 157.93427,187.71592 L 157.77927,186.76892 L 158.84027,185.93892 L 159.89627,185.10892 L 157.95627,183.98992 L 160.19227,183.17092 L 158.86127,182.11892 L 159.74027,181.14092 L 159.44627,180.12392 L 160.74227,179.15992 L 158.61627,178.08092 L 157.87327,177.04892 L 159.49327,176.09592 L 160.62127,175.12592 L 160.06327,174.09992 L 159.40227,173.06992 L 159.38927,172.06192 L 161.11727,171.11292 L 159.05127,170.03592 L 159.34727,169.03892 L 159.76427,168.04492 L 158.83527,167.08392 L 159.30027,166.05892 L 159.68327,165.03692 L 159.34427,164.03892 L 160.85127,162.97892 L 160.32427,161.98792 L 158.88627,161.02592 L 159.69227,159.98992 L 161.19627,158.92992 L 158.74627,158.00292 L 160.16527,156.94592 L 158.54227,155.99092 L 159.88727,154.93692 L 159.91727,153.92592 L 158.64627,152.95892 L 160.03827,151.90292 L 158.17327,151.05792 L 159.87727,149.96092 L 157.22227,149.28492 L 158.50027,148.22992 L 160.11027,147.14192 L 157.19927,146.49092 L 157.65927,145.51492 L 159.09627,144.44392 L 159.24127,143.49792 L 158.43327,142.64292 L 158.29827,141.72392 L 158.19127,140.80292 L 155.89027,140.09192 L 155.87827,139.16092 L 158.18727,138.00592 L 158.67027,137.02792 L 157.96727,135.72592 L 155.50827,134.41092 L 155.10927,132.77992 L 156.37127,130.89492 L 154.23827,129.52992 L 156.42127,127.50292 L 153.04327,126.32992 L 154.70727,124.38192 L 152.86727,123.12392 L 153.50427,121.50192 L 151.83027,120.35592 L 153.69227,118.48292 L 153.01427,117.13192 L 150.38427,116.18192 L 149.43527,114.88692 L 149.05927,113.47392 L 149.46827,112.14192 L 149.69827,110.97492 L 148.24927,110.26292 L 148.12827,109.18992 L 147.20127,108.33592 L 147.38627,107.18092 L 145.95227,106.46492 L 146.42627,105.23092 L 147.62827,103.79992 L 146.52627,102.99292 L 146.08327,102.00792 L 145.79727,100.97992 L 144.80827,100.14392 L 143.85827,99.295915 L 145.14827,97.840915 L 143.59027,97.157915 L 143.59427,95.755915 L 141.54527,94.447915 L 142.40327,92.796915 L 140.46027,90.941915 L 140.45027,244.28192"
       id="path53"
       style="fill:#169a30;fill-opacity:1;fill-rule:nonzero;stroke:none" /><path
       d="M 140.45627,244.28192 L 139.28227,242.54692 L 139.86427,240.45692 L 139.45327,239.04692 L 138.29127,238.34892 L 139.08427,236.81092 L 138.27227,236.14092 L 137.57627,235.40792 L 138.65727,233.71492 L 138.25827,232.82092 L 138.24127,231.71992 L 136.84127,231.36792 L 137.57227,229.86392 L 136.14627,229.52392 L 137.05727,227.92292 L 136.53327,227.09692 L 135.98427,226.28392 L 136.21127,225.05192 L 136.60227,223.73192 L 135.61027,223.15792 L 136.05327,221.68092 L 134.91627,220.65292 L 134.54627,219.31092 L 134.72827,217.74192 L 135.13727,216.08092 L 134.96827,214.65592 L 133.36727,213.81792 L 134.27527,211.95192 L 133.42727,210.66992 L 133.13627,209.06492 L 133.92727,207.12892 L 133.76627,205.48392 L 133.12827,203.98492 L 131.93027,202.65892 L 132.97727,200.64392 L 131.49527,199.40392 L 132.65627,197.78592 L 131.31927,197.11192 L 132.14227,196.02192 L 131.26127,195.25992 L 131.58227,194.26592 L 131.69227,193.31292 L 132.21427,192.27992 L 131.02327,191.57792 L 131.77627,190.49992 L 131.55627,189.61092 L 131.32027,188.72392 L 131.71427,187.71592 L 131.79227,186.76892 L 131.26227,185.93992 L 130.73327,185.10992 L 131.70327,183.99092 L 130.58527,183.17192 L 131.25127,182.11992 L 130.81127,181.14192 L 130.95827,180.12492 L 130.31027,179.16092 L 131.37327,178.08192 L 131.74527,177.04992 L 130.93527,176.09692 L 130.37127,175.12692 L 130.65027,174.10092 L 130.98027,173.07092 L 130.98727,172.06292 L 130.12327,171.11292 L 131.15627,170.03692 L 131.00827,169.03892 L 130.79927,168.04592 L 131.26427,167.08492 L 131.03127,166.05992 L 130.84027,165.03792 L 131.00927,164.03992 L 130.25627,162.97992 L 130.51927,161.98792 L 131.23827,161.02692 L 130.83527,159.99092 L 130.08327,158.93092 L 131.30827,158.00292 L 130.59927,156.94692 L 131.41027,155.99192 L 130.73827,154.93692 L 130.72327,153.92692 L 131.35827,152.95992 L 130.66227,151.90392 L 131.59527,151.05792 L 130.74327,149.96192 L 132.07027,149.28592 L 131.43227,148.22992 L 130.62627,147.14292 L 132.08127,146.49192 L 131.85227,145.51492 L 131.13327,144.44392 L 131.06027,143.49792 L 131.46527,142.64392 L 131.53227,141.72492 L 131.58527,140.80292 L 132.73627,140.09292 L 132.74227,139.16192 L 131.58827,138.00692 L 131.34627,137.02792 L 131.69827,135.72592 L 132.92727,134.41192 L 133.12727,132.78092 L 132.49627,130.89492 L 133.56227,129.53092 L 132.47127,127.50392 L 134.16027,126.33092 L 133.32827,124.38292 L 134.24827,123.12392 L 133.92927,121.50292 L 134.76627,120.35692 L 133.83527,118.48392 L 134.17427,117.13292 L 135.48927,116.18292 L 135.96427,114.88792 L 136.15227,113.47492 L 135.94727,112.14292 L 135.83227,110.97592 L 136.55727,110.26292 L 136.61727,109.19092 L 137.08127,108.33692 L 136.98927,107.18192 L 137.70527,106.46592 L 137.46827,105.23192 L 136.86827,103.79992 L 137.41827,102.99392 L 137.64027,102.00892 L 137.78327,100.98092 L 138.27727,100.14392 L 138.75227,99.296915 L 138.10727,97.841915 L 138.88627,97.158915 L 138.88427,95.756915 L 139.90927,94.447915 L 139.48027,92.797915 L 140.45627,90.942915 L 140.45627,244.28192"
       id="path55"
       style="fill:#ffffff;fill-opacity:1;fill-rule:nonzero;stroke:none" /></g></svg>