<?xml version="1.0" encoding="UTF-8" standalone="no"?>
<!-- Created with Inkscape (http://www.inkscape.org/) -->

<svg
   xmlns:dc="http://purl.org/dc/elements/1.1/"
   xmlns:cc="http://creativecommons.org/ns#"
   xmlns:rdf="http://www.w3.org/1999/02/22-rdf-syntax-ns#"
   xmlns:svg="http://www.w3.org/2000/svg"
   xmlns="http://www.w3.org/2000/svg"
   version="1.1"
   width="412.54382"
   height="146.24121"
   id="svg4422">
  <defs
     id="defs4424" />
  <g
     transform="translate(-125.15665,-439.24158)"
     id="layer1">
    <path
       d="m 187.49935,534.96773 c -1.25106,2.23132 -3.28404,3.02849 -7.39196,3.02849 l -14.71526,0 c -2.56316,0 -4.3444,-1.01839 -4.56181,-3.02849 l -2.44873,-30.32686 c -0.12205,-1.22437 -0.8582,-1.70877 -1.84226,-1.70877 l -28.78211,0 c -1.5829,0 -2.01391,-0.90779 -1.19385,-2.49069 l 1.69733,-3.34507 c 0.82006,-1.5829 1.87278,-1.85752 3.45568,-1.85752 l 37.46327,0 c 1.88041,0 3.24209,1.51806 3.34889,3.16961 l 1.33116,14.4826 c 0.0496,0.99169 1.51806,0.94974 2.01772,0 l 35.8613,-69.2281 c 1.20911,-2.10163 2.2809,-3.42135 6.04172,-3.42135 l 12.7662,0 c 3.38703,0 5.42763,0.76666 5.78617,3.73793 l 3.74557,36.49065 c 0.0877,0.82005 0.8582,1.59434 1.89185,1.59434 l 34.27458,0 c 1.57909,0 2.51738,0.90397 2.55934,2.48687 l 0.0114,2.71954 c 0.0496,1.5829 -0.94974,2.49069 -2.53264,2.49069 l -44.68359,0 c -1.88041,0 -3.61206,-1.38838 -3.81422,-3.23446 l -1.6744,-22.22165 c -0.0381,-1.03747 -1.6096,-1.01458 -2.04442,0 l -36.56693,70.66224 z"
       id="path4176"
       style="fill:#6ea4d2;fill-opacity:1;fill-rule:nonzero;stroke:none" />
    <path
       d="m 533.92207,500.53181 c 3.70742,0 2.88355,2.54027 2.14359,4.3711 l -2.31904,5.99976 c -1.17097,3.29168 -2.8683,3.94009 -7.12497,3.94009 l -28.32058,0 c -3.38703,0 -5.03477,0.78955 -5.57639,2.15885 l -25.09375,63.194 c -1.08324,2.73098 -3.16581,4.28718 -9.94368,4.28718 l -22.78615,0 c -6.77786,0 -7.62081,-1.5562 -6.53757,-4.28718 l 25.11283,-63.21688 c 0.54162,-1.36931 -0.4806,-2.13597 -3.86762,-2.13597 l -25.00222,0 c -3.38702,0 -5.03095,0.76666 -5.57257,2.13597 l -25.11664,63.21688 c -1.08324,2.73098 -3.1658,4.28718 -9.94367,4.28718 l -22.78615,0 c -6.77787,0 -7.62081,-1.5562 -6.53757,-4.28718 l 25.10901,-63.20163 c 0.54162,-1.36549 -0.4806,-2.15122 -3.87144,-2.15122 l -15.56964,0 c -2.5212,0 -4.10792,0.63698 -7.21269,3.03231 l -74.19421,62.19467 c -3.72268,2.92169 -5.91586,4.41305 -10.28314,4.41305 l -25.3493,0 c -4.81736,0 -7.13641,-1.60197 -7.36526,-4.41305 l -5.85483,-74.77397 c -0.16401,-2.70047 1.7431,-4.76396 5.45052,-4.76396 l 38.92793,0 c 4.3711,0 4.95467,1.51806 5.11487,4.45501 l 1.99102,33.958 c 0.15257,2.13978 0.45008,2.81108 2.15885,2.81108 1.71258,0 2.36482,-0.48059 5.53825,-2.81108 l 43.26088,-34.00759 c 3.86381,-2.79201 6.65963,-4.40542 11.37019,-4.40542 l 190.05114,0 z"
       id="path4180"
       style="fill:#194281;fill-opacity:1;fill-rule:nonzero;stroke:none" />
  </g>
</svg>
